<?xml version="1.0" encoding="utf-8"?>
<!-- Generator: Adobe Illustrator 21.0.2, SVG Export Plug-In . SVG Version: 6.00 Build 0)  -->
<!DOCTYPE svg PUBLIC "-//W3C//DTD SVG 1.1//EN" "http://www.w3.org/Graphics/SVG/1.1/DTD/svg11.dtd">
<svg version="1.1" id="Layer_1" xmlns="http://www.w3.org/2000/svg" xmlns:xlink="http://www.w3.org/1999/xlink" x="0px" y="0px"
	 viewBox="0 0 651.9 203.5" style="enable-background:new 0 0 651.9 203.5;" xml:space="preserve">
<style type="text/css">
	.st0{fill:#213565;}
	.st1{fill:#E6E7E7;}
	.st2{fill:#CFD1D2;}
	.st3{fill:#E9571E;}
	.st4{fill:#E73E4A;}
	.st5{fill:#F29129;}
	.st6{fill:none;stroke:#E84443;stroke-width:0.9045;stroke-miterlimit:10;}
	.st7{fill:#FFFFFF;stroke:#E84443;stroke-width:0.9045;stroke-miterlimit:10;}
	.st8{opacity:0.1;fill:#213565;enable-background:new    ;}
</style>
<g>
	<g>
		<g>
			<path class="st0" d="M164.4,156.3l-5.6,17.8c-9.7-0.7-16-3.2-20.2-10.4c-5.5,8.3-14,10.9-22.6,10.9c-15,0-24.7-10-24.7-23.8
				c0-16.5,12.6-25.6,36.2-25.6h5.3v-1.8c0-7.6-2.5-9.5-10.8-9.5c-4.3,0-11.9,1.4-19.3,3.9l-6-17.7c9.4-3.8,21-5.9,29.6-5.9
				c23.8,0,33.6,9.1,33.6,27.6v25.8C159.9,153,161,155.1,164.4,156.3z M132.9,150.7v-11.1H130c-7.8,0-11.5,2.7-11.5,8.5
				c0,4.2,2.4,7,6.2,7C128.1,155.2,131,153.2,132.9,150.7z"/>
			<path class="st0" d="M241.3,171.9h-24.7l-1-7.7c-3.9,5.2-10.4,10.5-21.2,10.5c-19.5,0-28.4-16-28.4-40.6
				c0-23.3,12.1-39.8,32-39.8c5.6,0,11.4,2.1,15.6,5.9V64.9l27.7,2.8V171.9z M213.6,148.2v-30c-2.5-2.7-4.8-4.2-8.1-4.2
				c-6.2,0-10.9,5.2-10.9,20.3c0,17.9,4.3,20.5,9.7,20.5C207.7,154.8,210.9,152.8,213.6,148.2z"/>
			<path class="st0" d="M276.8,151.4h31.7l-2.4,20.5h-61.7v-19.3l31.1-35.3h-28.3V97.1h60.3v19.2L276.8,151.4z"/>
			<path class="st0" d="M385.8,134.6c0,24.4-14.7,40.1-38.5,40.1c-23.5,0-38.5-14.3-38.5-40.4c0-24.4,14.7-40.1,38.5-40.1
				C370.8,94.2,385.8,108.5,385.8,134.6z M337.2,134.3c0,14.9,3.1,20.5,10.1,20.5s10.1-6,10.1-20.2c0-14.9-3.1-20.5-10.1-20.5
				C340.3,114.1,337.2,120.2,337.2,134.3z"/>
			<path class="st0" d="M464.1,134.6c0,24.4-14.7,40.1-38.5,40.1c-23.5,0-38.5-14.3-38.5-40.4c0-24.4,14.7-40.1,38.5-40.1
				C449.1,94.2,464.1,108.5,464.1,134.6z M415.5,134.3c0,14.9,3.1,20.5,10.1,20.5s10.1-6,10.1-20.2c0-14.9-3.1-20.5-10.1-20.5
				S415.5,120.2,415.5,134.3z"/>
			<path class="st0" d="M575.1,116.7v55.2h-27.7v-50.2c0-5.9-1.7-7.3-3.8-7.3c-2.7,0-5.5,2.4-7.7,7.4v50h-27.7v-50.2
				c0-5.9-1.7-7.3-3.8-7.3c-2.7,0-5.5,2.4-7.7,7.4v50H469V96.9h24.2l2,7.6c6-7.3,12.8-10.4,21.7-10.4c7.7,0,13.9,3.8,16.8,10.8
				c6.3-7.6,13.2-10.8,22.4-10.8C567.3,94.2,575.1,102.4,575.1,116.7z"/>
			<path class="st0" d="M651.9,156.3l-5.6,17.8c-9.7-0.7-16-3.2-20.2-10.4c-5.5,8.3-14,10.9-22.6,10.9c-15,0-24.7-10-24.7-23.8
				c0-16.5,12.6-25.6,36.2-25.6h5.3v-1.8c0-7.6-2.5-9.5-10.8-9.5c-4.3,0-11.9,1.4-19.3,3.9l-6-17.7c9.4-3.8,21-5.9,29.6-5.9
				c23.8,0,33.6,9.1,33.6,27.6v25.8C647.4,153,648.6,155.1,651.9,156.3z M620.4,150.7v-11.1h-2.9c-7.8,0-11.5,2.7-11.5,8.5
				c0,4.2,2.4,7,6.2,7C615.6,155.2,618.6,153.2,620.4,150.7z"/>
		</g>
		<g>
			<path class="st1" d="M95.4,0.2C89.8-2.2,59.8,20.7,43.6,58c-7.5,17.2-12.2,33.8-13.8,47.3c5.6,1.6,11.4,3.7,17.2,6.3
				c5.8,2.5,11.3,5.4,16.3,8.3C72,109.5,81,94.7,88.4,77.6C104.7,40.2,101,2.7,95.4,0.2z M74.6,47.9c-4.7-2-6.8-7.4-4.8-12.1
				c2-4.7,7.4-6.8,12.1-4.8c4.7,2,6.8,7.4,4.8,12.1S79.3,49.9,74.6,47.9z"/>
			<path class="st2" d="M88.5,77.5C104.7,40.2,101,2.7,95.4,0.2l0,0L82,31l0,0c4.7,2,6.8,7.4,4.8,12.1c-2,4.7-7.4,6.8-12.1,4.8l0,0
				L47,111.5c5.8,2.5,11.3,5.4,16.3,8.3C72,109.5,81,94.7,88.5,77.5z"/>
			<path class="st3" d="M51.1,125c0.4-0.8,0.6-1.7,0.7-2.5c0-0.1,0-0.1,0.1-0.2l0,0c0.4-3.9-1.7-7.7-5.5-9.3
				c-3.8-1.6-8-0.6-10.6,2.4l0,0c0,0.1-0.1,0.1-0.1,0.2c-0.6,0.7-1,1.4-1.4,2.2c-0.1,0.2-0.1,0.3-0.2,0.5c-0.1,0.2-0.2,0.4-0.3,0.6
				c-3,6.8,3,16.1,3,16.1s10.8-1.9,13.8-8.7c0.1-0.2,0.2-0.4,0.3-0.6C51,125.3,51.1,125.2,51.1,125z"/>
			<path class="st4" d="M95.4,0.2c-3.1-1.4-14.1,5.3-25.9,18.1l30.3,13.2C101.1,14.1,98.5,1.6,95.4,0.2z"/>
			<path class="st4" d="M34.6,72.8L6.2,85.9L0,100.2c7.8-0.1,17,1.2,26.9,4C28.1,94.7,30.8,83.9,34.6,72.8z"/>
			<path class="st4" d="M66,121.3c7.1,4.3,13.2,9,18,13.7c2.2-4.4,5.3-8.1,9.3-11.2l-9.9-29C78,104.9,72,114,66,121.3z"/>
		</g>
		<g>
			<path class="st5" d="M34.9,140.6c-2.7,6.2-4.6,12.8-5.8,19.4c-1.2,6.6-1.6,13.5-0.2,20.1c0.7,3.3,1.9,6.4,3.7,9.3
				c1.8,2.8,4.1,5.3,6.9,7.2c5.5,3.8,12.3,5.4,19,6.1c3.4,0.3,6.7,0.3,10.1,0.2c3.4-0.2,6.7-0.4,10.1-0.9c6.7-0.8,13.4-2.2,19.9-3.8
				c13.2-3.2,26.1-7.4,38.8-12c-6.3,2.4-12.7,4.8-19.1,7c-6.4,2.1-13,4.1-19.5,5.7c-6.6,1.7-13.3,3-20,3.9
				c-3.4,0.5-6.8,0.7-10.2,0.9c-3.4,0.1-6.8,0.1-10.2-0.2c-6.8-0.7-13.6-2.3-19.4-6.3c-2.8-2-5.2-4.5-7.1-7.4
				c-1.8-2.9-3-6.2-3.7-9.6c-1.4-6.7-0.8-13.7,0.4-20.3C30,153.3,32.1,146.8,34.9,140.6z"/>
		</g>
		<g>
			<path class="st5" d="M38.5,142.5c-1,2.8-1.9,5.6-2.6,8.5c-0.7,2.9-1.4,5.8-1.8,8.7c-0.4,2.9-0.7,5.9-0.7,8.8c0,3,0.3,5.9,0.9,8.8
				c0.6,2.9,1.7,5.7,3.2,8.2s3.5,4.7,5.9,6.5c2.3,1.8,5,3.2,7.8,4.1c1.4,0.6,2.8,0.9,4.3,1.2c0.7,0.2,1.5,0.3,2.2,0.4l2.2,0.4
				c-1.5-0.2-3-0.3-4.4-0.6c-1.5-0.3-2.9-0.5-4.4-1.1c-2.9-0.8-5.6-2.2-8.1-3.9c-2.5-1.7-4.6-4-6.2-6.6c-1.6-2.6-2.7-5.5-3.3-8.4
				c-1.3-5.9-1-12,0-17.9C34.4,153.7,36.1,147.9,38.5,142.5z"/>
		</g>
	</g>
	<circle class="st6" cx="78.3" cy="39.5" r="9.2"/>
	<circle class="st7" cx="78.3" cy="39.5" r="9.2"/>
	<path class="st8" d="M86.4,35.3c-6.8,0.2-12.5,4.6-14.7,10.6c1.7,1.7,4,2.7,6.5,2.7c5.1,0,9.2-4.1,9.2-9.2
		C87.5,37.9,87.1,36.5,86.4,35.3z"/>
</g>
</svg>
