<svg xmlns="http://www.w3.org/2000/svg" xmlns:xlink="http://www.w3.org/1999/xlink" viewBox="0 0 563.72 700.26"><defs><style>.cls-1{isolation:isolate;}.cls-2{fill:#f1f2f2;}.cls-13,.cls-2{mix-blend-mode:multiply;}.cls-3{fill:url(#linear-gradient);}.cls-4{fill:url(#linear-gradient-2);}.cls-5{fill:#bf8c4f;}.cls-6{fill:#dba25a;}.cls-7{fill:#fdd0a7;}.cls-8{fill:#f5f0e1;}.cls-9{fill:#231f20;}.cls-10{fill:#58595b;}.cls-11{fill:#fccf5b;}.cls-12{fill:#fde29d;}.cls-13{fill:#d1d3d4;}.cls-14{fill:#e3a75d;}.cls-15{fill:#c99353;}</style><linearGradient id="linear-gradient" x1="215.88" y1="543.52" x2="165.47" y2="405.03" gradientUnits="userSpaceOnUse"><stop offset="0.46" stop-color="#785832"/><stop offset="0.61" stop-color="#886439"/><stop offset="0.84" stop-color="#9a7140"/><stop offset="1" stop-color="#a17643"/></linearGradient><linearGradient id="linear-gradient-2" x1="353.78" y1="544.44" x2="405.06" y2="410.86" xlink:href="#linear-gradient"/></defs><title>box-bulb</title><g class="cls-1"><g id="Layer_1" data-name="Layer 1"><path class="cls-2" d="M648.86,693.65c0,29.76-110.16,62.49-246,62.49s-246-32.73-246-62.49,110.16-52.16,246.05-52.16S648.86,663.89,648.86,693.65Z" transform="translate(-120.91 -55.88)"/><polygon class="cls-3" points="285.44 518.2 283.37 366.93 88.99 432.87 95.28 574.22 285.44 518.2"/><polygon class="cls-4" points="480.86 574.33 476.86 438.43 283.37 366.93 285.44 518.2 480.86 574.33"/><polygon class="cls-5" points="476.86 438.43 283.37 366.93 378.23 368.16 563.72 425.71 476.86 438.43"/><polygon class="cls-6" points="88.99 432.87 283.37 366.93 176.92 366.08 0 426.61 88.99 432.87"/><path class="cls-7" d="M462.36,318.71c-.38-40.83-36.93-46.73-38.41-33-2,18.76,4.69,19.64,9.1,31.16,2.9,7.58,5.66,19.23-19.69,23.43s-66.56-5.31-66.37-20.6c.15-12.45,18.14-25.22,7.07-36.95-16.39-17.37-36.3,18.68-31.16,43.38,4.27,20.56,42.59,28.65,42.59,28.65-13.09,3.68-27.95-.31-40.36-5.26-37.25-14.84-42.4-37.18-51.78-26.63-20.16,22.7,19.94,45.31,47.29,47.87a146.77,146.77,0,0,0,36.17-1.39c-9.72,5.14-19.85,6.49-29.87,7.51-33.12,3.39-45.6-18.12-53.62-8.26-14,17.18,13.54,31.27,55.48,22.73a192.18,192.18,0,0,0,34-10.09c-6.2,6.86-12.33,8.61-19.44,11.22-23.41,8.58-44.92-.2-41.39,17.44,2.61,13.05,31.16,6.26,52.4-4.85,18.21-9.52,15.46-11.73,15.46-11.73l-.48,95.92,54.62-4.68-2.7-120.8C445,354.78,462.61,346.13,462.36,318.71Z" transform="translate(-120.91 -55.88)"/><polygon class="cls-8" points="241.34 355.61 306.85 355.8 306.77 375.28 241.42 375.58 241.34 355.61"/><polygon class="cls-9" points="238.13 367.62 310.61 366.19 315.33 575.84 235.66 576.36 238.13 367.62"/><path class="cls-10" d="M423.88,440.75a5.71,5.71,0,1,0-7.93-1.53A5.71,5.71,0,0,0,423.88,440.75Z" transform="translate(-120.91 -55.88)"/><path class="cls-10" d="M424.51,459.64a5.71,5.71,0,1,0-7.92-1.53A5.7,5.7,0,0,0,424.51,459.64Z" transform="translate(-120.91 -55.88)"/><path class="cls-10" d="M425.15,478.54a5.71,5.71,0,1,0-7.93-1.53A5.72,5.72,0,0,0,425.15,478.54Z" transform="translate(-120.91 -55.88)"/><path class="cls-11" d="M363.6,268c-4.74-42.37-59.73-63.59-30.35-120.64,19.82-38.44,100.64-50.77,118.55,16.69C465.58,216,424.92,223.24,419,268.88Z" transform="translate(-120.91 -55.88)"/><path class="cls-9" d="M418.64,294.28s8.43-7,.22-11.64c0,0,9.65-8.14.09-13.76l-13-.2c1.55-14.76,3.82-29.49,5.34-44.23.94-9.13,1.71-18.29,2.57-27.43s2.45-18.24,1.81-27.3c-.33-4.78-.38-11.08-4.9-13.89-3.07-1.91-5.82,1.64-7.13,3.92a42.23,42.23,0,0,0-3.83,10.41c-1.28-5.68-3.64-9.9-7.95-8.91-5.25,1.2-7.61,12.09-8.69,16.18-.09.35-.18.71-.28,1.06a62.51,62.51,0,0,0-1.65-6.5c-1.54-4.85-2.91-11.39-8.07-13.45-7.91-3.17-10.36,15.9-10.68,19.82-1.47,18.33,2.16,37.56,5.6,55.46,1.73,9,3.38,18.09,5.06,27.13.34,1.89.56,4.55,1,7.22L363.6,268s-10.36,4.27-.82,13.9c0,0-9.78,4.81-.61,12.16,0,0-8.81,5.73,1,11.06l10.92.62,8.51,10.07,14.34.78,9.16-9.58,10.71-.43S428.91,301.06,418.64,294.28Zm-39.84-26c-.67-2.68-.93-5.63-1.41-8.21-1.23-6.61-2.8-13.14-3.94-19.76C370.93,225.57,368,211,367.22,196c-.56-10.36-1.31-20.68,2.65-30.48,2.14-5.31,5.12,1.64,5.9,3.74a76.13,76.13,0,0,1,3.06,10.2c.9,4,1.35,8.18,1.86,12.3a19.64,19.64,0,0,0,.94,6.5s0,0,0,.06h0a5.52,5.52,0,0,0,.18.53c.91,2.36,4.43.86,4-1.44-.44-2.46-.78-4.93-1.12-7.4.27-7.35,3.5-16.18,6.15-21.35,3.23-6.29,5,7.72,5.27,9.64.21,1.57.37,3.21.49,4.86-.58,3.46-.7,6.94.37,9.8.8,2.09,4,1.14,4.07-.86.08-1.3.17-3.62.16-6.43a8.89,8.89,0,0,0,.29-1.7,53.66,53.66,0,0,1,1.94-10.69,93.61,93.61,0,0,1,2.92-9.25c1.63-4.23,3.93-2.68,4.39,1.35a76.17,76.17,0,0,1,.76,11c-.2,6.76-1.24,13.67-2,20.39-1.49,14-2.79,28.09-4,42.14-.83,9.94-2.49,19.79-3.75,29.69Z" transform="translate(-120.91 -55.88)"/><path class="cls-12" d="M335.46,178.16c2-4.51,2.84-9.4,4.55-14a53.78,53.78,0,0,1,5-9.72c2.07-3.35,4.17-6.9,6.43-10.1a1.38,1.38,0,0,0-1.44-2.23c-4.52,1.23-7.27,3.79-9.81,7.7a58,58,0,0,0-5.34,10,47.8,47.8,0,0,0-3.53,17.49,2.21,2.21,0,0,0,4.14.88Z" transform="translate(-120.91 -55.88)"/><path class="cls-12" d="M361.57,133.13a.36.36,0,0,1-.11-.1c.16.2.33.39.5.59-.73-1-1.8-2-3.15-1.76l1.52.33-.09,0a3,3,0,0,0-2.89.13,2.88,2.88,0,0,0-1.31,2.59.28.28,0,0,0,0,.09c.11-.51.21-1,.32-1.53a3.22,3.22,0,0,0,.26,3.35,3.51,3.51,0,0,0,3.11,1.49,3,3,0,0,0,1.83-5.14Z" transform="translate(-120.91 -55.88)"/><path class="cls-12" d="M432.08,219.84c2.29,1,4.17-1.76,5.21-3.37,1.6-2.49,3-5.19,4.39-7.78a30.86,30.86,0,0,0,3.23-7.12c.47-1.8.45-5.38-1.78-6.11-1.81-.59-3.35,2.12-4,3.36-1.32,2.52-2.33,5.18-3.69,7.69s-2.52,4.85-3.63,7.35c-.79,1.76-2.26,4.89.26,6Z" transform="translate(-120.91 -55.88)"/><polygon class="cls-6" points="88.99 432.87 277.2 503.13 276.39 690.01 95.28 626.15 88.99 432.87"/><polygon class="cls-5" points="476.86 438.43 482.48 626.27 276.39 690.01 277.2 503.13 476.86 438.43"/><polygon class="cls-13" points="277.2 503.13 319.15 586.53 527.94 502.04 476.93 438.39 277.2 503.13"/><polygon class="cls-14" points="277.2 503.13 340.32 586.33 549.11 501.84 476.93 438.39 277.2 503.13"/><polygon class="cls-13" points="277.2 503.13 88.99 432.87 49.93 509.7 233.44 586.26 277.2 503.13"/><polygon class="cls-15" points="277.2 503.13 88.99 432.87 23.37 509.98 206.88 586.53 277.2 503.13"/><path class="cls-11" d="M464.61,130.69a38.61,38.61,0,0,0,8.45-6,55.54,55.54,0,0,0,10.54-13.23c.72-1.21-.52-3.17-2-2.55a33.75,33.75,0,0,0-14.11,10.31c-2.19,2.72-7.13,5.28-6.54,9.44a2.45,2.45,0,0,0,3.64,2.06Z" transform="translate(-120.91 -55.88)"/><path class="cls-11" d="M325.37,129.82c-.24-4.88-4.4-8.39-7.27-12-1.45-1.81-3.08-3.47-4.58-5.23a41.49,41.49,0,0,0-5.06-5.68c-1.45-1.17-4.36-1-4.7,1.27-.8,5.39,3.1,9.2,6.54,12.81s7.15,8.26,11.79,10.72a2.21,2.21,0,0,0,3.28-1.91Z" transform="translate(-120.91 -55.88)"/><path class="cls-11" d="M328.68,82.13c-.7,5,2.05,9.65,4.25,13.92a55.63,55.63,0,0,0,9.59,13,1.65,1.65,0,0,0,2.79-1.18c-.19-5.23-1.87-9.63-4.4-14.16-2.31-4.14-4.39-9.44-7.71-12.85-1.3-1.34-4.22-.83-4.52,1.22Z" transform="translate(-120.91 -55.88)"/><path class="cls-11" d="M421.73,102.38c1.47-1.4,2.37-3.73,3.22-5.54,1.26-2.7,2.39-5.39,3.42-8.18,1.12-3,2.29-6.06,3.25-9.16s2.35-6.38,2.05-9.6a1.17,1.17,0,0,0-1.74-1c-2.62,1.44-4.67,4.48-6.05,7.06a70.74,70.74,0,0,0-4.68,10.76c-1.29,3.88-5.29,12.21-1.37,15.66a1.37,1.37,0,0,0,1.9,0Z" transform="translate(-120.91 -55.88)"/><path class="cls-11" d="M446.38,112.24c-.71.73.59-.64.6-.69a6.37,6.37,0,0,1,.39-.73c.5-.8,1-1.6,1.54-2.42,1.44-2.21,3-4.31,4.64-6.41,3.09-4,6.71-7.95,8.45-12.59.91-2.44-2.07-3.87-3.95-3-4.91,2.3-8.73,7.88-11.72,12.51-1.58,2.46-7.34,11.58-2.38,13.66a2.08,2.08,0,0,0,2.43-.34Z" transform="translate(-120.91 -55.88)"/><path class="cls-11" d="M396.87,94.75c1.69-1.54,2.05-4.44,2.65-6.54a64.75,64.75,0,0,0,1.63-10.75,61.37,61.37,0,0,0,0-11.34c-.24-3.26-.7-7-2.68-9.67a1.24,1.24,0,0,0-2.11,0c-1.95,2.79-2.08,6.41-2.31,9.7-.26,3.77-.21,7.57-.33,11.34s-.41,7.3-.54,11c-.09,2.28,0,5.09,2.06,6.5a1.41,1.41,0,0,0,1.67-.22Z" transform="translate(-120.91 -55.88)"/><path class="cls-11" d="M369.46,98.85a2.72,2.72,0,0,0,0,.3c-.08.62.71.72,1.08.43,3.54-2.79.46-10.31-.46-13.69-1.31-4.79-2.64-11.93-6.79-15.14a1.6,1.6,0,0,0-2.63.72c-1.43,5.5.12,11.32,1.95,16.53,1.08,3.08,3.23,11.82,7.48,11.77V98.51l-.3,0a.29.29,0,0,0-.29.29Z" transform="translate(-120.91 -55.88)"/></g></g></svg>