<?xml version="1.0" encoding="utf-8"?>
<!-- Generator: Adobe Illustrator 22.0.1, SVG Export Plug-In . SVG Version: 6.00 Build 0)  -->
<svg version="1.1" id="Layer_1" xmlns="http://www.w3.org/2000/svg" xmlns:xlink="http://www.w3.org/1999/xlink" x="0px" y="0px"
	 viewBox="0 0 500 500" style="enable-background:new 0 0 500 500;" xml:space="preserve">
<style type="text/css">
	.st0{fill:#F1F2F2;}
	.st1{fill:#F0B238;}
	.st2{fill:#FFCC65;}
</style>
<g>
	<g>
		<g>
			<g>
				<g>
					<ellipse class="st0" cx="231.6" cy="405.2" rx="70.7" ry="24"/>
				</g>
			</g>
		</g>
	</g>
	<g>
		<g>
			<g>
				<g>
					<ellipse class="st0" cx="323.9" cy="363" rx="67.1" ry="21.8"/>
				</g>
			</g>
		</g>
	</g>
	<g>
		<g>
			<g>
				<g>
					<ellipse class="st0" cx="167.1" cy="354.6" rx="67.1" ry="21.8"/>
				</g>
			</g>
		</g>
	</g>
	<g>
		<g>
			<g>
				<g>
					<path class="st1" d="M193,255v12c0,10.5,25.1,19,55.9,19c30.9,0,55.9-8.5,55.9-19v-12H193L193,255z"/>
				</g>
				<g>
					<g>
						<ellipse class="st2" cx="248.9" cy="255" rx="55.9" ry="19"/>
					</g>
				</g>
				<g>
					<g>
						<ellipse class="st1" cx="248.9" cy="255" rx="45.5" ry="15.5"/>
					</g>
				</g>
				<g>
					<g>
						<g>
							<path class="st2" d="M235.1,261.8c-2.2-0.7-3.4-1.8-3.4-3.3v-0.6h12.5v0.5c0,0.7,0.4,1.2,1.2,1.4c0.8,0.2,1.8,0.4,3.1,0.4
								c1.4,0,2.4-0.2,3.1-0.5c0.7-0.3,1-0.6,1-1.1c0-0.6-0.5-1-1.5-1.3c-1-0.3-2.2-0.6-3.8-0.8c-1.5-0.2-3.1-0.5-4.9-0.7
								c-1.8-0.2-3.4-0.6-4.9-0.9c-1.5-0.4-2.7-0.9-3.8-1.4c-1-0.6-1.5-1.4-1.5-2.3c0-3,4.2-4.6,12.7-5.1v-1.4h6.4v1.4
								c4.6,0.2,8,0.6,10.1,1.4c2.1,0.8,3.1,2,3.1,3.6h-12.1v-0.3c0-0.5-0.3-0.9-0.9-1.2c-0.6-0.3-1.5-0.6-2.8-0.6
								c-1.4,0-2.4,0.2-3,0.5c-0.6,0.3-1,0.6-1,1c0,0.6,0.6,1,1.6,1.3c1,0.3,2.3,0.6,3.9,0.8c1.6,0.2,3.3,0.5,5,0.6
								c1.8,0.2,3.5,0.5,5,0.9c1.6,0.4,2.9,0.9,3.9,1.5c1,0.6,1.6,1.4,1.6,2.5c0,1.6-1.2,2.8-3.7,3.6c-2.5,0.8-6.1,1.3-10.9,1.4v2.2
								h-6.4v-2.2C240.7,263,237.4,262.6,235.1,261.8z"/>
						</g>
					</g>
				</g>
			</g>
			<g>
				<g>
					<path class="st1" d="M198.8,239.4v12c0,10.5,25.1,19,55.9,19c30.9,0,55.9-8.5,55.9-19v-12H198.8L198.8,239.4z"/>
				</g>
				<g>
					<g>
						<path class="st2" d="M310.7,239.4c0,10.5-25.1,19-55.9,19c-30.9,0-55.9-8.5-55.9-19c0-10.5,25.1-19,55.9-19
							C285.6,220.4,310.7,228.9,310.7,239.4z"/>
					</g>
				</g>
				<g>
					<g>
						<path class="st1" d="M300.2,239.4c0,8.6-20.3,15.5-45.5,15.5s-45.5-6.9-45.5-15.5c0-8.6,20.3-15.5,45.5-15.5
							S300.2,230.8,300.2,239.4z"/>
					</g>
				</g>
				<g>
					<g>
						<g>
							<path class="st2" d="M240.9,246.2c-2.2-0.7-3.4-1.8-3.4-3.3v-0.6h12.5v0.5c0,0.7,0.4,1.2,1.2,1.4s1.8,0.4,3.1,0.4
								c1.4,0,2.4-0.2,3.1-0.5c0.7-0.3,1-0.6,1-1.1c0-0.6-0.5-1-1.5-1.3c-1-0.3-2.2-0.6-3.8-0.8c-1.5-0.2-3.1-0.5-4.9-0.7
								c-1.8-0.2-3.4-0.6-4.9-0.9c-1.5-0.4-2.7-0.9-3.8-1.4c-1-0.6-1.5-1.4-1.5-2.3c0-3,4.2-4.6,12.7-5.1v-1.4h6.4v1.4
								c4.6,0.2,8,0.6,10.1,1.4c2.1,0.8,3.1,2,3.1,3.6h-12.1v-0.3c0-0.5-0.3-0.9-0.9-1.2c-0.6-0.3-1.5-0.6-2.8-0.6
								c-1.4,0-2.4,0.2-3,0.5c-0.6,0.3-1,0.6-1,1c0,0.6,0.6,1,1.6,1.3c1,0.3,2.3,0.6,3.9,0.8c1.6,0.2,3.3,0.5,5,0.6
								c1.8,0.2,3.5,0.5,5,0.9c1.6,0.4,2.9,0.9,3.9,1.5c1,0.6,1.6,1.4,1.6,2.5c0,1.6-1.2,2.8-3.7,3.6c-2.5,0.8-6.1,1.3-10.9,1.4v2.2
								h-6.4v-2.2C246.5,247.3,243.2,246.9,240.9,246.2z"/>
						</g>
					</g>
				</g>
			</g>
			<g>
				<g>
					<path class="st1" d="M194.9,223.7v12c0,10.5,25.1,19,55.9,19s55.9-8.5,55.9-19v-12H194.9z"/>
				</g>
				<g>
					<g>
						<ellipse class="st2" cx="250.8" cy="223.7" rx="55.9" ry="19"/>
					</g>
				</g>
				<g>
					<g>
						<ellipse class="st1" cx="250.8" cy="223.7" rx="45.5" ry="15.5"/>
					</g>
				</g>
				<g>
					<g>
						<g>
							<path class="st2" d="M237,230.6c-2.2-0.7-3.4-1.8-3.4-3.3v-0.6h12.5v0.5c0,0.7,0.4,1.2,1.2,1.4c0.8,0.2,1.8,0.4,3.1,0.4
								c1.4,0,2.4-0.2,3.1-0.5c0.7-0.3,1-0.6,1-1.1c0-0.6-0.5-1-1.5-1.3c-1-0.3-2.2-0.6-3.8-0.8c-1.5-0.2-3.1-0.5-4.9-0.7
								c-1.8-0.2-3.4-0.6-4.9-0.9c-1.5-0.4-2.7-0.9-3.8-1.4c-1-0.6-1.5-1.4-1.5-2.3c0-3,4.2-4.6,12.7-5.1v-1.4h6.4v1.4
								c4.6,0.2,8,0.6,10.1,1.4s3.1,2,3.1,3.6h-12v-0.3c0-0.5-0.3-0.9-0.9-1.2c-0.6-0.3-1.5-0.6-2.8-0.6c-1.4,0-2.4,0.2-3,0.5
								c-0.6,0.3-1,0.6-1,1c0,0.6,0.6,1,1.6,1.3c1,0.3,2.3,0.6,3.9,0.8c1.6,0.2,3.3,0.5,5,0.6c1.8,0.2,3.5,0.5,5,0.9
								c1.6,0.4,2.9,0.9,3.9,1.5c1,0.6,1.6,1.4,1.6,2.5c0,1.6-1.2,2.8-3.7,3.6c-2.5,0.8-6.1,1.3-10.9,1.4v2.2h-6.4V232
								C242.7,231.7,239.3,231.2,237,230.6z"/>
						</g>
					</g>
				</g>
			</g>
			<g>
				<g>
					<path class="st1" d="M185.2,208.1v12c0,10.5,25.1,19,55.9,19c30.9,0,55.9-8.5,55.9-19v-12H185.2z"/>
				</g>
				<g>
					<g>
						<path class="st2" d="M297.1,208.1c0,10.5-25.1,19-55.9,19s-55.9-8.5-55.9-19c0-10.5,25.1-19,55.9-19S297.1,197.6,297.1,208.1z
							"/>
					</g>
				</g>
				<g>
					<g>
						<path class="st1" d="M286.7,208.1c0,8.6-20.3,15.5-45.5,15.5s-45.5-6.9-45.5-15.5s20.3-15.5,45.5-15.5
							S286.7,199.5,286.7,208.1z"/>
					</g>
				</g>
				<g>
					<g>
						<g>
							<path class="st2" d="M227.4,215c-2.2-0.7-3.4-1.8-3.4-3.3v-0.6h12.5v0.5c0,0.7,0.4,1.2,1.2,1.4s1.8,0.4,3.1,0.4
								c1.4,0,2.4-0.2,3.1-0.5c0.7-0.3,1-0.6,1-1.1c0-0.6-0.5-1-1.5-1.3c-1-0.3-2.2-0.6-3.8-0.8c-1.5-0.2-3.1-0.5-4.9-0.7
								c-1.8-0.2-3.4-0.6-4.9-0.9c-1.5-0.4-2.7-0.9-3.8-1.4c-1-0.6-1.5-1.4-1.5-2.3c0-3,4.2-4.6,12.7-5.1v-1.4h6.4v1.4
								c4.6,0.2,8,0.6,10.1,1.4s3.1,2,3.1,3.6h-12.1v-0.3c0-0.5-0.3-0.9-0.9-1.2c-0.6-0.3-1.5-0.6-2.8-0.6c-1.4,0-2.4,0.2-3,0.5
								c-0.6,0.3-1,0.6-1,1c0,0.6,0.6,1,1.6,1.3c1,0.3,2.3,0.6,3.9,0.8c1.6,0.2,3.3,0.5,5,0.6c1.8,0.2,3.5,0.5,5,0.9
								c1.6,0.4,2.9,0.9,3.9,1.5c1,0.6,1.6,1.4,1.6,2.5c0,1.6-1.2,2.8-3.7,3.6s-6.1,1.3-10.9,1.4v2.2h-6.4v-2.3
								C233,216.1,229.7,215.6,227.4,215z"/>
						</g>
					</g>
				</g>
			</g>
			<g>
				<g>
					<path class="st1" d="M191,192.5v12c0,10.5,25.1,19,55.9,19c30.9,0,55.9-8.5,55.9-19v-12H191z"/>
				</g>
				<g>
					<g>
						<ellipse class="st2" cx="247" cy="192.5" rx="55.9" ry="19"/>
					</g>
				</g>
				<g>
					<g>
						<ellipse class="st1" cx="247" cy="192.5" rx="45.5" ry="15.5"/>
					</g>
				</g>
				<g>
					<g>
						<g>
							<path class="st2" d="M233.2,199.3c-2.2-0.7-3.4-1.8-3.4-3.3v-0.6h12.5v0.5c0,0.7,0.4,1.2,1.2,1.4c0.8,0.2,1.8,0.4,3.1,0.4
								c1.4,0,2.4-0.2,3.1-0.5c0.7-0.3,1-0.6,1-1.1c0-0.6-0.5-1-1.5-1.3c-1-0.3-2.2-0.6-3.8-0.8c-1.5-0.2-3.1-0.5-4.9-0.7
								c-1.8-0.2-3.4-0.6-4.9-0.9c-1.5-0.4-2.7-0.9-3.8-1.4c-1-0.6-1.5-1.4-1.5-2.3c0-3,4.2-4.6,12.7-5.1v-1.4h6.4v1.4
								c4.6,0.2,8,0.6,10.1,1.4c2.1,0.8,3.1,2,3.1,3.6h-12.1v-0.3c0-0.5-0.3-0.9-0.9-1.2c-0.6-0.3-1.5-0.6-2.8-0.6
								c-1.4,0-2.4,0.2-3,0.5c-0.6,0.3-1,0.6-1,1c0,0.6,0.6,1,1.6,1.3c1,0.3,2.3,0.6,3.9,0.8c1.6,0.2,3.3,0.5,5,0.6
								c1.8,0.2,3.5,0.5,5,0.9c1.6,0.4,2.9,0.9,3.9,1.5s1.6,1.4,1.6,2.5c0,1.6-1.2,2.8-3.7,3.6c-2.5,0.8-6.1,1.3-10.9,1.4v2.2h-6.4
								v-2.2C238.8,200.4,235.4,200,233.2,199.3z"/>
						</g>
					</g>
				</g>
			</g>
			<g>
				<g>
					<path class="st1" d="M198.8,176.9v12c0,10.5,25.1,19,55.9,19c30.9,0,55.9-8.5,55.9-19v-12H198.8z"/>
				</g>
				<g>
					<g>
						<path class="st2" d="M310.7,176.9c0,10.5-25.1,19-55.9,19c-30.9,0-55.9-8.5-55.9-19s25.1-19,55.9-19
							C285.6,157.8,310.7,166.4,310.7,176.9z"/>
					</g>
				</g>
				<g>
					<g>
						<path class="st1" d="M300.2,176.9c0,8.6-20.3,15.5-45.5,15.5s-45.5-6.9-45.5-15.5s20.3-15.5,45.5-15.5
							S300.2,168.3,300.2,176.9z"/>
					</g>
				</g>
				<g>
					<g>
						<g>
							<path class="st2" d="M240.9,183.7c-2.2-0.7-3.4-1.8-3.4-3.3v-0.6h12.5v0.5c0,0.7,0.4,1.2,1.2,1.4c0.8,0.2,1.8,0.4,3.1,0.4
								c1.4,0,2.4-0.2,3.1-0.5c0.7-0.3,1-0.6,1-1.1c0-0.6-0.5-1-1.5-1.3c-1-0.3-2.2-0.6-3.8-0.8c-1.5-0.2-3.1-0.5-4.9-0.7
								c-1.8-0.2-3.4-0.6-4.9-0.9c-1.5-0.4-2.7-0.9-3.8-1.4c-1-0.6-1.5-1.4-1.5-2.3c0-3,4.2-4.6,12.7-5.1v-1.4h6.4v1.4
								c4.6,0.2,8,0.6,10.1,1.4s3.1,2,3.1,3.6h-12.1v-0.3c0-0.5-0.3-0.9-0.9-1.2c-0.6-0.3-1.5-0.6-2.8-0.6c-1.4,0-2.4,0.2-3,0.5
								c-0.6,0.3-1,0.6-1,1c0,0.6,0.6,1,1.6,1.3c1,0.3,2.3,0.6,3.9,0.8c1.6,0.2,3.3,0.5,5,0.6c1.8,0.2,3.5,0.5,5,0.9
								c1.6,0.4,2.9,0.9,3.9,1.5c1,0.6,1.6,1.4,1.6,2.5c0,1.6-1.2,2.8-3.7,3.6c-2.5,0.8-6.1,1.3-10.9,1.4v2.2h-6.4v-2.2
								C246.5,184.8,243.2,184.4,240.9,183.7z"/>
						</g>
					</g>
				</g>
			</g>
			<g>
				<g>
					<path class="st1" d="M194.9,161.2v12c0,10.5,25.1,19,55.9,19s55.9-8.5,55.9-19v-12H194.9z"/>
				</g>
				<g>
					<g>
						<ellipse class="st2" cx="250.8" cy="161.2" rx="55.9" ry="19"/>
					</g>
				</g>
				<g>
					<g>
						<ellipse class="st1" cx="250.8" cy="161.2" rx="45.5" ry="15.5"/>
					</g>
				</g>
				<g>
					<g>
						<g>
							<path class="st2" d="M237,168c-2.2-0.7-3.4-1.8-3.4-3.3v-0.6h12.5v0.5c0,0.7,0.4,1.2,1.2,1.4c0.8,0.2,1.8,0.4,3.1,0.4
								c1.4,0,2.4-0.2,3.1-0.5c0.7-0.3,1-0.6,1-1.1c0-0.6-0.5-1-1.5-1.3c-1-0.3-2.2-0.6-3.8-0.8c-1.5-0.2-3.1-0.5-4.9-0.7
								c-1.8-0.2-3.4-0.6-4.9-0.9c-1.5-0.4-2.7-0.9-3.8-1.4c-1-0.6-1.5-1.4-1.5-2.3c0-3,4.2-4.6,12.7-5.1v-1.4h6.4v1.4
								c4.6,0.2,8,0.6,10.1,1.4s3.1,2,3.1,3.6h-12V157c0-0.5-0.3-0.9-0.9-1.2c-0.6-0.3-1.5-0.6-2.8-0.6c-1.4,0-2.4,0.2-3,0.5
								c-0.6,0.3-1,0.6-1,1c0,0.6,0.6,1,1.6,1.3c1,0.3,2.3,0.6,3.9,0.8c1.6,0.2,3.3,0.5,5,0.6c1.8,0.2,3.5,0.5,5,0.9
								c1.6,0.4,2.9,0.9,3.9,1.5c1,0.6,1.6,1.4,1.6,2.5c0,1.6-1.2,2.8-3.7,3.6c-2.5,0.8-6.1,1.3-10.9,1.4v2.2h-6.4v-2.2
								C242.7,169.2,239.3,168.8,237,168z"/>
						</g>
					</g>
				</g>
			</g>
			<g>
				<g>
					<path class="st1" d="M200.7,145.5v12c0,10.5,25.1,19,55.9,19c30.9,0,55.9-8.5,55.9-19v-12H200.7z"/>
				</g>
				<g>
					<g>
						<ellipse class="st2" cx="256.6" cy="145.5" rx="55.9" ry="19"/>
					</g>
				</g>
				<g>
					<g>
						<ellipse class="st1" cx="256.6" cy="145.5" rx="45.5" ry="15.5"/>
					</g>
				</g>
				<g>
					<g>
						<g>
							<path class="st2" d="M242.8,152.4c-2.2-0.7-3.4-1.8-3.4-3.3v-0.6h12.5v0.5c0,0.7,0.4,1.2,1.2,1.4c0.8,0.2,1.8,0.4,3.1,0.4
								c1.4,0,2.4-0.2,3.1-0.5c0.7-0.3,1-0.6,1-1.1c0-0.6-0.5-1-1.5-1.3c-1-0.3-2.2-0.6-3.8-0.8c-1.5-0.2-3.1-0.5-4.9-0.7
								c-1.8-0.2-3.4-0.6-4.9-0.9c-1.5-0.4-2.7-0.9-3.8-1.4c-1-0.6-1.5-1.4-1.5-2.3c0-3,4.2-4.6,12.7-5.1v-1.4h6.4v1.4
								c4.6,0.2,8,0.6,10.1,1.4s3.1,2,3.1,3.6h-12.1v-0.3c0-0.5-0.3-0.9-0.9-1.2c-0.6-0.3-1.5-0.6-2.8-0.6c-1.4,0-2.4,0.2-3,0.5
								c-0.6,0.3-1,0.6-1,1c0,0.6,0.6,1,1.6,1.3c1,0.3,2.3,0.6,3.9,0.8s3.3,0.5,5,0.6c1.8,0.2,3.5,0.5,5,0.9
								c1.6,0.4,2.9,0.9,3.9,1.5c1,0.6,1.6,1.4,1.6,2.5c0,1.6-1.2,2.8-3.7,3.6c-2.5,0.8-6.1,1.3-10.9,1.4v2.2h-6.4v-2.2
								C248.4,153.6,245.1,153.1,242.8,152.4z"/>
						</g>
					</g>
				</g>
			</g>
			<g>
				<g>
					<path class="st1" d="M194.9,129.9v12c0,10.5,25.1,19,55.9,19s55.9-8.5,55.9-19v-12H194.9z"/>
				</g>
				<g>
					<g>
						<ellipse class="st2" cx="250.8" cy="129.9" rx="55.9" ry="19"/>
					</g>
				</g>
				<g>
					<g>
						<ellipse class="st1" cx="250.8" cy="129.9" rx="45.5" ry="15.5"/>
					</g>
				</g>
				<g>
					<g>
						<g>
							<path class="st2" d="M237,136.7c-2.2-0.7-3.4-1.8-3.4-3.3v-0.6h12.5v0.5c0,0.7,0.4,1.2,1.2,1.4c0.8,0.2,1.8,0.4,3.1,0.4
								c1.4,0,2.4-0.2,3.1-0.5c0.7-0.3,1-0.6,1-1.1c0-0.6-0.5-1-1.5-1.3c-1-0.3-2.2-0.6-3.8-0.8c-1.5-0.2-3.1-0.5-4.9-0.7
								c-1.8-0.2-3.4-0.6-4.9-0.9c-1.5-0.4-2.7-0.9-3.8-1.4c-1-0.6-1.5-1.4-1.5-2.3c0-3,4.2-4.6,12.7-5.1v-1.4h6.4v1.4
								c4.6,0.2,8,0.6,10.1,1.4c2.1,0.8,3.1,2,3.1,3.6h-12v-0.3c0-0.5-0.3-0.9-0.9-1.2c-0.6-0.3-1.5-0.6-2.8-0.6
								c-1.4,0-2.4,0.2-3,0.5c-0.6,0.3-1,0.6-1,1c0,0.6,0.6,1,1.6,1.3s2.3,0.6,3.9,0.8c1.6,0.2,3.3,0.5,5,0.6c1.8,0.2,3.5,0.5,5,0.9
								c1.6,0.4,2.9,0.9,3.9,1.5c1,0.6,1.6,1.4,1.6,2.5c0,1.6-1.2,2.8-3.7,3.6c-2.5,0.8-6.1,1.3-10.9,1.4v2.2h-6.4v-2.2
								C242.7,137.9,239.3,137.5,237,136.7z"/>
						</g>
					</g>
				</g>
			</g>
			<g>
				<g>
					<path class="st1" d="M202.6,114.3v12c0,10.5,25.1,19,55.9,19c30.9,0,55.9-8.5,55.9-19v-12C314.4,114.3,202.6,114.3,202.6,114.3
						z"/>
				</g>
				<g>
					<g>
						<ellipse class="st2" cx="258.6" cy="114.3" rx="55.9" ry="19"/>
					</g>
				</g>
				<g>
					<g>
						<ellipse class="st1" cx="258.6" cy="114.3" rx="45.5" ry="15.5"/>
					</g>
				</g>
				<g>
					<g>
						<g>
							<path class="st2" d="M244.8,121.1c-2.2-0.7-3.4-1.8-3.4-3.3v-0.6h12.5v0.5c0,0.7,0.4,1.2,1.2,1.4c0.8,0.2,1.8,0.4,3.1,0.4
								c1.4,0,2.4-0.2,3.1-0.5s1-0.6,1-1.1c0-0.6-0.5-1-1.5-1.3c-1-0.3-2.2-0.6-3.8-0.8c-1.5-0.2-3.1-0.5-4.9-0.7
								c-1.8-0.2-3.4-0.6-4.9-0.9c-1.5-0.4-2.7-0.9-3.8-1.4c-1-0.6-1.5-1.4-1.5-2.3c0-3,4.2-4.6,12.7-5.1V104h6.4v1.4
								c4.6,0.2,8,0.6,10.1,1.4c2.1,0.8,3.1,2,3.1,3.6h-12.1v-0.3c0-0.5-0.3-0.9-0.9-1.2c-0.6-0.3-1.5-0.6-2.8-0.6
								c-1.4,0-2.4,0.2-3,0.5c-0.6,0.3-1,0.6-1,1c0,0.6,0.6,1,1.6,1.3c1,0.3,2.3,0.6,3.9,0.8s3.3,0.5,5,0.6c1.8,0.2,3.5,0.5,5,0.9
								c1.6,0.4,2.9,0.9,3.9,1.5c1,0.6,1.6,1.4,1.6,2.5c0,1.6-1.2,2.8-3.7,3.6c-2.5,0.8-6.1,1.3-10.9,1.4v2.2h-6.4v-2.2
								C250.4,122.2,247.1,121.8,244.8,121.1z"/>
						</g>
					</g>
				</g>
			</g>
			<g>
				<g>
					<path class="st1" d="M194.9,98.6v12c0,10.5,25.1,19,55.9,19s55.9-8.5,55.9-19v-12H194.9z"/>
				</g>
				<g>
					<g>
						<ellipse class="st2" cx="250.8" cy="98.6" rx="55.9" ry="19"/>
					</g>
				</g>
				<g>
					<g>
						<ellipse class="st1" cx="250.8" cy="98.6" rx="45.5" ry="15.5"/>
					</g>
				</g>
				<g>
					<g>
						<g>
							<path class="st2" d="M237,105.5c-2.2-0.7-3.4-1.8-3.4-3.3v-0.6h12.5v0.5c0,0.7,0.4,1.2,1.2,1.4c0.8,0.2,1.8,0.4,3.1,0.4
								c1.4,0,2.4-0.2,3.1-0.5s1-0.6,1-1.1c0-0.6-0.5-1-1.5-1.3c-1-0.3-2.2-0.6-3.8-0.8c-1.5-0.2-3.1-0.5-4.9-0.7
								c-1.8-0.2-3.4-0.6-4.9-0.9c-1.5-0.4-2.7-0.9-3.8-1.4c-1-0.6-1.5-1.4-1.5-2.3c0-3,4.2-4.6,12.7-5.1v-1.4h6.4v1.4
								c4.6,0.2,8,0.6,10.1,1.4c2.1,0.8,3.1,2,3.1,3.6h-12v-0.3c0-0.5-0.3-0.9-0.9-1.2c-0.6-0.3-1.5-0.6-2.8-0.6
								c-1.4,0-2.4,0.2-3,0.5c-0.6,0.3-1,0.6-1,1c0,0.6,0.6,1,1.6,1.3s2.3,0.6,3.9,0.8c1.6,0.2,3.3,0.5,5,0.6c1.8,0.2,3.5,0.5,5,0.9
								c1.6,0.4,2.9,0.9,3.9,1.5c1,0.6,1.6,1.4,1.6,2.5c0,1.6-1.2,2.8-3.7,3.6c-2.5,0.8-6.1,1.3-10.9,1.4v2h-6.4v-2.2
								C242.7,106.6,239.3,106.2,237,105.5z"/>
						</g>
					</g>
				</g>
			</g>
			<g>
				<g>
					<path class="st1" d="M191.1,83v12c0,10.5,25.1,19,55.9,19c30.9,0,55.9-8.5,55.9-19V83H191.1z"/>
				</g>
				<g>
					<g>
						<ellipse class="st2" cx="247" cy="83" rx="55.9" ry="19"/>
					</g>
				</g>
				<g>
					<g>
						<ellipse class="st1" cx="247" cy="83" rx="45.5" ry="15.5"/>
					</g>
				</g>
				<g>
					<g>
						<g>
							<path class="st2" d="M233.2,89.9c-2.2-0.7-3.4-1.8-3.4-3.3v-0.6h12.5v0.5c0,0.7,0.4,1.2,1.2,1.4c0.8,0.2,1.8,0.4,3.1,0.4
								c1.4,0,2.4-0.2,3.1-0.5s1-0.6,1-1.1c0-0.6-0.5-1-1.5-1.3c-1-0.3-2.2-0.6-3.8-0.8s-3.1-0.5-4.9-0.7c-1.8-0.2-3.4-0.6-4.9-0.9
								c-1.5-0.4-2.7-0.9-3.8-1.4c-1-0.6-1.5-1.4-1.5-2.3c0-3,4.2-4.6,12.7-5.1v-1.4h6.4v1.4c4.6,0.2,8,0.6,10.1,1.4
								c2.1,0.8,3.1,2,3.1,3.6h-12.1v-0.3c0-0.5-0.3-0.9-0.9-1.2c-0.6-0.3-1.5-0.6-2.8-0.6c-1.4,0-2.4,0.2-3,0.5c-0.6,0.3-1,0.6-1,1
								c0,0.6,0.6,1,1.6,1.3s2.3,0.6,3.9,0.8c1.6,0.2,3.3,0.5,5,0.6c1.8,0.2,3.5,0.5,5,0.9c1.6,0.4,2.9,0.9,3.9,1.5s1.6,1.4,1.6,2.5
								c0,1.6-1.2,2.8-3.7,3.6c-2.5,0.8-6.1,1.3-10.9,1.4v2.2h-6.4v-2.2C238.8,91,235.4,90.5,233.2,89.9z"/>
						</g>
					</g>
				</g>
			</g>
		</g>
		<g>
			<g>
				<g>
					<path class="st1" d="M269.9,343.1v12c0,10.5,25.1,19,55.9,19c30.9,0,55.9-8.5,55.9-19v-12H269.9z"/>
				</g>
				<g>
					<g>
						<ellipse class="st2" cx="325.8" cy="343.1" rx="55.9" ry="19"/>
					</g>
				</g>
				<g>
					<g>
						<ellipse class="st1" cx="325.8" cy="343.1" rx="45.5" ry="15.5"/>
					</g>
				</g>
				<g>
					<g>
						<g>
							<path class="st2" d="M312,350c-2.2-0.7-3.4-1.8-3.4-3.3v-0.6h12.5v0.5c0,0.7,0.4,1.2,1.2,1.4c0.8,0.2,1.8,0.4,3.1,0.4
								c1.4,0,2.4-0.2,3.1-0.5c0.7-0.3,1-0.6,1-1.1c0-0.6-0.5-1-1.5-1.3c-1-0.3-2.2-0.6-3.8-0.8c-1.5-0.2-3.1-0.5-4.9-0.7
								c-1.8-0.2-3.4-0.6-4.9-0.9c-1.5-0.4-2.7-0.9-3.8-1.4c-1-0.6-1.5-1.4-1.5-2.3c0-3,4.2-4.6,12.7-5.1v-1.4h6.4v1.4
								c4.6,0.2,8,0.6,10.1,1.4s3.1,2,3.1,3.6h-12.1V339c0-0.5-0.3-0.9-0.9-1.2c-0.6-0.3-1.5-0.6-2.8-0.6c-1.4,0-2.4,0.2-3,0.5
								c-0.6,0.3-1,0.6-1,1c0,0.6,0.6,1,1.6,1.3c1,0.3,2.3,0.6,3.9,0.8s3.3,0.5,5,0.6c1.8,0.2,3.5,0.5,5,0.9
								c1.6,0.4,2.9,0.9,3.9,1.5c1,0.6,1.6,1.4,1.6,2.5c0,1.6-1.2,2.8-3.7,3.6c-2.5,0.8-6.1,1.3-10.9,1.4v2.2H322v-2.2
								C317.6,351.2,314.3,350.7,312,350z"/>
						</g>
					</g>
				</g>
			</g>
			<g>
				<g>
					<path class="st1" d="M275.7,327.5v12c0,10.5,25.1,19,55.9,19c30.9,0,55.9-8.5,55.9-19v-12H275.7z"/>
				</g>
				<g>
					<g>
						<path class="st2" d="M387.6,327.5c0,10.5-25.1,19-55.9,19c-30.9,0-55.9-8.5-55.9-19c0-10.5,25.1-19,55.9-19
							S387.6,317,387.6,327.5z"/>
					</g>
				</g>
				<g>
					<g>
						<path class="st1" d="M377.1,327.5c0,8.6-20.3,15.5-45.5,15.5c-25.2,0-45.5-6.9-45.5-15.5s20.3-15.5,45.5-15.5
							C356.8,312.1,377.1,319,377.1,327.5z"/>
					</g>
				</g>
				<g>
					<g>
						<g>
							<path class="st2" d="M317.9,334.4c-2.2-0.7-3.4-1.8-3.4-3.3v-0.6h12.5v0.5c0,0.7,0.4,1.2,1.2,1.4c0.8,0.2,1.8,0.4,3.1,0.4
								c1.4,0,2.4-0.2,3.1-0.5c0.7-0.3,1-0.6,1-1.1c0-0.6-0.5-1-1.5-1.3c-1-0.3-2.2-0.6-3.8-0.8c-1.5-0.2-3.1-0.5-4.9-0.7
								c-1.8-0.2-3.4-0.6-4.9-0.9c-1.5-0.4-2.7-0.9-3.8-1.4c-1-0.6-1.5-1.4-1.5-2.3c0-3,4.2-4.6,12.7-5.1v-1.4h6.4v1.4
								c4.6,0.2,8,0.6,10.1,1.4s3.1,2,3.1,3.6h-12.1v-0.3c0-0.5-0.3-0.9-0.9-1.2c-0.6-0.3-1.5-0.6-2.8-0.6c-1.4,0-2.4,0.2-3,0.5
								c-0.6,0.3-1,0.6-1,1c0,0.6,0.6,1,1.6,1.3c1,0.3,2.3,0.6,3.9,0.8s3.3,0.5,5,0.6c1.8,0.2,3.5,0.5,5,0.9
								c1.6,0.4,2.9,0.9,3.9,1.5c1,0.6,1.6,1.4,1.6,2.5c0,1.6-1.2,2.8-3.7,3.6c-2.5,0.8-6.1,1.3-10.9,1.4v2.2h-6.4v-2.2
								C323.5,335.5,320.1,335.1,317.9,334.4z"/>
						</g>
					</g>
				</g>
			</g>
			<g>
				<g>
					<path class="st1" d="M271.8,311.9v12c0,10.5,25.1,19,55.9,19c30.9,0,55.9-8.5,55.9-19v-12H271.8z"/>
				</g>
				<g>
					<g>
						<ellipse class="st2" cx="327.7" cy="311.9" rx="55.9" ry="19"/>
					</g>
				</g>
				<g>
					<g>
						<ellipse class="st1" cx="327.7" cy="311.9" rx="45.5" ry="15.5"/>
					</g>
				</g>
				<g>
					<g>
						<g>
							<path class="st2" d="M313.9,318.7c-2.2-0.7-3.4-1.8-3.4-3.3v-0.6H323v0.5c0,0.7,0.4,1.2,1.2,1.4s1.8,0.4,3.1,0.4
								c1.4,0,2.4-0.2,3.1-0.5s1-0.6,1-1.1c0-0.6-0.5-1-1.5-1.3c-1-0.3-2.2-0.6-3.8-0.8c-1.5-0.2-3.1-0.5-4.9-0.7
								c-1.8-0.2-3.4-0.6-4.9-0.9c-1.5-0.4-2.7-0.9-3.8-1.4c-1-0.6-1.5-1.4-1.5-2.3c0-3,4.2-4.6,12.7-5.1v-1.4h6.4v1.4
								c4.6,0.2,8,0.6,10.1,1.4s3.1,2,3.1,3.6h-12v-0.3c0-0.5-0.3-0.9-0.9-1.2c-0.6-0.3-1.5-0.6-2.8-0.6c-1.4,0-2.4,0.2-3,0.5
								c-0.6,0.3-1,0.6-1,1c0,0.6,0.6,1,1.6,1.3c1,0.3,2.3,0.6,3.9,0.8s3.3,0.5,5,0.6c1.8,0.2,3.5,0.5,5,0.9
								c1.6,0.4,2.9,0.9,3.9,1.5c1,0.6,1.6,1.4,1.6,2.5c0,1.6-1.2,2.8-3.7,3.6c-2.5,0.8-6.1,1.3-10.9,1.4v2.2H324v-2.2
								C319.6,319.8,316.3,319.4,313.9,318.7z"/>
						</g>
					</g>
				</g>
			</g>
			<g>
				<g>
					<path class="st1" d="M262.1,296.2v12c0,10.5,25.1,19,55.9,19c30.9,0,55.9-8.5,55.9-19v-12H262.1z"/>
				</g>
				<g>
					<g>
						<path class="st2" d="M374,296.2c0,10.5-25.1,19-55.9,19s-55.9-8.5-55.9-19s25.1-19,55.9-19S374,285.7,374,296.2z"/>
					</g>
				</g>
				<g>
					<g>
						<path class="st1" d="M363.6,296.2c0,8.6-20.3,15.5-45.5,15.5c-25.2,0-45.5-6.9-45.5-15.5c0-8.6,20.3-15.5,45.5-15.5
							C343.3,280.7,363.6,287.7,363.6,296.2z"/>
					</g>
				</g>
				<g>
					<g>
						<g>
							<path class="st2" d="M304.3,303.1c-2.2-0.7-3.4-1.8-3.4-3.3v-0.6h12.5v0.5c0,0.7,0.4,1.2,1.2,1.4s1.8,0.4,3.1,0.4
								c1.4,0,2.4-0.2,3.1-0.5s1-0.6,1-1.1c0-0.6-0.5-1-1.5-1.3c-1-0.3-2.2-0.6-3.8-0.8c-1.5-0.2-3.1-0.5-4.9-0.7
								c-1.8-0.2-3.4-0.6-4.9-0.9c-1.5-0.4-2.7-0.9-3.8-1.4c-1-0.6-1.5-1.4-1.5-2.3c0-3,4.2-4.6,12.7-5.1V286h6.4v1.4
								c4.6,0.2,8,0.6,10.1,1.4s3.1,2,3.1,3.6h-12V292c0-0.5-0.3-0.9-0.9-1.2c-0.6-0.3-1.5-0.6-2.8-0.6c-1.4,0-2.4,0.2-3,0.5
								c-0.6,0.3-1,0.6-1,1c0,0.6,0.6,1,1.6,1.3c1,0.3,2.3,0.6,3.9,0.8c1.6,0.2,3.3,0.5,5,0.6c1.8,0.2,3.5,0.5,5,0.9
								c1.6,0.4,2.9,0.9,3.9,1.5s1.6,1.4,1.6,2.5c0,1.6-1.2,2.8-3.7,3.6c-2.5,0.8-6.1,1.3-10.9,1.4v2.2h-6.4v-2.2
								C309.9,304.2,306.6,303.8,304.3,303.1z"/>
						</g>
					</g>
				</g>
			</g>
			<g>
				<g>
					<path class="st1" d="M268,280.6v12c0,10.5,25.1,19,55.9,19c30.9,0,55.9-8.5,55.9-19v-12H268z"/>
				</g>
				<g>
					<g>
						<ellipse class="st2" cx="323.9" cy="280.6" rx="55.9" ry="19"/>
					</g>
				</g>
				<g>
					<g>
						<ellipse class="st1" cx="323.9" cy="280.6" rx="45.5" ry="15.5"/>
					</g>
				</g>
				<g>
					<g>
						<g>
							<path class="st2" d="M310.1,287.5c-2.2-0.7-3.4-1.8-3.4-3.3v-0.6h12.5v0.5c0,0.7,0.4,1.2,1.2,1.4c0.8,0.2,1.8,0.4,3.1,0.4
								c1.4,0,2.4-0.2,3.1-0.5s1-0.6,1-1.1c0-0.6-0.5-1-1.5-1.3c-1-0.3-2.2-0.6-3.8-0.8c-1.5-0.2-3.1-0.5-4.9-0.7
								c-1.8-0.2-3.4-0.6-4.9-0.9c-1.5-0.4-2.7-0.9-3.8-1.4c-1-0.6-1.5-1.4-1.5-2.3c0-3,4.2-4.6,12.7-5.1v-1.4h6.4v1.4
								c4.6,0.2,8,0.6,10.1,1.4s3.1,2,3.1,3.6h-12.1v-0.3c0-0.5-0.3-0.9-0.9-1.2c-0.6-0.3-1.5-0.6-2.8-0.6c-1.4,0-2.4,0.2-3,0.5
								c-0.6,0.3-1,0.6-1,1c0,0.6,0.6,1,1.6,1.3c1,0.3,2.3,0.6,3.9,0.8s3.3,0.5,5,0.6c1.8,0.2,3.5,0.5,5,0.9
								c1.6,0.4,2.9,0.9,3.9,1.5c1,0.6,1.6,1.4,1.6,2.5c0,1.6-1.2,2.8-3.7,3.6c-2.5,0.8-6.1,1.3-10.9,1.4v2.2H320v-2.2
								C315.7,288.6,312.3,288.1,310.1,287.5z"/>
						</g>
					</g>
				</g>
			</g>
			<g>
				<g>
					<path class="st1" d="M275.7,265v12c0,10.5,25.1,19,55.9,19c30.9,0,55.9-8.5,55.9-19v-12H275.7z"/>
				</g>
				<g>
					<g>
						<path class="st2" d="M387.6,265c0,10.5-25.1,19-55.9,19c-30.9,0-55.9-8.5-55.9-19s25.1-19,55.9-19
							C362.5,246,387.6,254.5,387.6,265z"/>
					</g>
				</g>
				<g>
					<g>
						<path class="st1" d="M377.1,265c0,8.6-20.3,15.5-45.5,15.5c-25.2,0-45.5-6.9-45.5-15.5c0-8.6,20.3-15.5,45.5-15.5
							C356.8,249.5,377.1,256.4,377.1,265z"/>
					</g>
				</g>
				<g>
					<g>
						<g>
							<path class="st2" d="M317.9,271.9c-2.2-0.7-3.4-1.8-3.4-3.3v-0.6h12.5v0.5c0,0.7,0.4,1.2,1.2,1.4c0.8,0.2,1.8,0.4,3.1,0.4
								c1.4,0,2.4-0.2,3.1-0.5s1-0.6,1-1.1c0-0.6-0.5-1-1.5-1.3c-1-0.3-2.2-0.6-3.8-0.8c-1.5-0.2-3.1-0.5-4.9-0.7
								c-1.8-0.2-3.4-0.6-4.9-0.9c-1.5-0.4-2.7-0.9-3.8-1.4c-1-0.6-1.5-1.4-1.5-2.3c0-3,4.2-4.6,12.7-5.1v-1.4h6.4v1.4
								c4.6,0.2,8,0.6,10.1,1.4s3.1,2,3.1,3.6h-12.1v-0.3c0-0.5-0.3-0.9-0.9-1.2c-0.6-0.3-1.5-0.6-2.8-0.6c-1.4,0-2.4,0.2-3,0.5
								c-0.6,0.3-1,0.6-1,1c0,0.6,0.6,1,1.6,1.3c1,0.3,2.3,0.6,3.9,0.8s3.3,0.5,5,0.6c1.8,0.2,3.5,0.5,5,0.9
								c1.6,0.4,2.9,0.9,3.9,1.5c1,0.6,1.6,1.4,1.6,2.5c0,1.6-1.2,2.8-3.7,3.6c-2.5,0.8-6.1,1.3-10.9,1.4v2.2h-6.4v-2.3
								C323.5,272.9,320.1,272.5,317.9,271.9z"/>
						</g>
					</g>
				</g>
			</g>
			<g>
				<g>
					<path class="st1" d="M271.8,249.3v12c0,10.5,25.1,19,55.9,19c30.9,0,55.9-8.5,55.9-19v-12H271.8L271.8,249.3z"/>
				</g>
				<g>
					<g>
						<ellipse class="st2" cx="327.7" cy="249.3" rx="55.9" ry="19"/>
					</g>
				</g>
				<g>
					<g>
						<ellipse class="st1" cx="327.7" cy="249.3" rx="45.5" ry="15.5"/>
					</g>
				</g>
				<g>
					<g>
						<g>
							<path class="st2" d="M313.9,256.2c-2.2-0.7-3.4-1.8-3.4-3.3v-0.6H323v0.5c0,0.7,0.4,1.2,1.2,1.4s1.8,0.4,3.1,0.4
								c1.4,0,2.4-0.2,3.1-0.5c0.7-0.3,1-0.6,1-1.1c0-0.6-0.5-1-1.5-1.3c-1-0.3-2.2-0.6-3.8-0.8c-1.5-0.2-3.1-0.5-4.9-0.7
								c-1.8-0.2-3.4-0.6-4.9-0.9c-1.5-0.4-2.7-0.9-3.8-1.4c-1-0.6-1.5-1.4-1.5-2.3c0-3,4.2-4.6,12.7-5.1V239h6.4v1.4
								c4.6,0.2,8,0.6,10.1,1.4c2.1,0.8,3.1,2,3.1,3.6h-12v-0.3c0-0.5-0.3-0.9-0.9-1.2c-0.6-0.3-1.5-0.6-2.8-0.6
								c-1.4,0-2.4,0.2-3,0.5c-0.6,0.3-1,0.6-1,1c0,0.6,0.6,1,1.6,1.3c1,0.3,2.3,0.6,3.9,0.8s3.3,0.5,5,0.6c1.8,0.2,3.5,0.5,5,0.9
								c1.6,0.4,2.9,0.9,3.9,1.5c1,0.6,1.6,1.4,1.6,2.5c0,1.6-1.2,2.8-3.7,3.6c-2.5,0.8-6.1,1.3-10.9,1.4v2.2H324v-2.2
								C319.6,257.3,316.3,256.9,313.9,256.2z"/>
						</g>
					</g>
				</g>
			</g>
			<g>
				<g>
					<path class="st1" d="M277.6,233.7v12c0,10.5,25.1,19,55.9,19c30.9,0,55.9-8.5,55.9-19v-12H277.6z"/>
				</g>
				<g>
					<g>
						<ellipse class="st2" cx="333.6" cy="233.7" rx="55.9" ry="19"/>
					</g>
				</g>
				<g>
					<g>
						<path class="st1" d="M379.1,233.7c0,8.6-20.3,15.5-45.5,15.5c-25.2,0-45.5-6.9-45.5-15.5s20.3-15.5,45.5-15.5
							C358.7,218.2,379.1,225.2,379.1,233.7z"/>
					</g>
				</g>
				<g>
					<g>
						<g>
							<path class="st2" d="M319.8,240.5c-2.2-0.7-3.4-1.8-3.4-3.3v-0.6h12.5v0.5c0,0.7,0.4,1.2,1.2,1.4s1.8,0.4,3.1,0.4
								c1.4,0,2.4-0.2,3.1-0.5c0.7-0.3,1-0.6,1-1.1c0-0.6-0.5-1-1.5-1.3c-1-0.3-2.2-0.6-3.8-0.8c-1.5-0.2-3.1-0.5-4.9-0.7
								s-3.4-0.6-4.9-0.9c-1.5-0.4-2.7-0.9-3.8-1.4c-1-0.6-1.5-1.4-1.5-2.3c0-3,4.2-4.6,12.7-5.1v-1.4h6.4v1.4
								c4.6,0.2,8,0.6,10.1,1.4s3.1,2,3.1,3.6h-12.1v-0.3c0-0.5-0.3-0.9-0.9-1.2c-0.6-0.3-1.5-0.6-2.8-0.6c-1.4,0-2.4,0.2-3,0.5
								c-0.6,0.3-1,0.6-1,1c0,0.6,0.6,1,1.6,1.3c1,0.3,2.3,0.6,3.9,0.8s3.3,0.5,5,0.6c1.8,0.2,3.5,0.5,5,0.9
								c1.6,0.4,2.9,0.9,3.9,1.5c1,0.6,1.6,1.4,1.6,2.5c0,1.6-1.2,2.8-3.7,3.6c-2.5,0.8-6.1,1.3-10.9,1.4v2.2h-6.4v-2.2
								C325.4,241.7,322,241.3,319.8,240.5z"/>
						</g>
					</g>
				</g>
			</g>
			<g>
				<g>
					<path class="st1" d="M269.9,218v12c0,10.5,25.1,19,55.9,19c30.9,0,55.9-8.5,55.9-19v-12H269.9z"/>
				</g>
				<g>
					<g>
						<ellipse class="st2" cx="325.8" cy="218" rx="55.9" ry="19"/>
					</g>
				</g>
				<g>
					<g>
						<ellipse class="st1" cx="325.8" cy="218" rx="45.5" ry="15.5"/>
					</g>
				</g>
				<g>
					<g>
						<g>
							<path class="st2" d="M312,224.9c-2.2-0.7-3.4-1.8-3.4-3.3V221h12.5v0.5c0,0.7,0.4,1.2,1.2,1.4c0.8,0.2,1.8,0.4,3.1,0.4
								c1.4,0,2.4-0.2,3.1-0.5c0.7-0.3,1-0.6,1-1.1c0-0.6-0.5-1-1.5-1.3c-1-0.3-2.2-0.6-3.8-0.8c-1.5-0.2-3.1-0.5-4.9-0.7
								c-1.8-0.2-3.4-0.6-4.9-0.9c-1.5-0.4-2.7-0.9-3.8-1.4c-1-0.6-1.5-1.4-1.5-2.3c0-3,4.2-4.6,12.7-5.1v-1.4h6.4v1.4
								c4.6,0.2,8,0.6,10.1,1.4c2.1,0.8,3.1,2,3.1,3.6h-12.1v-0.3c0-0.5-0.3-0.9-0.9-1.2c-0.6-0.3-1.5-0.6-2.8-0.6
								c-1.4,0-2.4,0.2-3,0.5c-0.6,0.3-1,0.6-1,1c0,0.6,0.6,1,1.6,1.3c1,0.3,2.3,0.6,3.9,0.8s3.3,0.5,5,0.6c1.8,0.2,3.5,0.5,5,0.9
								c1.6,0.4,2.9,0.9,3.9,1.5c1,0.6,1.6,1.4,1.6,2.5c0,1.6-1.2,2.8-3.7,3.6c-2.5,0.8-6.1,1.3-10.9,1.4v2.2H322v-2.2
								C317.6,226,314.3,225.6,312,224.9z"/>
						</g>
					</g>
				</g>
			</g>
			<g>
				<g>
					<path class="st1" d="M264.1,202.4v12c0,10.5,25.1,19,55.9,19c30.9,0,55.9-8.5,55.9-19v-12H264.1z"/>
				</g>
				<g>
					<g>
						<path class="st2" d="M375.9,202.4c0,10.5-25.1,19-55.9,19c-30.9,0-55.9-8.5-55.9-19c0-10.5,25.1-19,55.9-19
							S375.9,191.9,375.9,202.4z"/>
					</g>
				</g>
				<g>
					<g>
						<path class="st1" d="M365.5,202.4c0,8.6-20.3,15.5-45.5,15.5c-25.2,0-45.5-6.9-45.5-15.5S294.9,187,320,187
							S365.5,193.8,365.5,202.4z"/>
					</g>
				</g>
				<g>
					<g>
						<g>
							<path class="st2" d="M306.3,209.3c-2.2-0.7-3.4-1.8-3.4-3.3v-0.6h12.5v0.5c0,0.7,0.4,1.2,1.2,1.4s1.8,0.4,3.1,0.4
								c1.4,0,2.4-0.2,3.1-0.5c0.7-0.3,1-0.6,1-1.1c0-0.6-0.5-1-1.5-1.3c-1-0.3-2.2-0.6-3.8-0.8c-1.5-0.2-3.1-0.5-4.9-0.7
								c-1.8-0.2-3.4-0.6-4.9-0.9c-1.5-0.4-2.7-0.9-3.8-1.4c-1-0.6-1.5-1.4-1.5-2.3c0-3,4.2-4.6,12.7-5.1v-1.4h6.4v1.4
								c4.6,0.2,8,0.6,10.1,1.4s3.1,2,3.1,3.6h-12.1v-0.3c0-0.5-0.3-0.9-0.9-1.2c-0.6-0.3-1.5-0.6-2.8-0.6c-1.4,0-2.4,0.2-3,0.5
								c-0.6,0.3-1,0.6-1,1c0,0.6,0.6,1,1.6,1.3c1,0.3,2.3,0.6,3.9,0.8s3.3,0.5,5,0.6c1.8,0.2,3.5,0.5,5,0.9
								c1.6,0.4,2.9,0.9,3.9,1.5c1,0.6,1.6,1.4,1.6,2.5c0,1.6-1.2,2.8-3.7,3.6c-2.5,0.8-6.1,1.3-10.9,1.4v2.2h-6.4v-2.2
								C311.9,210.3,308.5,209.9,306.3,209.3z"/>
						</g>
					</g>
				</g>
			</g>
			<g>
				<g>
					<path class="st1" d="M271.8,186.8v12c0,10.5,25.1,19,55.9,19c30.9,0,55.9-8.5,55.9-19v-12H271.8z"/>
				</g>
				<g>
					<g>
						<ellipse class="st2" cx="327.7" cy="186.8" rx="55.9" ry="19"/>
					</g>
				</g>
				<g>
					<g>
						<ellipse class="st1" cx="327.7" cy="186.8" rx="45.5" ry="15.5"/>
					</g>
				</g>
				<g>
					<g>
						<g>
							<path class="st2" d="M313.9,193.6c-2.2-0.7-3.4-1.8-3.4-3.3v-0.6H323v0.5c0,0.7,0.4,1.2,1.2,1.4s1.8,0.4,3.1,0.4
								c1.4,0,2.4-0.2,3.1-0.5c0.7-0.3,1-0.6,1-1.1c0-0.6-0.5-1-1.5-1.3c-1-0.3-2.2-0.6-3.8-0.8c-1.5-0.2-3.1-0.5-4.9-0.7
								c-1.8-0.2-3.4-0.6-4.9-0.9c-1.5-0.4-2.7-0.9-3.8-1.4c-1-0.6-1.5-1.4-1.5-2.3c0-3,4.2-4.6,12.7-5.1v-1.4h6.4v1.4
								c4.6,0.2,8,0.6,10.1,1.4c2.1,0.8,3.1,2,3.1,3.6h-12v-0.3c0-0.5-0.3-0.9-0.9-1.2c-0.6-0.3-1.5-0.6-2.8-0.6
								c-1.4,0-2.4,0.2-3,0.5c-0.6,0.3-1,0.6-1,1c0,0.6,0.6,1,1.6,1.3c1,0.3,2.3,0.6,3.9,0.8s3.3,0.5,5,0.6c1.8,0.2,3.5,0.5,5,0.9
								c1.6,0.4,2.9,0.9,3.9,1.5c1,0.6,1.6,1.4,1.6,2.5c0,1.6-1.2,2.8-3.7,3.6c-2.5,0.8-6.1,1.3-10.9,1.4v2.2H324V195
								C319.6,194.7,316.3,194.3,313.9,193.6z"/>
						</g>
					</g>
				</g>
			</g>
			<g>
				<g>
					<path class="st1" d="M277.6,171.2v12c0,10.5,25.1,19,55.9,19c30.9,0,55.9-8.5,55.9-19v-12H277.6z"/>
				</g>
				<g>
					<g>
						<path class="st2" d="M389.5,171.2c0,10.5-25.1,19-55.9,19c-30.9,0-55.9-8.5-55.9-19c0-10.5,25.1-19,55.9-19
							C364.4,152.1,389.5,160.7,389.5,171.2z"/>
					</g>
				</g>
				<g>
					<g>
						<path class="st1" d="M379.1,171.2c0,8.6-20.3,15.5-45.5,15.5c-25.2,0-45.5-6.9-45.5-15.5s20.3-15.5,45.5-15.5
							C358.7,155.6,379.1,162.6,379.1,171.2z"/>
					</g>
				</g>
				<g>
					<g>
						<g>
							<path class="st2" d="M319.8,178c-2.2-0.7-3.4-1.8-3.4-3.3v-0.6h12.5v0.5c0,0.7,0.4,1.2,1.2,1.4c0.8,0.2,1.8,0.4,3.1,0.4
								c1.4,0,2.4-0.2,3.1-0.5s1-0.6,1-1.1c0-0.6-0.5-1-1.5-1.3c-1-0.3-2.2-0.6-3.8-0.8c-1.5-0.2-3.1-0.5-4.9-0.7
								c-1.8-0.2-3.4-0.6-4.9-0.9c-1.5-0.4-2.7-0.9-3.8-1.4c-1-0.6-1.5-1.4-1.5-2.3c0-3,4.2-4.6,12.7-5.1v-1.3h6.4v1.4
								c4.6,0.2,8,0.6,10.1,1.4s3.1,2,3.1,3.6h-12.1V167c0-0.5-0.3-0.9-0.9-1.2c-0.6-0.3-1.5-0.6-2.8-0.6c-1.4,0-2.4,0.2-3,0.5
								c-0.6,0.3-1,0.6-1,1c0,0.6,0.6,1,1.6,1.3c1,0.3,2.3,0.6,3.9,0.8c1.6,0.2,3.3,0.5,5,0.6c1.8,0.2,3.5,0.5,5,0.9
								c1.6,0.4,2.9,0.9,3.9,1.5c1,0.6,1.6,1.4,1.6,2.5c0,1.6-1.2,2.8-3.7,3.6c-2.5,0.8-6.1,1.3-10.9,1.4v2.2h-6.4v-2.2
								C325.4,179.1,322,178.7,319.8,178z"/>
						</g>
					</g>
				</g>
			</g>
		</g>
		<g>
			<g>
				<g>
					<path class="st1" d="M109.8,335.9v12c0,10.5,25.1,19,55.9,19c30.9,0,55.9-8.5,55.9-19v-12H109.8z"/>
				</g>
				<g>
					<g>
						<path class="st2" d="M221.7,335.9c0,10.5-25.1,19-55.9,19c-30.9,0-55.9-8.5-55.9-19s25.1-19,55.9-19S221.7,325.4,221.7,335.9z
							"/>
					</g>
				</g>
				<g>
					<g>
						<path class="st1" d="M211.3,335.9c0,8.6-20.3,15.5-45.5,15.5s-45.5-6.9-45.5-15.5c0-8.6,20.3-15.5,45.5-15.5
							S211.3,327.4,211.3,335.9z"/>
					</g>
				</g>
				<g>
					<g>
						<g>
							<path class="st2" d="M151.9,342.8c-2.2-0.7-3.4-1.8-3.4-3.3v-0.6H161v0.5c0,0.7,0.4,1.2,1.2,1.4c0.8,0.2,1.8,0.4,3.1,0.4
								c1.4,0,2.4-0.2,3.1-0.5c0.7-0.3,1-0.6,1-1.1c0-0.6-0.5-1-1.5-1.3c-1-0.3-2.2-0.6-3.8-0.8c-1.5-0.2-3.1-0.5-4.9-0.7
								c-1.8-0.2-3.4-0.6-4.9-0.9c-1.5-0.4-2.7-0.9-3.8-1.4c-1-0.6-1.5-1.4-1.5-2.3c0-3,4.2-4.6,12.7-5.1v-1.4h6.4v1.4
								c4.6,0.2,8,0.6,10.1,1.4c2.1,0.8,3.1,2,3.1,3.6h-12v-0.3c0-0.5-0.3-0.9-0.9-1.2c-0.6-0.3-1.5-0.6-2.8-0.6
								c-1.4,0-2.4,0.2-3,0.5c-0.6,0.3-1,0.6-1,1c0,0.6,0.6,1,1.6,1.3c1,0.3,2.3,0.6,3.9,0.8c1.6,0.2,3.3,0.5,5,0.6
								c1.8,0.2,3.5,0.5,5,0.9c1.6,0.4,2.9,0.9,3.9,1.5s1.6,1.4,1.6,2.5c0,1.6-1.2,2.8-3.7,3.6c-2.5,0.8-6.1,1.3-10.9,1.4v2.2h-6.4
								v-2.2C157.5,343.9,154.2,343.5,151.9,342.8z"/>
						</g>
					</g>
				</g>
			</g>
			<g>
				<g>
					<path class="st1" d="M115.5,320.3v12c0,10.5,25.1,19,55.9,19c30.9,0,55.9-8.5,55.9-19v-12H115.5z"/>
				</g>
				<g>
					<g>
						<ellipse class="st2" cx="171.5" cy="320.3" rx="55.9" ry="19"/>
					</g>
				</g>
				<g>
					<g>
						<ellipse class="st1" cx="171.5" cy="320.3" rx="45.5" ry="15.5"/>
					</g>
				</g>
				<g>
					<g>
						<g>
							<path class="st2" d="M157.8,327.1c-2.2-0.7-3.4-1.8-3.4-3.3v-0.6h12.5v0.5c0,0.7,0.4,1.2,1.2,1.4c0.8,0.2,1.8,0.4,3.1,0.4
								c1.4,0,2.4-0.2,3.1-0.5c0.7-0.3,1-0.6,1-1.1c0-0.6-0.5-1-1.5-1.3c-1-0.3-2.2-0.6-3.8-0.8c-1.5-0.2-3.1-0.5-4.9-0.7
								c-1.8-0.2-3.4-0.6-4.9-0.9c-1.5-0.4-2.7-0.9-3.8-1.4c-1-0.6-1.5-1.4-1.5-2.3c0-3,4.2-4.6,12.7-5.1V310h6.4v1.4
								c4.6,0.2,8,0.6,10.1,1.4c2.1,0.8,3.1,2,3.1,3.6h-12v-0.3c0-0.5-0.3-0.9-0.9-1.2c-0.6-0.3-1.5-0.6-2.8-0.6
								c-1.4,0-2.4,0.2-3,0.5c-0.6,0.3-1,0.6-1,1c0,0.6,0.6,1,1.6,1.3c1,0.3,2.3,0.6,3.9,0.8c1.6,0.2,3.3,0.5,5,0.6
								c1.8,0.2,3.5,0.5,5,0.9c1.6,0.4,2.9,0.9,3.9,1.5s1.6,1.4,1.6,2.5c0,1.6-1.2,2.8-3.7,3.6c-2.5,0.8-6.1,1.3-10.9,1.4v2.2h-6.4
								v-2.2C163.4,328.2,160,327.8,157.8,327.1z"/>
						</g>
					</g>
				</g>
			</g>
			<g>
				<g>
					<path class="st1" d="M111.7,304.7v12c0,10.5,25.1,19,55.9,19c30.9,0,55.9-8.5,55.9-19v-12H111.7z"/>
				</g>
				<g>
					<g>
						<path class="st2" d="M223.6,304.7c0,10.5-25.1,19-55.9,19c-30.9,0-55.9-8.5-55.9-19s25.1-19,55.9-19
							C198.5,285.6,223.6,294.2,223.6,304.7z"/>
					</g>
				</g>
				<g>
					<g>
						<path class="st1" d="M213.2,304.7c0,8.6-20.3,15.5-45.5,15.5s-45.5-6.9-45.5-15.5s20.3-15.5,45.5-15.5
							S213.2,296.1,213.2,304.7z"/>
					</g>
				</g>
				<g>
					<g>
						<g>
							<path class="st2" d="M153.8,311.5c-2.2-0.7-3.4-1.8-3.4-3.3v-0.6h12.5v0.5c0,0.7,0.4,1.2,1.2,1.4c0.8,0.2,1.8,0.4,3.1,0.4
								c1.4,0,2.4-0.2,3.1-0.5c0.7-0.3,1-0.6,1-1.1c0-0.6-0.5-1-1.5-1.3c-1-0.3-2.2-0.6-3.8-0.8c-1.5-0.2-3.1-0.5-4.9-0.7
								c-1.8-0.2-3.4-0.6-4.9-0.9c-1.5-0.4-2.7-0.9-3.8-1.4c-1-0.6-1.5-1.4-1.5-2.3c0-3,4.2-4.6,12.7-5.1v-1.4h6.4v1.4
								c4.6,0.2,8,0.6,10.1,1.4c2.1,0.8,3.1,2,3.1,3.6h-12v-0.3c0-0.5-0.3-0.9-0.9-1.2c-0.6-0.3-1.5-0.6-2.8-0.6
								c-1.4,0-2.4,0.2-3,0.5c-0.6,0.3-1,0.6-1,1c0,0.6,0.6,1,1.6,1.3c1,0.3,2.3,0.6,3.9,0.8c1.6,0.2,3.3,0.5,5,0.6
								c1.8,0.2,3.5,0.5,5,0.9c1.6,0.4,2.9,0.9,3.9,1.5s1.6,1.4,1.6,2.5c0,1.6-1.2,2.8-3.7,3.6c-2.5,0.8-6.1,1.3-10.9,1.4v2.2h-6.4
								v-2.2C159.4,312.6,156.1,312.2,153.8,311.5z"/>
						</g>
					</g>
				</g>
			</g>
			<g>
				<g>
					<path class="st1" d="M102.1,289v12c0,10.5,25.1,19,55.9,19s55.9-8.5,55.9-19v-12H102.1z"/>
				</g>
				<g>
					<g>
						<ellipse class="st2" cx="158" cy="289" rx="55.9" ry="19"/>
					</g>
				</g>
				<g>
					<g>
						<ellipse class="st1" cx="158" cy="289" rx="45.5" ry="15.5"/>
					</g>
				</g>
				<g>
					<g>
						<g>
							<path class="st2" d="M144.2,295.9c-2.2-0.7-3.4-1.8-3.4-3.3V292h12.5v0.5c0,0.7,0.4,1.2,1.2,1.4c0.8,0.2,1.8,0.4,3.1,0.4
								c1.4,0,2.4-0.2,3.1-0.5c0.7-0.3,1-0.6,1-1.1c0-0.6-0.5-1-1.5-1.3c-1-0.3-2.2-0.6-3.8-0.8c-1.5-0.2-3.1-0.5-4.9-0.7
								c-1.8-0.2-3.4-0.6-4.9-0.9c-1.5-0.4-2.7-0.9-3.8-1.4c-1-0.6-1.5-1.4-1.5-2.3c0-3,4.2-4.6,12.7-5.1v-1.4h6.4v1.4
								c4.6,0.2,8,0.6,10.1,1.4c2.1,0.8,3.1,2,3.1,3.6h-12v-0.3c0-0.5-0.3-0.9-0.9-1.2c-0.6-0.3-1.5-0.6-2.8-0.6
								c-1.4,0-2.4,0.2-3,0.5c-0.6,0.3-1,0.6-1,1c0,0.6,0.6,1,1.6,1.3c1,0.3,2.3,0.6,3.9,0.8c1.6,0.2,3.3,0.5,5,0.6
								c1.8,0.2,3.5,0.5,5,0.9c1.6,0.4,2.9,0.9,3.9,1.5s1.6,1.4,1.6,2.5c0,1.6-1.2,2.8-3.7,3.6c-2.5,0.8-6.1,1.3-10.9,1.4v2.2h-6.4
								v-2.2C149.8,297,146.5,296.5,144.2,295.9z"/>
						</g>
					</g>
				</g>
			</g>
			<g>
				<g>
					<path class="st1" d="M107.8,273.4v12c0,10.5,25.1,19,55.9,19c30.9,0,55.9-8.5,55.9-19v-12H107.8z"/>
				</g>
				<g>
					<g>
						<path class="st2" d="M219.7,273.4c0,10.5-25.1,19-55.9,19s-56-8.5-56-19s25.1-19,55.9-19S219.7,262.9,219.7,273.4z"/>
					</g>
				</g>
				<g>
					<g>
						<path class="st1" d="M209.3,273.4c0,8.6-20.3,15.5-45.5,15.5s-45.5-6.9-45.5-15.5s20.3-15.5,45.5-15.5
							C188.9,257.9,209.3,264.8,209.3,273.4z"/>
					</g>
				</g>
				<g>
					<g>
						<g>
							<path class="st2" d="M150,280.3c-2.2-0.7-3.4-1.8-3.4-3.3v-0.6H159v0.5c0,0.7,0.4,1.2,1.2,1.4c0.8,0.2,1.8,0.4,3.1,0.4
								c1.4,0,2.4-0.2,3.1-0.5c0.7-0.3,1-0.6,1-1.1c0-0.6-0.5-1-1.5-1.3c-1-0.3-2.2-0.6-3.8-0.8c-1.5-0.2-3.1-0.5-4.9-0.7
								c-1.8-0.2-3.4-0.6-4.9-0.9c-1.5-0.4-2.7-0.9-3.8-1.4c-1-0.6-1.5-1.4-1.5-2.3c0-3,4.2-4.6,12.7-5.1v-1.4h6.4v1.4
								c4.6,0.2,8,0.6,10.1,1.4c2.1,0.8,3.1,2,3.1,3.6h-12v-0.3c0-0.5-0.3-0.9-0.9-1.2c-0.6-0.3-1.5-0.6-2.8-0.6
								c-1.4,0-2.4,0.2-3,0.5c-0.6,0.3-1,0.6-1,1c0,0.6,0.6,1,1.6,1.3s2.3,0.6,3.9,0.8c1.6,0.2,3.3,0.5,5,0.6c1.8,0.2,3.5,0.5,5,0.9
								c1.6,0.4,2.9,0.9,3.9,1.5c1,0.6,1.6,1.4,1.6,2.5c0,1.6-1.2,2.8-3.7,3.6c-2.5,0.8-6.1,1.3-10.9,1.4v2.2H160v-2.2
								C155.6,281.3,152.3,280.9,150,280.3z"/>
						</g>
					</g>
				</g>
			</g>
			<g>
				<g>
					<path class="st1" d="M115.5,257.8v12c0,10.5,25.1,19,55.9,19c30.9,0,55.9-8.5,55.9-19v-12H115.5z"/>
				</g>
				<g>
					<g>
						<ellipse class="st2" cx="171.5" cy="257.8" rx="55.9" ry="19"/>
					</g>
				</g>
				<g>
					<g>
						<ellipse class="st1" cx="171.5" cy="257.8" rx="45.5" ry="15.5"/>
					</g>
				</g>
				<g>
					<g>
						<g>
							<path class="st2" d="M157.8,264.6c-2.2-0.7-3.4-1.8-3.4-3.3v-0.6h12.5v0.5c0,0.7,0.4,1.2,1.2,1.4c0.8,0.2,1.8,0.4,3.1,0.4
								c1.4,0,2.4-0.2,3.1-0.5c0.7-0.3,1-0.6,1-1.1c0-0.6-0.5-1-1.5-1.3c-1-0.3-2.2-0.6-3.8-0.8s-3.1-0.5-4.9-0.7s-3.4-0.6-4.9-0.9
								c-1.5-0.4-2.7-0.9-3.8-1.4c-1-0.6-1.5-1.4-1.5-2.3c0-3,4.2-4.6,12.7-5.1v-1.4h6.4v1.4c4.6,0.2,8,0.6,10.1,1.4
								c2.1,0.8,3.1,2,3.1,3.6h-12v-0.3c0-0.5-0.3-0.9-0.9-1.2c-0.6-0.3-1.5-0.6-2.8-0.6c-1.4,0-2.4,0.2-3,0.5c-0.6,0.3-1,0.6-1,1
								c0,0.6,0.6,1,1.6,1.3c1,0.3,2.3,0.6,3.9,0.8c1.6,0.2,3.3,0.5,5,0.6c1.8,0.2,3.5,0.5,5,0.9c1.6,0.4,2.9,0.9,3.9,1.5
								c1,0.6,1.6,1.4,1.6,2.5c0,1.6-1.2,2.8-3.7,3.6c-2.5,0.8-6.1,1.3-10.9,1.4v2.2h-6.4v-2.2C163.4,265.7,160,265.3,157.8,264.6z"
								/>
						</g>
					</g>
				</g>
			</g>
			<g>
				<g>
					<path class="st1" d="M111.7,242.1v12c0,10.5,25.1,19,55.9,19c30.9,0,55.9-8.5,55.9-19v-12L111.7,242.1L111.7,242.1z"/>
				</g>
				<g>
					<g>
						<ellipse class="st2" cx="167.6" cy="242.1" rx="55.9" ry="19"/>
					</g>
				</g>
				<g>
					<g>
						<ellipse class="st1" cx="167.6" cy="242.1" rx="45.5" ry="15.5"/>
					</g>
				</g>
				<g>
					<g>
						<g>
							<path class="st2" d="M153.8,248.9c-2.2-0.7-3.4-1.8-3.4-3.3V245h12.5v0.5c0,0.7,0.4,1.2,1.2,1.4c0.8,0.2,1.8,0.4,3.1,0.4
								c1.4,0,2.4-0.2,3.1-0.5c0.7-0.3,1-0.6,1-1.1c0-0.6-0.5-1-1.5-1.3c-1-0.3-2.2-0.6-3.8-0.8c-1.5-0.2-3.1-0.5-4.9-0.7
								c-1.8-0.2-3.4-0.6-4.9-0.9c-1.5-0.4-2.7-0.9-3.8-1.4c-1-0.6-1.5-1.4-1.5-2.3c0-3,4.2-4.6,12.7-5.1v-1.4h6.4v1.4
								c4.6,0.2,8,0.6,10.1,1.4c2.1,0.8,3.1,2,3.1,3.6h-12v-0.3c0-0.5-0.3-0.9-0.9-1.2c-0.6-0.3-1.5-0.6-2.8-0.6
								c-1.4,0-2.4,0.2-3,0.5c-0.6,0.3-1,0.6-1,1c0,0.6,0.6,1,1.6,1.3s2.3,0.6,3.9,0.8c1.6,0.2,3.3,0.5,5,0.6c1.8,0.2,3.5,0.5,5,0.9
								c1.6,0.4,2.9,0.9,3.9,1.5s1.6,1.4,1.6,2.5c0,1.6-1.2,2.8-3.7,3.6c-2.5,0.8-6.1,1.3-10.9,1.4v2.2h-6.4v-2.2
								C159.4,250.1,156.1,249.7,153.8,248.9z"/>
						</g>
					</g>
				</g>
			</g>
			<g>
				<g>
					<path class="st1" d="M117.5,226.4v12c0,10.5,25.1,19,55.9,19s55.9-8.5,55.9-19v-12H117.5z"/>
				</g>
				<g>
					<g>
						<ellipse class="st2" cx="173.5" cy="226.4" rx="55.9" ry="19"/>
					</g>
				</g>
				<g>
					<g>
						<ellipse class="st1" cx="173.5" cy="226.4" rx="45.5" ry="15.5"/>
					</g>
				</g>
				<g>
					<g>
						<g>
							<path class="st2" d="M159.7,233.3c-2.2-0.7-3.4-1.8-3.4-3.3v-0.6h12.5v0.5c0,0.7,0.4,1.2,1.2,1.4c0.8,0.2,1.8,0.4,3.1,0.4
								c1.4,0,2.4-0.2,3.1-0.5c0.7-0.3,1-0.6,1-1.1c0-0.6-0.5-1-1.5-1.3c-1-0.3-2.2-0.6-3.8-0.8s-3.1-0.5-4.9-0.7
								c-1.8-0.2-3.4-0.6-4.9-0.9c-1.5-0.4-2.7-0.9-3.8-1.4c-1-0.6-1.5-1.4-1.5-2.3c0-3,4.2-4.6,12.7-5.1v-1.4h6.4v1.4
								c4.6,0.2,8,0.6,10.1,1.4c2.1,0.8,3.1,2,3.1,3.6h-12v-0.3c0-0.5-0.3-0.9-0.9-1.2c-0.6-0.3-1.5-0.6-2.8-0.6
								c-1.4,0-2.4,0.2-3,0.5s-1,0.6-1,1c0,0.6,0.6,1,1.6,1.3c1,0.3,2.3,0.6,3.9,0.8c1.6,0.2,3.3,0.5,5,0.6c1.8,0.2,3.5,0.5,5,0.9
								c1.6,0.4,2.9,0.9,3.9,1.5s1.6,1.4,1.6,2.5c0,1.6-1.2,2.8-3.7,3.6c-2.5,0.8-6.1,1.3-10.9,1.4v2.2h-6.4v-2.2
								C165.3,234.5,161.9,234.1,159.7,233.3z"/>
						</g>
					</g>
				</g>
			</g>
			<g>
				<g>
					<path class="st1" d="M103.4,210.8v12c0,10.5,25.1,19,55.9,19c30.9,0,55.9-8.5,55.9-19v-12H103.4z"/>
				</g>
				<g>
					<g>
						<ellipse class="st2" cx="159.3" cy="210.8" rx="55.9" ry="19"/>
					</g>
				</g>
				<g>
					<g>
						<ellipse class="st1" cx="159.3" cy="210.8" rx="45.5" ry="15.5"/>
					</g>
				</g>
				<g>
					<g>
						<g>
							<path class="st2" d="M145.5,217.7c-2.2-0.7-3.4-1.8-3.4-3.3v-0.6h12.5v0.5c0,0.7,0.4,1.2,1.2,1.4c0.8,0.2,1.8,0.4,3.1,0.4
								c1.4,0,2.4-0.2,3.1-0.5c0.7-0.3,1-0.6,1-1.1c0-0.6-0.5-1-1.5-1.3c-1-0.3-2.2-0.6-3.8-0.8c-1.5-0.2-3.1-0.5-4.9-0.7
								c-1.8-0.2-3.4-0.6-4.9-0.9c-1.5-0.4-2.7-0.9-3.8-1.4c-1-0.6-1.5-1.4-1.5-2.3c0-3,4.2-4.6,12.7-5.1v-1.4h6.4v1.4
								c4.6,0.2,8,0.6,10.1,1.4c2.1,0.8,3.1,2,3.1,3.6h-12v-0.3c0-0.5-0.3-0.9-0.9-1.2c-0.6-0.3-1.5-0.6-2.8-0.6
								c-1.4,0-2.4,0.2-3,0.5c-0.6,0.3-1,0.6-1,1c0,0.6,0.6,1,1.6,1.3c1,0.3,2.3,0.6,3.9,0.8c1.6,0.2,3.3,0.5,5,0.6
								c1.8,0.2,3.5,0.5,5,0.9c1.6,0.4,2.9,0.9,3.9,1.5s1.6,1.4,1.6,2.5c0,1.6-1.2,2.8-3.7,3.6c-2.5,0.8-6.1,1.3-10.9,1.4v2.2h-6.4
								v-2.2C151.1,218.8,147.8,218.4,145.5,217.7z"/>
						</g>
					</g>
				</g>
			</g>
			<g>
				<g>
					<path class="st1" d="M103.2,195.2v12c0,10.5,25.1,19,55.9,19c30.9,0,55.9-8.5,55.9-19v-12H103.2z"/>
				</g>
				<g>
					<g>
						<ellipse class="st2" cx="159.1" cy="195.2" rx="55.9" ry="19"/>
					</g>
				</g>
				<g>
					<g>
						<ellipse class="st1" cx="159.1" cy="195.2" rx="45.5" ry="15.5"/>
					</g>
				</g>
				<g>
					<g>
						<g>
							<path class="st2" d="M145.3,202c-2.2-0.7-3.4-1.8-3.4-3.3v-0.6h12.6v0.5c0,0.7,0.4,1.2,1.2,1.4c0.8,0.2,1.8,0.4,3.1,0.4
								c1.4,0,2.4-0.2,3.1-0.5c0.7-0.3,1-0.6,1-1.1c0-0.6-0.5-1-1.5-1.3c-1-0.3-2.2-0.6-3.8-0.8s-3.1-0.5-4.9-0.7
								c-1.8-0.2-3.4-0.6-4.9-0.9c-1.5-0.4-2.7-0.9-3.8-1.4c-1-0.6-1.5-1.4-1.5-2.3c0-3,4.2-4.6,12.7-5.1v-1.3h6.4v1.4
								c4.6,0.2,8,0.6,10.1,1.4s3.1,2,3.1,3.6h-12.1V191c0-0.5-0.3-0.9-0.9-1.2c-0.6-0.3-1.5-0.6-2.8-0.6c-1.4,0-2.4,0.2-3,0.5
								s-1,0.6-1,1c0,0.6,0.6,1,1.6,1.3c1,0.3,2.3,0.6,3.9,0.8c1.6,0.2,3.3,0.5,5,0.6c1.8,0.2,3.5,0.5,5,0.9
								c1.6,0.4,2.9,0.9,3.9,1.5s1.6,1.4,1.6,2.5c0,1.6-1.2,2.8-3.7,3.6c-2.5,0.8-6.1,1.3-10.9,1.4v2.2h-6.4v-2.2
								C150.9,203.1,147.6,202.7,145.3,202z"/>
						</g>
					</g>
				</g>
			</g>
			<g>
				<g>
					<path class="st1" d="M111.7,179.6v12c0,10.5,25.1,19,55.9,19c30.9,0,55.9-8.5,55.9-19v-12H111.7z"/>
				</g>
				<g>
					<g>
						<ellipse class="st2" cx="167.6" cy="179.6" rx="55.9" ry="19"/>
					</g>
				</g>
				<g>
					<g>
						<path class="st1" d="M213.2,179.6c0,8.6-20.3,15.5-45.5,15.5s-45.5-6.9-45.5-15.5s20.3-15.5,45.5-15.5S213.2,171,213.2,179.6z
							"/>
					</g>
				</g>
				<g>
					<g>
						<g>
							<path class="st2" d="M153.8,186.4c-2.2-0.7-3.4-1.8-3.4-3.3v-0.6h12.5v0.5c0,0.7,0.4,1.2,1.2,1.4c0.8,0.2,1.8,0.4,3.1,0.4
								c1.4,0,2.4-0.2,3.1-0.5c0.7-0.3,1-0.6,1-1.1c0-0.6-0.5-1-1.5-1.3c-1-0.3-2.2-0.6-3.8-0.8s-3.1-0.5-4.9-0.7
								c-1.8-0.2-3.4-0.6-4.9-0.9c-1.5-0.4-2.7-0.9-3.8-1.4c-1-0.6-1.5-1.4-1.5-2.3c0-3,4.2-4.6,12.7-5.1v-1.4h6.4v1.4
								c4.6,0.2,8,0.6,10.1,1.4c2.1,0.8,3.1,2,3.1,3.6h-12v-0.3c0-0.5-0.3-0.9-0.9-1.2c-0.6-0.3-1.5-0.6-2.8-0.6
								c-1.4,0-2.4,0.2-3,0.5c-0.6,0.3-1,0.6-1,1c0,0.6,0.6,1,1.6,1.3c1,0.3,2.3,0.6,3.9,0.8c1.6,0.2,3.3,0.5,5,0.6
								c1.8,0.2,3.5,0.5,5,0.9c1.6,0.4,2.9,0.9,3.9,1.5c1,0.6,1.6,1.4,1.6,2.5c0,1.6-1.2,2.8-3.7,3.6c-2.5,0.8-6.1,1.3-10.9,1.4v2.2
								h-6.4v-2.2C159.4,187.5,156.1,187.1,153.8,186.4z"/>
						</g>
					</g>
				</g>
			</g>
			<g>
				<g>
					<path class="st1" d="M117.5,163.9v12c0,10.5,25.1,19,55.9,19s55.9-8.5,55.9-19v-12H117.5z"/>
				</g>
				<g>
					<g>
						<ellipse class="st2" cx="173.5" cy="163.9" rx="55.9" ry="19"/>
					</g>
				</g>
				<g>
					<g>
						<ellipse class="st1" cx="173.5" cy="163.9" rx="45.5" ry="15.5"/>
					</g>
				</g>
				<g>
					<g>
						<g>
							<path class="st2" d="M159.7,170.8c-2.2-0.7-3.4-1.8-3.4-3.3v-0.6h12.5v0.5c0,0.7,0.4,1.2,1.2,1.4c0.8,0.2,1.8,0.4,3.1,0.4
								c1.4,0,2.4-0.2,3.1-0.5c0.7-0.3,1-0.6,1-1.1c0-0.6-0.5-1-1.5-1.3c-1-0.3-2.2-0.6-3.8-0.8c-1.5-0.2-3.1-0.5-4.9-0.7
								c-1.8-0.2-3.4-0.6-4.9-0.9c-1.5-0.4-2.7-0.9-3.8-1.4c-1-0.6-1.5-1.4-1.5-2.3c0-3,4.2-4.6,12.7-5.1v-1.4h6.4v1.4
								c4.6,0.2,8,0.6,10.1,1.4c2.1,0.8,3.1,2,3.1,3.6h-12v-0.3c0-0.5-0.3-0.9-0.9-1.2c-0.6-0.3-1.5-0.6-2.8-0.6
								c-1.4,0-2.4,0.2-3,0.5c-0.6,0.3-1,0.6-1,1c0,0.6,0.6,1,1.6,1.3c1,0.3,2.3,0.6,3.9,0.8c1.6,0.2,3.3,0.5,5,0.6
								c1.8,0.2,3.5,0.5,5,0.9c1.6,0.4,2.9,0.9,3.9,1.5c1,0.6,1.6,1.4,1.6,2.5c0,1.6-1.2,2.8-3.7,3.6c-2.5,0.8-6.1,1.3-10.9,1.4v2.2
								h-6.4v-2.2C165.3,171.9,161.9,171.5,159.7,170.8z"/>
						</g>
					</g>
				</g>
			</g>
		</g>
		<path class="st0" d="M264.1,206.7v7.7c0,3,2.1,5.8,5.8,8.4v7.2c0,3.5,2.8,6.8,7.7,9.6v1.2c-3.7,2.6-5.8,5.4-5.8,8.4l0,0v12
			c0,2.5,1.4,4.8,3.8,7v2.7c-4.9,2.8-7.7,6.1-7.7,9.6v7.2c-3.7,2.6-5.8,5.4-5.8,8.4v12c0,3.9,3.6,7.6,9.7,10.7v5
			c0,2.5,1.4,4.8,3.8,7v3.9c-3.7,2.6-5.8,5.4-5.8,8.4v12c0,6.8,10.7,12.8,26.5,16.2v-6.2c0-3.9-4-7.6-10.8-10.7v-0.2
			c4.2-2.6,6.5-5.4,6.5-8.4v-6c5.5-2.8,8.7-6.1,8.7-9.6v-12c0-2.5-1.5-4.8-4.3-7v-3.9c4.2-2.6,6.5-5.4,6.5-8.4v-12
			c0-3.5-3.1-6.8-8.7-9.6v-6c0-3-2.3-5.8-6.5-8.4v-1.2c5.5-2.8,8.7-6.1,8.7-9.6v-7.2c4.2-2.6,6.5-5.4,6.5-8.4v-12
			C302.9,216.3,286.9,209.5,264.1,206.7z"/>
		<path class="st0" d="M177.6,224.3v7.2c-4.2,2.6-6.5,5.4-6.5,8.4v6c-5.5,2.8-8.7,6.1-8.7,9.6v12c0,3,2.3,5.8,6.5,8.4v7.2
			c0,3.5,3.1,6.8,8.7,9.6v1.2c-4.2,2.6-6.5,5.4-6.5,8.4v12c0,2.5,1.5,4.8,4.3,7v2.7c-5.5,2.8-8.7,6.1-8.7,9.6v7.2
			c-4.2,2.6-6.5,5.4-6.5,8.4v12c0,1.9,1,3.8,2.7,5.5c0.9,0,1.8,0,2.7,0c30.9,0,55.9-8.5,55.9-19v-7.2c3.7-2.6,5.8-5.4,5.8-8.4v-12
			c0-2.5-1.4-4.8-3.8-7v-8.7c0-3.9-3.6-7.6-9.7-10.7v-0.2c3.7-2.6,5.8-5.4,5.8-8.4v-6c4.9-2.8,7.7-6.1,7.7-9.6v-12
			c0-2.5-1.4-4.8-3.8-7v-3.9c3.7-2.6,5.8-5.4,5.8-8.4v-12c0-3.5-2.8-6.8-7.7-9.6v-6c0-1.6-0.6-3.1-1.6-4.6
			C195.3,208.8,177.6,215.9,177.6,224.3z"/>
		<g>
			<g>
				<g>
					<path class="st1" d="M175.7,390.7v12c0,10.5,25.1,19,55.9,19c30.9,0,55.9-8.5,55.9-19v-12H175.7z"/>
				</g>
				<g>
					<g>
						<ellipse class="st2" cx="231.6" cy="390.7" rx="55.9" ry="19"/>
					</g>
				</g>
				<g>
					<g>
						<path class="st1" d="M277.1,390.7c0,8.6-20.3,15.5-45.5,15.5s-45.5-6.9-45.5-15.5c0-8.6,20.3-15.5,45.5-15.5
							S277.1,382.2,277.1,390.7z"/>
					</g>
				</g>
				<g>
					<g>
						<g>
							<path class="st2" d="M217.8,397.5c-2.2-0.7-3.4-1.8-3.4-3.3v-0.6h12.5v0.5c0,0.7,0.4,1.2,1.2,1.4s1.8,0.4,3.1,0.4
								c1.4,0,2.4-0.2,3.1-0.5c0.7-0.3,1-0.6,1-1.1c0-0.6-0.5-1-1.5-1.3c-1-0.3-2.2-0.6-3.8-0.8c-1.5-0.2-3.1-0.5-4.9-0.7
								c-1.8-0.2-3.4-0.6-4.9-0.9c-1.5-0.4-2.7-0.9-3.8-1.4c-1-0.6-1.5-1.4-1.5-2.3c0-3,4.2-4.6,12.7-5.1v-1.4h6.4v1.4
								c4.6,0.2,8,0.6,10.1,1.4s3.1,2,3.1,3.6h-12v-0.3c0-0.5-0.3-0.9-0.9-1.2c-0.6-0.3-1.5-0.6-2.8-0.6c-1.4,0-2.4,0.2-3,0.5
								c-0.6,0.3-1,0.6-1,1c0,0.6,0.6,1,1.6,1.3c1,0.3,2.3,0.6,3.9,0.8c1.6,0.2,3.3,0.5,5,0.6c1.8,0.2,3.5,0.5,5,0.9
								c1.6,0.4,2.9,0.9,3.9,1.5c1,0.6,1.6,1.4,1.6,2.5c0,1.6-1.2,2.8-3.7,3.6s-6.1,1.3-10.9,1.4v2.2h-6.4v-2.2
								C223.4,398.7,220.1,398.3,217.8,397.5z"/>
						</g>
					</g>
				</g>
			</g>
			<g>
				<g>
					<path class="st1" d="M181.5,375v12c0,10.5,25.1,19,55.9,19c30.9,0,55.9-8.5,55.9-19v-12H181.5z"/>
				</g>
				<g>
					<g>
						<ellipse class="st2" cx="237.4" cy="375" rx="55.9" ry="19"/>
					</g>
				</g>
				<g>
					<g>
						<ellipse class="st1" cx="237.4" cy="375" rx="45.5" ry="15.5"/>
					</g>
				</g>
				<g>
					<g>
						<g>
							<path class="st2" d="M223.6,381.9c-2.2-0.7-3.4-1.8-3.4-3.3V378h12.5v0.5c0,0.7,0.4,1.2,1.2,1.4c0.8,0.2,1.8,0.4,3.1,0.4
								c1.4,0,2.4-0.2,3.1-0.5s1-0.6,1-1.1c0-0.6-0.5-1-1.5-1.3c-1-0.3-2.2-0.6-3.8-0.8c-1.5-0.2-3.1-0.5-4.9-0.7
								c-1.8-0.2-3.4-0.6-4.9-0.9c-1.5-0.4-2.7-0.9-3.8-1.4c-1-0.6-1.5-1.4-1.5-2.3c0-3,4.2-4.6,12.7-5.1v-1.4h6.4v1.4
								c4.6,0.2,8,0.6,10.1,1.4s3.1,2,3.1,3.6h-12.1v-0.3c0-0.5-0.3-0.9-0.9-1.2c-0.6-0.3-1.5-0.6-2.8-0.6c-1.4,0-2.4,0.2-3,0.5
								c-0.6,0.3-1,0.6-1,1c0,0.6,0.6,1,1.6,1.3c1,0.3,2.3,0.6,3.9,0.8c1.6,0.2,3.3,0.5,5,0.6c1.8,0.2,3.5,0.5,5,0.9
								c1.6,0.4,2.9,0.9,3.9,1.5c1,0.6,1.6,1.4,1.6,2.5c0,1.6-1.2,2.8-3.7,3.6s-6.1,1.3-10.9,1.4v2.2h-6.4v-2.2
								C229.2,383,225.9,382.6,223.6,381.9z"/>
						</g>
					</g>
				</g>
			</g>
			<g>
				<g>
					<path class="st1" d="M177.6,359.4v12c0,10.5,25.1,19,55.9,19c30.9,0,55.9-8.5,55.9-19v-12H177.6z"/>
				</g>
				<g>
					<g>
						<ellipse class="st2" cx="233.5" cy="359.4" rx="55.9" ry="19"/>
					</g>
				</g>
				<g>
					<g>
						<path class="st1" d="M279.1,359.4c0,8.6-20.3,15.5-45.5,15.5s-45.5-6.9-45.5-15.5s20.3-15.5,45.5-15.5
							C258.7,343.9,279.1,350.8,279.1,359.4z"/>
					</g>
				</g>
				<g>
					<g>
						<g>
							<path class="st2" d="M219.7,366.3c-2.2-0.7-3.4-1.8-3.4-3.3v-0.6h12.5v0.5c0,0.7,0.4,1.2,1.2,1.4c0.8,0.2,1.8,0.4,3.1,0.4
								c1.4,0,2.4-0.2,3.1-0.5s1-0.6,1-1.1c0-0.6-0.5-1-1.5-1.3c-1-0.3-2.2-0.6-3.8-0.8c-1.5-0.2-3.1-0.5-4.9-0.7
								c-1.8-0.2-3.4-0.6-4.9-0.9c-1.5-0.4-2.7-0.9-3.8-1.4c-1-0.6-1.5-1.4-1.5-2.3c0-3,4.2-4.6,12.7-5.1v-1.4h6.4v1.4
								c4.6,0.2,8,0.6,10.1,1.4s3.1,2,3.1,3.6h-12.1v-0.3c0-0.5-0.3-0.9-0.9-1.2c-0.6-0.3-1.5-0.6-2.8-0.6c-1.4,0-2.4,0.2-3,0.5
								c-0.6,0.3-1,0.6-1,1c0,0.6,0.6,1,1.6,1.3c1,0.3,2.3,0.6,3.9,0.8c1.6,0.2,3.3,0.5,5,0.6c1.8,0.2,3.5,0.5,5,0.9
								c1.6,0.4,2.9,0.9,3.9,1.5s1.6,1.4,1.6,2.5c0,1.6-1.2,2.8-3.7,3.6s-6.1,1.3-10.9,1.4v2.2h-6.4v-2.2
								C225.4,367.3,222,366.9,219.7,366.3z"/>
						</g>
					</g>
				</g>
			</g>
			<g>
				<g>
					<path class="st1" d="M167.9,343.8v12c0,10.5,25.1,19,55.9,19c30.9,0,55.9-8.5,55.9-19v-12H167.9z"/>
				</g>
				<g>
					<g>
						<ellipse class="st2" cx="223.8" cy="343.8" rx="55.9" ry="19"/>
					</g>
				</g>
				<g>
					<g>
						<ellipse class="st1" cx="223.8" cy="343.8" rx="45.5" ry="15.5"/>
					</g>
				</g>
				<g>
					<g>
						<g>
							<path class="st2" d="M210.1,350.6c-2.2-0.7-3.4-1.8-3.4-3.3v-0.6h12.5v0.5c0,0.7,0.4,1.2,1.2,1.4s1.8,0.4,3.1,0.4
								c1.4,0,2.4-0.2,3.1-0.5c0.7-0.3,1-0.6,1-1.1c0-0.6-0.5-1-1.5-1.3c-1-0.3-2.2-0.6-3.8-0.8c-1.5-0.2-3.1-0.5-4.9-0.7
								c-1.8-0.2-3.4-0.6-4.9-0.9c-1.5-0.4-2.7-0.9-3.8-1.4c-1-0.6-1.5-1.4-1.5-2.3c0-3,4.2-4.6,12.7-5.1v-1.4h6.4v1.4
								c4.6,0.2,8,0.6,10.1,1.4s3.1,2,3.1,3.6h-12.1v-0.3c0-0.5-0.3-0.9-0.9-1.2c-0.6-0.3-1.5-0.6-2.8-0.6c-1.4,0-2.4,0.2-3,0.5
								c-0.6,0.3-1,0.6-1,1c0,0.6,0.6,1,1.6,1.3c1,0.3,2.3,0.6,3.9,0.8c1.6,0.2,3.3,0.5,5,0.6c1.8,0.2,3.5,0.5,5,0.9
								c1.6,0.4,2.9,0.9,3.9,1.5s1.6,1.4,1.6,2.5c0,1.6-1.2,2.8-3.7,3.6c-2.5,0.8-6.1,1.3-10.9,1.4v2.2H220V352
								C215.7,351.7,212.4,351.3,210.1,350.6z"/>
						</g>
					</g>
				</g>
			</g>
			<g>
				<g>
					<path class="st1" d="M173.8,328.2v12c0,10.5,25.1,19,55.9,19c30.9,0,55.9-8.5,55.9-19v-12H173.8z"/>
				</g>
				<g>
					<g>
						<ellipse class="st2" cx="229.7" cy="328.2" rx="55.9" ry="19"/>
					</g>
				</g>
				<g>
					<g>
						<ellipse class="st1" cx="229.7" cy="328.2" rx="45.5" ry="15.5"/>
					</g>
				</g>
				<g>
					<g>
						<g>
							<path class="st2" d="M215.9,335c-2.2-0.7-3.4-1.8-3.4-3.3v-0.6H225v0.5c0,0.7,0.4,1.2,1.2,1.4c0.8,0.2,1.8,0.4,3.1,0.4
								c1.4,0,2.4-0.2,3.1-0.5c0.7-0.3,1-0.6,1-1.1c0-0.6-0.5-1-1.5-1.3c-1-0.3-2.2-0.6-3.8-0.8c-1.5-0.2-3.1-0.5-4.9-0.7
								c-1.8-0.2-3.4-0.6-4.9-0.9c-1.5-0.4-2.7-0.9-3.8-1.4c-1-0.6-1.5-1.4-1.5-2.3c0-3,4.2-4.6,12.7-5.1v-1.3h6.4v1.4
								c4.6,0.2,8,0.6,10.1,1.4s3.1,2,3.1,3.6h-12.1V324c0-0.5-0.3-0.9-0.9-1.2c-0.6-0.3-1.5-0.6-2.8-0.6c-1.4,0-2.4,0.2-3,0.5
								c-0.6,0.3-1,0.6-1,1c0,0.6,0.6,1,1.6,1.3c1,0.3,2.3,0.6,3.9,0.8c1.6,0.2,3.3,0.5,5,0.6c1.8,0.2,3.5,0.5,5,0.9
								c1.6,0.4,2.9,0.9,3.9,1.5c1,0.6,1.6,1.4,1.6,2.5c0,1.6-1.2,2.8-3.7,3.6s-6.1,1.3-10.9,1.4v2.2h-6.4v-2.2
								C221.5,336.1,218.1,335.7,215.9,335z"/>
						</g>
					</g>
				</g>
			</g>
			<g>
				<g>
					<path class="st1" d="M181.5,312.5v12c0,10.5,25.1,19,55.9,19c30.9,0,55.9-8.5,55.9-19v-12H181.5z"/>
				</g>
				<g>
					<g>
						<ellipse class="st2" cx="237.4" cy="312.5" rx="55.9" ry="19"/>
					</g>
				</g>
				<g>
					<g>
						<ellipse class="st1" cx="237.4" cy="312.5" rx="45.5" ry="15.5"/>
					</g>
				</g>
				<g>
					<g>
						<g>
							<path class="st2" d="M223.6,319.4c-2.2-0.7-3.4-1.8-3.4-3.3v-0.6h12.5v0.5c0,0.7,0.4,1.2,1.2,1.4c0.8,0.2,1.8,0.4,3.1,0.4
								c1.4,0,2.4-0.2,3.1-0.5c0.7-0.3,1-0.6,1-1.1c0-0.6-0.5-1-1.5-1.3c-1-0.3-2.2-0.6-3.8-0.8c-1.5-0.2-3.1-0.5-4.9-0.7
								c-1.8-0.2-3.4-0.6-4.9-0.9c-1.5-0.4-2.7-0.9-3.8-1.4c-1-0.6-1.5-1.4-1.5-2.3c0-3,4.2-4.6,12.7-5.1v-1.4h6.4v1.4
								c4.6,0.2,8,0.6,10.1,1.4c2.1,0.8,3.1,2,3.1,3.6h-12.1v-0.3c0-0.5-0.3-0.9-0.9-1.2c-0.6-0.3-1.5-0.6-2.8-0.6
								c-1.4,0-2.4,0.2-3,0.5c-0.6,0.3-1,0.6-1,1c0,0.6,0.6,1,1.6,1.3c1,0.3,2.3,0.6,3.9,0.8c1.6,0.2,3.3,0.5,5,0.6
								c1.8,0.2,3.5,0.5,5,0.9c1.6,0.4,2.9,0.9,3.9,1.5c1,0.6,1.6,1.4,1.6,2.5c0,1.6-1.2,2.8-3.7,3.6c-2.5,0.8-6.1,1.3-10.9,1.4v2.2
								h-6.4v-2.2C229.2,320.5,225.9,320,223.6,319.4z"/>
						</g>
					</g>
				</g>
			</g>
			<g>
				<g>
					<path class="st1" d="M177.6,296.8v12c0,10.5,25.1,19,55.9,19c30.9,0,55.9-8.5,55.9-19v-12H177.6z"/>
				</g>
				<g>
					<g>
						<path class="st2" d="M289.4,296.8c0,10.5-25.1,19-55.9,19c-30.9,0-55.9-8.5-55.9-19s25.1-19,55.9-19
							C264.4,277.9,289.4,286.4,289.4,296.8z"/>
					</g>
				</g>
				<g>
					<g>
						<path class="st1" d="M279.1,296.8c0,8.6-20.3,15.5-45.5,15.5s-45.5-6.9-45.5-15.5c0-8.6,20.3-15.5,45.5-15.5
							C258.7,281.4,279.1,288.3,279.1,296.8z"/>
					</g>
				</g>
				<g>
					<g>
						<g>
							<path class="st2" d="M219.7,303.7c-2.2-0.7-3.4-1.8-3.4-3.3v-0.6h12.5v0.5c0,0.7,0.4,1.2,1.2,1.4c0.8,0.2,1.8,0.4,3.1,0.4
								c1.4,0,2.4-0.2,3.1-0.5c0.7-0.3,1-0.6,1-1.1c0-0.6-0.5-1-1.5-1.3c-1-0.3-2.2-0.6-3.8-0.8c-1.5-0.2-3.1-0.5-4.9-0.7
								c-1.8-0.2-3.4-0.6-4.9-0.9c-1.5-0.4-2.7-0.9-3.8-1.4c-1-0.6-1.5-1.4-1.5-2.3c0-3,4.2-4.6,12.7-5.1v-1.4h6.4v1.4
								c4.6,0.2,8,0.6,10.1,1.4c2.1,0.8,3.1,2,3.1,3.6h-12.1v-0.3c0-0.5-0.3-0.9-0.9-1.2c-0.6-0.3-1.5-0.6-2.8-0.6
								c-1.4,0-2.4,0.2-3,0.5c-0.6,0.3-1,0.6-1,1c0,0.6,0.6,1,1.6,1.3c1,0.3,2.3,0.6,3.9,0.8c1.6,0.2,3.3,0.5,5,0.6
								c1.8,0.2,3.5,0.5,5,0.9c1.6,0.4,2.9,0.9,3.9,1.5c1,0.6,1.6,1.4,1.6,2.5c0,1.6-1.2,2.8-3.7,3.6c-2.5,0.8-6.1,1.3-10.9,1.4v2.2
								h-6.4v-2.2C225.4,304.9,222,304.4,219.7,303.7z"/>
						</g>
					</g>
				</g>
			</g>
			<g>
				<g>
					<path class="st1" d="M183.4,281.2v12c0,10.5,25.1,19,55.9,19c30.9,0,55.9-8.5,55.9-19v-12H183.4z"/>
				</g>
				<g>
					<g>
						<ellipse class="st2" cx="239.3" cy="281.2" rx="55.9" ry="19"/>
					</g>
				</g>
				<g>
					<g>
						<ellipse class="st1" cx="239.3" cy="281.2" rx="45.5" ry="15.5"/>
					</g>
				</g>
				<g>
					<g>
						<g>
							<path class="st2" d="M225.5,288c-2.2-0.7-3.4-1.8-3.4-3.3v-0.6h12.5v0.5c0,0.7,0.4,1.2,1.2,1.4c0.8,0.2,1.8,0.4,3.1,0.4
								c1.4,0,2.4-0.2,3.1-0.5c0.7-0.3,1-0.6,1-1.1c0-0.6-0.5-1-1.5-1.3c-1-0.3-2.2-0.6-3.8-0.8c-1.5-0.2-3.1-0.5-4.9-0.7
								c-1.8-0.2-3.4-0.6-4.9-0.9c-1.5-0.4-2.7-0.9-3.8-1.4c-1-0.6-1.5-1.4-1.5-2.3c0-3,4.2-4.6,12.7-5.1v-1.4h6.4v1.4
								c4.6,0.2,8,0.6,10.1,1.4s3.1,2,3.1,3.6H243v-0.2c0-0.5-0.3-0.9-0.9-1.2c-0.6-0.3-1.5-0.6-2.8-0.6c-1.4,0-2.4,0.2-3,0.5
								c-0.6,0.3-1,0.6-1,1c0,0.6,0.6,1,1.6,1.3c1,0.3,2.3,0.6,3.9,0.8c1.6,0.2,3.3,0.5,5,0.6c1.8,0.2,3.5,0.5,5,0.9
								c1.6,0.4,2.9,0.9,3.9,1.5c1,0.6,1.6,1.4,1.6,2.5c0,1.6-1.2,2.8-3.7,3.6c-2.5,0.8-6.1,1.3-10.9,1.4v2.2h-6.4v-2.2
								C231.2,289.2,227.8,288.8,225.5,288z"/>
						</g>
					</g>
				</g>
			</g>
			<g>
				<g>
					<path class="st1" d="M175.7,265.6v12c0,10.5,25.1,19,55.9,19c30.9,0,55.9-8.5,55.9-19v-12L175.7,265.6L175.7,265.6z"/>
				</g>
				<g>
					<g>
						<path class="st2" d="M287.5,265.6c0,10.5-25.1,19-55.9,19s-55.9-8.5-55.9-19s25.1-19,55.9-19S287.5,255.1,287.5,265.6z"/>
					</g>
				</g>
				<g>
					<g>
						<path class="st1" d="M277.1,265.6c0,8.6-20.3,15.5-45.5,15.5s-45.5-6.9-45.5-15.5c0-8.6,20.3-15.5,45.5-15.5
							S277.1,257,277.1,265.6z"/>
					</g>
				</g>
				<g>
					<g>
						<g>
							<path class="st2" d="M217.8,272.4c-2.2-0.7-3.4-1.8-3.4-3.3v-0.6h12.5v0.5c0,0.7,0.4,1.2,1.2,1.4s1.8,0.4,3.1,0.4
								c1.4,0,2.4-0.2,3.1-0.5c0.7-0.3,1-0.6,1-1.1c0-0.6-0.5-1-1.5-1.3c-1-0.3-2.2-0.6-3.8-0.8s-3.1-0.5-4.9-0.7
								c-1.8-0.2-3.4-0.6-4.9-0.9c-1.5-0.4-2.7-0.9-3.8-1.4c-1-0.6-1.5-1.4-1.5-2.3c0-3,4.2-4.6,12.7-5.1v-1.4h6.4v1.4
								c4.6,0.2,8,0.6,10.1,1.4c2.1,0.8,3.1,2,3.1,3.6h-12v-0.3c0-0.5-0.3-0.9-0.9-1.2c-0.6-0.3-1.5-0.6-2.8-0.6
								c-1.4,0-2.4,0.2-3,0.5c-0.6,0.3-1,0.6-1,1c0,0.6,0.6,1,1.6,1.3s2.3,0.6,3.9,0.8c1.6,0.2,3.3,0.5,5,0.6c1.8,0.2,3.5,0.5,5,0.9
								c1.6,0.4,2.9,0.9,3.9,1.5c1,0.6,1.6,1.4,1.6,2.5c0,1.6-1.2,2.8-3.7,3.6s-6.1,1.3-10.9,1.4v2.2h-6.4v-2.2
								C223.4,273.5,220.1,273.1,217.8,272.4z"/>
						</g>
					</g>
				</g>
			</g>
			<g>
				<g>
					<path class="st1" d="M169.8,249.9v12c0,10.5,25.1,19,55.9,19s55.9-8.5,55.9-19v-12L169.8,249.9L169.8,249.9z"/>
				</g>
				<g>
					<g>
						<ellipse class="st2" cx="225.8" cy="249.9" rx="55.9" ry="19"/>
					</g>
				</g>
				<g>
					<g>
						<ellipse class="st1" cx="225.8" cy="249.9" rx="45.5" ry="15.5"/>
					</g>
				</g>
				<g>
					<g>
						<g>
							<path class="st2" d="M212.1,256.8c-2.2-0.7-3.4-1.8-3.4-3.3v-0.6h12.5v0.5c0,0.7,0.4,1.2,1.2,1.4c0.8,0.2,1.8,0.4,3.1,0.4
								c1.4,0,2.4-0.2,3.1-0.5s1-0.6,1-1.1c0-0.6-0.5-1-1.5-1.3c-1-0.3-2.2-0.6-3.8-0.8c-1.5-0.2-3.1-0.5-4.9-0.7
								c-1.8-0.2-3.4-0.6-4.9-0.9c-1.5-0.4-2.7-0.9-3.8-1.4c-1-0.6-1.5-1.4-1.5-2.3c0-3,4.2-4.6,12.7-5.1v-1.4h6.4v1.4
								c4.6,0.2,8,0.6,10.1,1.4s3.1,2,3.1,3.6h-12.1v-0.3c0-0.5-0.3-0.9-0.9-1.2c-0.6-0.3-1.5-0.6-2.8-0.6c-1.4,0-2.4,0.2-3,0.5
								c-0.6,0.3-1,0.6-1,1c0,0.6,0.6,1,1.6,1.3s2.3,0.6,3.9,0.8c1.6,0.2,3.3,0.5,5,0.6c1.8,0.2,3.5,0.5,5,0.9
								c1.6,0.4,2.9,0.9,3.9,1.5c1,0.6,1.6,1.4,1.6,2.5c0,1.6-1.2,2.8-3.7,3.6c-2.5,0.8-6.1,1.3-10.9,1.4v2.2H222v-2.2
								C217.7,257.9,214.3,257.5,212.1,256.8z"/>
						</g>
					</g>
				</g>
			</g>
			<g>
				<g>
					<path class="st1" d="M177.6,234.3v12c0,10.5,25.1,19,55.9,19c30.9,0,55.9-8.5,55.9-19v-12H177.6z"/>
				</g>
				<g>
					<g>
						<path class="st2" d="M289.4,234.3c0,10.5-25.1,19-55.9,19c-30.9,0-55.9-8.5-55.9-19s25.1-19,55.9-19
							C264.4,215.3,289.4,223.8,289.4,234.3z"/>
					</g>
				</g>
				<g>
					<g>
						<path class="st1" d="M279.1,234.3c0,8.6-20.3,15.5-45.5,15.5s-45.5-6.9-45.5-15.5s20.3-15.5,45.5-15.5
							C258.7,218.8,279.1,225.8,279.1,234.3z"/>
					</g>
				</g>
				<g>
					<g>
						<g>
							<path class="st2" d="M219.7,241.2c-2.2-0.7-3.4-1.8-3.4-3.3v-0.6h12.5v0.5c0,0.7,0.4,1.2,1.2,1.4c0.8,0.2,1.8,0.4,3.1,0.4
								c1.4,0,2.4-0.2,3.1-0.5s1-0.6,1-1.1c0-0.6-0.5-1-1.5-1.3c-1-0.3-2.2-0.6-3.8-0.8c-1.5-0.2-3.1-0.5-4.9-0.7
								c-1.8-0.2-3.4-0.6-4.9-0.9c-1.5-0.4-2.7-0.9-3.8-1.4c-1-0.6-1.5-1.4-1.5-2.3c0-3,4.2-4.6,12.7-5.1V224h6.4v1.4
								c4.6,0.2,8,0.6,10.1,1.4s3.1,2,3.1,3.6h-12.1v-0.3c0-0.5-0.3-0.9-0.9-1.2c-0.6-0.3-1.5-0.6-2.8-0.6c-1.4,0-2.4,0.2-3,0.5
								c-0.6,0.3-1,0.6-1,1c0,0.6,0.6,1,1.6,1.3c1,0.3,2.3,0.6,3.9,0.8c1.6,0.2,3.3,0.5,5,0.6c1.8,0.2,3.5,0.5,5,0.9
								c1.6,0.4,2.9,0.9,3.9,1.5c1,0.6,1.6,1.4,1.6,2.5c0,1.6-1.2,2.8-3.7,3.6c-2.5,0.8-6.1,1.3-10.9,1.4v2.2h-6.4v-2.2
								C225.4,242.3,222,241.8,219.7,241.2z"/>
						</g>
					</g>
				</g>
			</g>
			<g>
				<g>
					<path class="st1" d="M183.4,218.7v12c0,10.5,25.1,19,55.9,19c30.9,0,55.9-8.5,55.9-19v-12H183.4z"/>
				</g>
				<g>
					<g>
						<ellipse class="st2" cx="239.3" cy="218.7" rx="55.9" ry="19"/>
					</g>
				</g>
				<g>
					<g>
						<ellipse class="st1" cx="239.3" cy="218.7" rx="45.5" ry="15.5"/>
					</g>
				</g>
				<g>
					<g>
						<g>
							<path class="st2" d="M225.5,225.5c-2.2-0.7-3.4-1.8-3.4-3.3v-0.6h12.5v0.5c0,0.7,0.4,1.2,1.2,1.4c0.8,0.2,1.8,0.4,3.1,0.4
								c1.4,0,2.4-0.2,3.1-0.5c0.7-0.3,1-0.6,1-1.1c0-0.6-0.5-1-1.5-1.3c-1-0.3-2.2-0.6-3.8-0.8c-1.5-0.2-3.1-0.5-4.9-0.7
								c-1.8-0.2-3.4-0.6-4.9-0.9c-1.5-0.4-2.7-0.9-3.8-1.4c-1-0.6-1.5-1.4-1.5-2.3c0-3,4.2-4.6,12.7-5.1v-1.4h6.4v1.4
								c4.6,0.2,8,0.6,10.1,1.4s3.1,2,3.1,3.6H243v-0.3c0-0.5-0.3-0.9-0.9-1.2c-0.6-0.3-1.5-0.6-2.8-0.6c-1.4,0-2.4,0.2-3,0.5
								c-0.6,0.3-1,0.6-1,1c0,0.6,0.6,1,1.6,1.3c1,0.3,2.3,0.6,3.9,0.8c1.6,0.2,3.3,0.5,5,0.6c1.8,0.2,3.5,0.5,5,0.9
								c1.6,0.4,2.9,0.9,3.9,1.5c1,0.6,1.6,1.4,1.6,2.5c0,1.6-1.2,2.8-3.7,3.6c-2.5,0.8-6.1,1.3-10.9,1.4v2.2h-6.4v-2.2
								C231.2,226.6,227.8,226.2,225.5,225.5z"/>
						</g>
					</g>
				</g>
			</g>
		</g>
	</g>
</g>
</svg>
