<?xml version="1.0" encoding="utf-8"?>
<!-- Generator: Adobe Illustrator 22.0.1, SVG Export Plug-In . SVG Version: 6.00 Build 0)  -->
<svg version="1.1" id="Layer_1" xmlns="http://www.w3.org/2000/svg" xmlns:xlink="http://www.w3.org/1999/xlink" x="0px" y="0px"
	 viewBox="0 0 500 500" style="enable-background:new 0 0 500 500;" xml:space="preserve">
<style type="text/css">
	.st0{fill:#6184C9;}
	.st1{fill:#56666B;}
	.st2{fill:#FFFFFF;}
	.st3{fill:#F2F2F2;}
	.st4{fill:#FFDDBF;}
	.st5{fill:#553625;}
	.st6{fill:#EB7D86;}
	.st7{fill:#6B4F41;}
	.st8{fill:none;}
	.st9{fill:#213565;}
	.st10{fill:#E6E7E7;}
	.st11{fill:#CFD1D2;}
	.st12{fill:#E9571E;}
	.st13{fill:#E73E4A;}
	.st14{fill:#F29129;}
	.st15{fill:none;stroke:#E84443;stroke-width:0.9045;stroke-miterlimit:10;}
	.st16{fill:#FFFFFF;stroke:#E84443;stroke-width:0.9045;stroke-miterlimit:10;}
</style>
<g>
	<rect x="213.1" y="98.1" class="st0" width="276.4" height="200.1"/>
</g>
<g>
	<path class="st1" d="M492.2,298.1H210.5c-2.1,0-3.8,1.7-3.8,3.8c0,2.1,1.7,3.8,3.8,3.8h281.7c2.1,0,3.8-1.7,3.8-3.8
		C496,299.8,494.3,298.1,492.2,298.1z"/>
</g>
<path class="st1" d="M492.2,90.6h-8.6L351.8,40.1c-0.3-0.1-0.7-0.1-1,0L219,90.6h-8.6c-2.1,0-3.8,1.7-3.8,3.8c0,2.1,1.7,3.8,3.8,3.8
	h281.7c2.1,0,3.8-1.7,3.8-3.8C496,92.3,494.3,90.6,492.2,90.6z M351.3,43l124.2,47.6H227.1L351.3,43z"/>
<g>
	<rect x="244.6" y="254.9" class="st2" width="27.8" height="11.3"/>
</g>
<g>
	<rect x="290.8" y="243.4" class="st2" width="27.8" height="22.4"/>
</g>
<g>
	<rect x="337.1" y="215.4" class="st2" width="27.8" height="50.4"/>
</g>
<g>
	<rect x="383.3" y="178.7" class="st2" width="27.8" height="87.1"/>
</g>
<g>
	<rect x="429.5" y="126.4" class="st2" width="27.8" height="139.3"/>
</g>
<g>
	<ellipse class="st3" cx="145.5" cy="442.2" rx="81.7" ry="16.3"/>
</g>
<g>
	<g>
		<path class="st1" d="M204,384.4l-4.7,45.3c0,0,11.4-14.3,16.5,0.3c5.3,15.1-25.9,5.8-25.9,5.8l-2.1-34.4c0,0-54.5,11.6-92.4-1.5
			l-4.3,32.3c0,0,10.4-9.3,14.5,1.4c5.9,15.1-24.2,7.5-24.2,7.5l-4.3-56.4L204,384.4z"/>
	</g>
	<g>
		<path class="st4" d="M123,199.6c0,0,76.7-16.2,87,88.4c-7.8,2.3-64.7,18-145.1,11.4l-1,0C64,257.2,76.2,212.9,123,199.6z"/>
	</g>
	<g>
		<g>
			<path class="st5" d="M83.8,216.2c0,0,6.2-43.1,52.7-35.7c46.5,7.5,78,21.8,90.2-8.4c0,0-6.9,83.2-123.3,62.3
				c0,0-1.5,12.3-4.6,20.5c0,0-8.7-3.7-10.4,3.6c-1.7,7.3,8.1,6,8.1,6s-4.9,26.5-32.6,34.8C63.9,299.3,45.1,226.6,83.8,216.2z"/>
		</g>
	</g>
	<g>
		<g>
			<path class="st6" d="M155.7,271.7l31-0.6c0,0,0.7,20.6-14.6,18.9C155.5,288,155.6,274.9,155.7,271.7z"/>
		</g>
	</g>
	<g>
		<g>
			<path class="st7" d="M143.1,267.4c0,0.2-0.2,0,0,0.1C143.1,267.5,143.2,267.4,143.1,267.4z"/>
		</g>
		<g>
			<path class="st7" d="M156.3,266.2c0.5-0.6,0-1.3,0.4-2c0-0.1-0.3,0-0.2-0.2c0.4-0.6,0.3-1.6,0-2.3l-0.1,0
				c-0.1-0.1,0.2-0.3,0.2-0.5l-0.2,0c0.2,0,0.1-0.3,0.2-0.3l-0.3-0.1l0.2-0.1c0.5-0.2,0-0.6,0.2-0.9l-0.1,0c0.3-0.5,0.3-1.2,0.4-1.8
				l-0.3,0c0.2,0,0.2-0.2,0.3-0.4c-0.2-0.1,0.2-0.3,0.1-0.5l0,0c0.2-0.1-0.1-0.2,0.1-0.3l-0.2-0.1c0.3-0.1-0.2-0.2,0-0.3h0.1
				c0.1-0.1-0.1-0.2,0-0.3l0,0c0.1-0.2-0.1-0.4,0.1-0.4c-0.2-0.1-0.1,0.2-0.3,0.1c0.2-0.8,0-1.6-0.3-2.3l-0.2-0.1
				c0-0.1,0-0.3,0.1-0.4c0,0-0.1,0-0.1-0.1c-0.1-0.1,0.2-0.2,0-0.3l-0.2,0.1c0.1-0.2,0-0.3,0-0.5l-0.1,0.1c0.1-0.2-0.1-0.3-0.1-0.5
				l-0.1,0.1c-0.2-0.2,0.2-0.2,0.1-0.3l-0.1,0.1c0.1-0.3,0-0.5,0-0.7l0,0l-0.2-0.6c-0.1,0-0.3,0.2-0.3-0.1c0.2-0.1-0.1-0.4,0.2-0.4
				c-0.1-0.2-0.4-0.4-0.4-0.5c0,0.1-0.3,0.1-0.3,0.2l-0.2,0c-0.1,0.1,0.1,0.1,0,0.1c0-0.1-0.1-0.3-0.1-0.4c0.1-0.2,0.2-0.5,0.1-0.7
				c0,0.2-0.3,0.1-0.3,0.2l0.2-0.5c0-0.1-0.2,0.1-0.2,0l0.1-0.2c0,0-0.2-0.3-0.4-0.2c-0.1,0,0.1,0.1-0.1,0.1c-0.1-0.1,0-0.2-0.1-0.3
				l0,0c-0.1,0-0.1-0.3,0-0.3c0.1,0-0.1,0.1,0,0.1c0.1-0.2,0-0.3-0.1-0.4l-0.1,0.2c0-0.3-0.2-0.6-0.2-0.7c-0.1-0.2-0.1,0.2-0.1,0.1
				c-0.2,0-0.6-0.7-0.8-0.5c0,0,0.1-0.1,0.1-0.1c-0.2,0-0.2,0.1-0.3,0c0,0.1-0.1-0.1-0.2-0.1c0-0.1,0,0,0,0.1
				c-0.1-0.1-0.6-0.4-0.9-0.3c0-0.1-0.1-0.3-0.2-0.3l0,0.2c-0.1,0.1-0.2-0.1-0.3,0.1c-0.1-0.2,0.5,0.3,0.4,0.1
				c-0.1,0.1-0.2-0.3-0.2-0.1c-0.1,0-0.2-0.2-0.4-0.1c0,0,0.1,0.2,0,0.2c-0.2-0.1,0-0.1-0.2-0.2l-0.1-0.1c0-0.1-0.2,0-0.1-0.2
				c0,0.1-0.3-0.1-0.3,0.1l0,0.2c-0.1,0-0.1-0.2-0.2-0.3l0,0.1c0-0.3-0.2,0-0.3-0.3c-0.2,0.1-0.5-0.1-0.6,0.1
				c-0.1-0.1-0.2-0.2-0.4-0.2l0.1,0.1c-0.1,0.1-0.1,0-0.2-0.1c0,0-0.2,0.2-0.3,0.3c-0.5,0-0.3-0.2-0.4-0.3c0,0.3-0.5,0-0.5,0.4
				c0.1,0,0.3,0,0.2,0.1c0,0.3-0.3-0.1-0.5,0.2l-0.1-0.2c0,0.2-0.4,0.1-0.2,0.3c-0.1,0-0.2,0.2-0.3,0c-0.2,0.3-0.7,0.5-0.6,1
				c-0.1,0-0.1,0.1-0.2,0c0-0.2,0.1,0,0.1-0.1l-0.1,0c0,0.1-0.1,0.2,0.1,0.3c-0.1,0.3-0.5-0.1-0.6,0.2c0.1,0.1,0.1,0.1,0,0.2l-0.3,0
				c-0.1,0.2,0.1,0.2,0.2,0.3c-0.1,0.1-0.1,0.2-0.3,0.1l0.1,0.2c-0.1-0.2-0.1,0-0.2,0l0.1,0c0,0.1,0,0.1-0.1,0.2
				c-0.1-0.1-0.1-0.2,0-0.3l-0.2,0.1c0.2,0.1,0,0.2,0,0.3c0,0.1-0.2,0-0.2,0c0.1,0-0.1,0.1,0.1,0.1c0,0,0-0.1,0.1-0.1
				c0,0.1,0.2,0.2,0,0.2c-0.1,0-0.3-0.2-0.3,0l0.2,0l0,0.2l-0.1-0.1l0.1,0c-0.2,0-0.2,0.2-0.4,0.2c0,0.1,0,0.2,0,0.3l0,0
				c0,0.1-0.1,0.2-0.2,0.3l0,0c0,0.1-0.1,0.2-0.2,0.2c0,0.2,0.5,0.3,0.3,0.3c-0.1,0.1-0.3,0.1-0.4,0c0,0.3-0.4,0.4-0.2,0.8
				c-0.1,0-0.1,0-0.2,0c-0.1,0.4-0.4,0.7-0.2,1.1c0.1-0.1,0.1,0,0.2,0.1c-0.2,0,0.1,0.1-0.1,0.1c-0.1,0-0.2-0.1-0.2-0.2
				c-0.1,0.2-0.3,0.5-0.1,0.7c0-0.1-0.1,0-0.1,0c0.2,0,0.2,0.2,0.1,0.3l-0.1,0l0.1,0.1c-0.1,0-0.3,0-0.2,0.1l0.1,0.1
				c-0.1,0.1-0.4,0.2-0.3,0.4l0.2,0.2c0,0.1-0.2,0.1-0.2,0c0.1,0.3,0,0.4,0.2,0.5c-0.5,0.3-0.6,0.9-0.6,1.4l0.1,0
				c0.1,0.1-0.2,0-0.1,0.1c0.1,0,0.2,0.1,0.3,0c0.1,0.2-0.2,0.2-0.2,0.3c-0.1,0,0.1-0.1-0.1-0.1c0,0,0.1,0.3-0.1,0.3
				c0.1,0.1,0.2,0,0.3,0l-0.1,0.1c0.2,0.1,0.4-0.3,0.7-0.1l0,0.1c0.2,0.1,0.3-0.2,0.3,0c-0.1,0.1-0.4,0.2-0.5,0.1
				c-0.1,0.2-0.5,0.1-0.5,0.3c0.1,0.1,0-0.2,0.2-0.1c0.2,0.1-0.1,0.2-0.1,0.3c-0.1-0.1-0.3,0-0.3,0c0.1,0.1,0.2-0.1,0.2,0.1
				c-0.1,0-0.2,0.2-0.3,0c-0.3,0,0.1,0.2-0.1,0.3c0.2,0.1,0.4-0.2,0.5,0c-0.2,0-0.2,0.2-0.5,0.1c0,0.1,0.2,0.1,0.3,0
				c0.1,0.1-0.3,0.2,0,0.3l-0.2,0l0.2,0.1c0,0.1-0.3,0.3,0,0.3c0,0,0,0.2-0.2,0.1c-0.1-0.1,0.2-0.1-0.1-0.2c0.2,0.1,0,0.2-0.1,0.3
				l0.1,0c0,0,0,0.1-0.1,0.2l0.2,0l-0.2,0c-0.1,0.2,0.3,0.1,0.2,0.2l0.1-0.1c0,0,0.1,0.1,0.1,0.2l-0.4,0.1c-0.1,0.1,0.2,0.1,0,0.1
				l0.2-0.1c0.1,0,0.2,0.1,0.2,0.2c-0.1,0.1-0.3,0.2-0.3,0.1c0,0.1,0.1,0.2,0.2,0.1c-0.1,0.1-0.2,0-0.3,0.1c0.1,0.1,0.2,0.2,0.3,0.4
				l0.3-0.1l0,0.1c0.2-0.1,0.1,0.1,0.4,0c0,0.1,0,0.1-0.1,0.2c-0.3-0.2-0.5,0.2-0.8,0.1c-0.1,0.2,0.7,0.2,0.2,0.4
				c-0.1,0-0.3,0.1-0.2-0.1c0,0.2-0.3,0.1-0.2,0.3c0.1-0.1,0.3,0.2,0.5,0c-0.1,0-0.1-0.1,0-0.1c0.1,0.1,0.3,0,0.3,0.2
				c0,0.1,0,0.2-0.2,0.2c-0.2,0,0-0.2-0.1-0.1c-0.1,0.2,0.2,0.2-0.1,0.3c0-0.1-0.1-0.2-0.3-0.2l-0.1,0.1l0.1,0
				c0.1,0.2-0.2,0.1-0.2,0.3l0.2,0.1c0.2,0-0.1-0.3,0.2-0.3c0,0.1-0.2,0.2-0.1,0.3l0.1-0.1c0,0.1,0.4,0.1,0.2,0.3
				c-0.1,0.1-0.1,0-0.2,0c-0.1,0.2-0.2,0.3-0.2,0.5c0.2,0,0,0.3,0.3,0.1c-0.1-0.1-0.1-0.4,0.1-0.5c0.3,0.1,0-0.2,0.3-0.2
				c0,0.2,0.3,0.2,0.4,0.2l-0.1,0.1c-0.2,0-0.2-0.1-0.3-0.1c0,0.2-0.1,0.4-0.2,0.5c0.1,0.1,0.2,0.1,0.3,0c-0.1,0.3,0,0.5,0,0.8
				c-0.3-0.2-0.1,0.3-0.3,0.2c-0.1-0.1-0.3-0.2-0.4-0.2c0,0.1,0.1,0,0.2,0c-0.1,0.1,0.2,0.2,0,0.3c0.1-0.2,0.3,0,0.5-0.1
				c-0.1,0.2,0.2,0,0.2,0.2c-0.1,0.2-0.2,0.4-0.2,0.6c0.2,0.2,0.1,0.6,0.1,0.8c0.1,0.1,0.3,0,0.4,0.1c0,0.1-0.3-0.1-0.1,0.1l0,0
				c0,0.1,0.3,0.3-0.1,0.5l0.2-0.1c0,0,0,0.1,0,0.1c0.1,0,0.2,0,0.2-0.1c0.2,0.1,0,0.3,0.1,0.4l-0.2,0c0,0.3,0.1,0.4,0.2,0.6
				l0.1-0.1l0,0.2c0.1-0.1,0.3,0,0.2,0.1l0.2-0.5c-0.1,0-0.1,0.2-0.3,0.2c-0.2,0-0.2-0.2-0.1-0.3c0,0.1,0,0.1,0,0.2
				c0.2-0.1,0.2-0.2,0.3-0.3c0,0,0.1,0.1,0,0.1c0.1-0.1,0.1-0.2,0-0.3c-0.1,0.1-0.1,0-0.2,0c0.2-0.1,0.2-0.2,0.1-0.3
				c-0.2-0.1,0.1-0.3,0-0.5c-0.2,0.1-0.3,0.2-0.3,0.3c-0.1-0.1,0-0.1-0.1-0.2c0.1-0.1,0.3-0.2,0.4-0.3l-0.1,0
				c0.1-0.1,0.3-0.2,0.2-0.3c-0.1-0.3-0.1-0.6-0.1-0.8l-0.1,0c0.3-0.1,0.1-0.4,0.2-0.6c-0.1-0.3,0.1-0.6-0.1-0.8
				c0.1-0.5,0.3-1,0.3-1.5l-0.2,0.1c0.2-0.1-0.1-0.1-0.1-0.2c0.2,0.1,0.2-0.1,0.3-0.2c-0.1-0.3,0.1-0.6,0.2-0.8l-0.1,0
				c0.3-0.2,0.1-0.5,0.1-0.8c-0.1,0-0.2-0.1-0.2-0.2c0.2-0.1,0.2-0.2,0.4-0.4c0-0.2,0-0.4-0.1-0.6c0.3-0.6,0.2-1.3,0.4-1.8l-0.2-0.1
				c0.4-0.5,0.2-1.3,0.5-1.7l-0.3,0c0-0.2,0.2-0.3,0.3-0.3c-0.1-0.2,0.2-0.3,0-0.5c0-0.2,0.2-0.2,0.2-0.3c0-0.3,0-0.4,0.2-0.7l0,0.1
				c-0.1,0-0.2,0-0.2-0.1c0.1-0.1,0.1-0.4,0.3-0.2c-0.1-0.4,0.4-0.6,0.2-1c0.1,0.1,0.1,0,0.2,0c0.1-0.2,0.1-0.6,0.3-0.7
				c0-0.1-0.2,0-0.1-0.1c0.1,0,0.1,0,0.2,0c0.3-0.3,0.2-0.9,0.5-1.2c0.5-0.5,0.9-1.1,1.3-1.5l0,0c0.3,0,0.2-0.6,0.6-0.3
				c0-0.1,0.1-0.1,0-0.2c0.2,0.1,0.3-0.4,0.6-0.3l-0.1,0c0.2-0.3-0.4,0.1,0.2-0.1l-0.1-0.1c0.1-0.1,0.2,0.3,0.3,0c0.1,0,0,0.2,0,0.2
				c0.6-0.1,1.3,0.3,1.9,0.5c0.5-0.1,0.2-0.5,0.5-0.2c0-0.1,0,0.1,0,0.1c0.1,0.1,0.3-0.3,0.4-0.1c-0.1,0.2,0,0.1,0,0.2
				c0.3,0,0.4-0.2,0.6,0l0-0.1c0.1,0.3,0.5,0.4,0.2,0.6c1,1,1.5,2,2.1,3.3c0.6,1.2,0.9,2.7,1.3,3.9c0.3,0.3,0.3,0.3,0.2,0.7l0.1,0
				c-0.2,0,0,0.3-0.2,0.3c0.1,0.5,0,1,0,1.6c0-0.1,0.2-0.1,0.2,0l-0.1,0.1l0.1,0c0,0.1-0.1,0.1-0.2,0.1c-0.2,1.4,0.2,2.8,0,4.2
				c0.1,0.3,0,0.8-0.1,1.2c0.2,1.1,0.4,2.1,0.2,3.2C155.5,266.8,156.1,266.7,156.3,266.2z"/>
		</g>
		<g>
			<path class="st7" d="M143,267.2c-0.1,0-0.2,0-0.3,0.1L143,267.2z"/>
		</g>
		<g>
			<path class="st7" d="M141.2,264.2C141.3,264.2,141.2,264.2,141.2,264.2c-0.1,0-0.2,0-0.1,0.1L141.2,264.2z"/>
		</g>
		<g>
			<path class="st7" d="M141.2,263.3c-0.1,0-0.2,0.2-0.2,0.3L141.2,263.3z"/>
		</g>
		<g>
			<path class="st7" d="M140.8,262.5c-0.1-0.1-0.1-0.1-0.1,0L140.8,262.5z"/>
		</g>
		<g>
			<path class="st7" d="M141,262.5l-0.1-0.1C141,262.3,140.9,262.5,141,262.5z"/>
		</g>
		<g>
			<path class="st7" d="M140.9,260.7c0,0,0.1-0.1,0-0.2C141,260.5,140.7,260.7,140.9,260.7z"/>
		</g>
		<g>
			<path class="st7" d="M141.1,259.9L141.1,259.9c0-0.1-0.1-0.1-0.1,0L141.1,259.9z"/>
		</g>
		<g>
			<polygon class="st7" points="146.8,246 146.7,246 146.7,246.1 			"/>
		</g>
		<g>
			<path class="st7" d="M153.7,247.3c0,0.1,0.1,0,0.1,0C153.7,247.2,153.7,247.4,153.7,247.3z"/>
		</g>
		<g>
			<polygon class="st7" points="155.4,250.5 155.4,250.5 155.2,250.6 			"/>
		</g>
	</g>
	<g>
		<g>
			<path class="st7" d="M180.5,263.8c0-0.2,0.2,0.1,0.1-0.1C180.5,263.7,180.5,263.8,180.5,263.8z"/>
		</g>
		<g>
			<path class="st7" d="M193.1,265.6c0.5-0.5,0-1.3,0.4-1.9c0-0.1-0.3,0-0.2-0.1c0.4-0.6,0.1-1.5-0.3-2.2l-0.1,0.1
				c-0.1-0.1,0.2-0.3,0.1-0.5l-0.1,0c0.2-0.1,0-0.3,0.2-0.3l-0.3-0.1l0.2-0.1c0.4-0.3-0.1-0.6,0.1-0.9l-0.1,0
				c0.2-0.5,0.1-1.2,0.2-1.7l-0.3,0c0.2,0,0.2-0.2,0.2-0.4c-0.2,0,0.1-0.3,0-0.4l0,0c0.2-0.2-0.1-0.2,0.1-0.3l-0.2-0.1
				c0.3-0.1-0.2-0.2,0-0.3l0.1,0c0.1-0.1-0.1-0.1-0.1-0.2l0,0c0-0.2-0.1-0.3,0.1-0.4c-0.2-0.1,0,0.2-0.3,0.1c0.1-0.8,0-1.5-0.2-2.2
				l-0.2-0.1c0-0.1,0-0.3,0.1-0.4c0,0-0.1,0-0.1-0.1c-0.1-0.1,0.2-0.2,0.1-0.3l-0.2,0.1c0.1-0.2,0.1-0.3,0.1-0.5l-0.1,0.1
				c0.1-0.2-0.1-0.3,0-0.4l-0.1,0.1c-0.2-0.2,0.2-0.1,0.1-0.3l-0.1,0.1c0.2-0.2,0-0.5,0-0.7l0,0c0-0.2-0.2-0.4-0.1-0.6
				c-0.1-0.1-0.3,0.1-0.3-0.1c0.2-0.1,0-0.4,0.3-0.4c-0.1-0.2-0.3-0.4-0.3-0.5c-0.1,0.1-0.3,0-0.3,0.2l-0.2,0
				c-0.1,0.1,0.1,0.1-0.1,0.1c0-0.1,0-0.3-0.1-0.4c0.1-0.2,0.3-0.4,0.2-0.7c0,0.1-0.3,0.1-0.3,0.2l0.3-0.5c0-0.1-0.2,0.1-0.2-0.1
				l0.1-0.2c0,0-0.1-0.3-0.4-0.2c-0.1,0,0,0.1-0.1,0.1c-0.1-0.1,0-0.2-0.1-0.3l0,0c-0.1-0.1-0.1-0.3,0.1-0.3c0,0.1-0.1,0.1,0,0.1
				c0.1-0.1,0-0.3-0.1-0.4l-0.1,0.2c0-0.3-0.1-0.5-0.1-0.7c0.1-0.1-0.1,0.2,0,0.2c-0.3-0.1-0.2-0.6-0.6-0.6c0,0,0.1-0.1,0.1-0.1
				c-0.1-0.1-0.2,0.1-0.3,0c-0.1,0.1-0.1-0.1-0.1-0.2c0-0.1,0,0,0,0.1c-0.1-0.1-0.4-0.6-0.8-0.6c0-0.1-0.1-0.3-0.2-0.3l0,0.2
				c-0.1,0.1-0.2-0.1-0.3,0.1c-0.1-0.2,0.5,0.3,0.4,0.1c-0.1,0.1-0.2-0.3-0.2-0.1c-0.1,0-0.2-0.2-0.4-0.1c0,0,0.1,0.2-0.1,0.2
				c-0.2-0.1,0-0.1-0.2-0.2l-0.1-0.1c0-0.1-0.2,0-0.1-0.2c0,0.1-0.3-0.1-0.3,0.1l0,0.2c-0.1,0-0.1-0.2-0.2-0.3l0,0.1
				c0-0.3-0.2,0-0.3-0.3c-0.2,0.1-0.5,0.1-0.6,0.3c-0.2-0.1-0.3-0.2-0.5-0.1l0.1,0.1c-0.1,0.1-0.1,0-0.2,0c0,0-0.2,0.2-0.2,0.4
				c-0.2,0-0.2-0.2-0.2-0.3c0,0.3-0.5,0-0.5,0.3c0.1,0,0.3,0,0.2,0.2c0,0.3-0.4-0.1-0.5,0.1l-0.1-0.2c0,0.2-0.3,0.1-0.2,0.3
				c-0.1,0-0.1,0.2-0.3,0c-0.1,0.4-0.8,0.5-0.6,1c-0.1,0-0.1,0.1-0.2,0c-0.1-0.1,0.1,0,0.1-0.1l-0.1,0c0,0.1-0.1,0.2,0.2,0.2
				c0,0.3-0.5,0-0.6,0.3c0.1,0,0.1,0.1,0,0.1l-0.2,0.1c-0.1,0.2,0.1,0.2,0.3,0.3c-0.1,0.1-0.1,0.2-0.3,0.2l0.1,0.2
				c-0.1-0.1-0.1,0-0.2,0.1l0.1,0c0.1,0,0,0.1-0.1,0.2c-0.1-0.1-0.1-0.2-0.1-0.3l-0.2,0.1c0.2,0.1,0,0.2,0,0.3c0,0.1-0.2,0-0.2,0.1
				c0.1,0-0.1,0.1,0.1,0.1c0,0,0-0.1,0-0.1c0,0.1,0.2,0.1,0,0.2c-0.1,0.1-0.3-0.1-0.3,0.1l0.2,0l0,0.2l-0.1,0l0.1,0
				c-0.2,0-0.1,0.2-0.3,0.2c0,0.1,0,0.2,0,0.3l0,0c0.1,0.1,0,0.2-0.2,0.3l0,0c0,0.1-0.1,0.2-0.2,0.2c0.1,0.2,0.5,0.2,0.3,0.3
				c0,0.1-0.3,0.1-0.4,0.1c0,0.3-0.3,0.5-0.1,0.7c-0.1,0-0.1,0-0.2,0.1c0,0.4-0.3,0.7-0.1,1c0.1-0.1,0.2,0,0.2,0
				c-0.1,0.1,0.1,0.1-0.1,0.1c-0.1,0-0.2,0-0.2-0.1c-0.1,0.2-0.1,0.5,0,0.6c-0.1-0.1-0.1,0-0.1,0c0.2,0,0.2,0.2,0.1,0.3l-0.1,0
				l0.1,0.1c0,0-0.3,0-0.2,0.1l0.1,0.1c-0.1,0.1-0.3,0.3-0.2,0.4l0.2,0.1c0,0.1-0.1,0.1-0.2,0c0.1,0.2,0.1,0.4,0.3,0.5
				c-0.4,0.3-0.5,0.9-0.5,1.3l0.1,0c0.1,0.1-0.2,0.1-0.1,0.1c0.1,0,0.2,0.1,0.3,0c0.1,0.2-0.2,0.2-0.2,0.3c-0.1,0,0.1-0.1-0.1-0.1
				c0,0,0.1,0.2-0.1,0.3c0.1,0,0.2,0,0.3,0l-0.1,0.1c0.2,0.1,0.4-0.3,0.7-0.1l0,0.1c0.2,0.1,0.2-0.2,0.3,0c-0.1,0.1-0.4,0.2-0.5,0.1
				c-0.1,0.2-0.5,0.1-0.5,0.3c0.1,0.1,0-0.2,0.2-0.1c0.2,0.1-0.1,0.2-0.1,0.3c-0.1-0.1-0.3,0-0.3,0c0.1,0.1,0.2-0.1,0.2,0.1
				c-0.1,0-0.2,0.2-0.3,0c-0.3,0.1,0.1,0.2-0.1,0.3c0.2,0.1,0.4-0.2,0.5,0c-0.2,0-0.2,0.2-0.5,0.1c0,0.1,0.2,0.1,0.3,0
				c0.1,0.1-0.3,0.2,0,0.3l-0.2,0l0.2,0.1c0,0.1-0.3,0.3,0,0.3c0,0,0,0.2-0.2,0.2c-0.1-0.1,0.1-0.1-0.1-0.2c0.2,0.1,0,0.2-0.1,0.3
				l0.1,0c0,0,0,0.1-0.1,0.2l0.2,0l-0.2,0c-0.1,0.2,0.3,0,0.2,0.2l0.1-0.1c0,0,0.1,0.1,0.1,0.2l-0.4,0.1c-0.1,0.1,0.2,0,0,0.1
				l0.2-0.1c0,0,0.2,0.1,0.2,0.2c-0.1,0.1-0.3,0.2-0.3,0.1c0,0.1,0.1,0.2,0.2,0.1c-0.1,0.1-0.2,0-0.2,0.1c0.1,0.1,0.2,0.2,0.4,0.3
				l0.2-0.1l0,0.1c0.2-0.1,0.1,0.1,0.4,0c0,0.1,0,0.1-0.1,0.2c-0.3-0.2-0.4,0.2-0.7,0.2c-0.1,0.2,0.7,0.1,0.3,0.4
				c-0.1,0-0.3,0.1-0.2-0.1c0,0.2-0.3,0.1-0.2,0.3c0.1-0.1,0.3,0.1,0.5-0.1c-0.1,0-0.1-0.1-0.1-0.1c0.1,0.1,0.3,0,0.3,0.1
				c0,0.1,0,0.2-0.2,0.2c-0.2,0,0-0.1-0.2-0.1c-0.1,0.2,0.2,0.2-0.1,0.3c0-0.1-0.2-0.1-0.3-0.1l-0.1,0.1l0.1,0
				c0.1,0.2-0.2,0.1-0.2,0.3l0.2,0.1c0.2-0.1-0.1-0.3,0.2-0.3c0,0.1-0.1,0.2-0.1,0.3l0.1-0.1c0,0,0.4,0.1,0.2,0.3
				c-0.1,0.1-0.1,0-0.2,0c0,0.2-0.1,0.3-0.2,0.4c0.2,0,0,0.3,0.3,0.1c-0.1-0.1-0.1-0.4,0.1-0.5c0.3,0.1,0-0.2,0.2-0.2
				c0,0.2,0.3,0.2,0.5,0.2l-0.1,0.1c-0.2,0-0.2,0-0.3,0c0.1,0.2,0,0.4-0.2,0.5c0.1,0.1,0.2,0,0.3,0c0,0.2,0,0.5,0,0.7
				c-0.3-0.1-0.1,0.3-0.3,0.2c-0.1-0.1-0.3-0.2-0.4-0.1c0,0.1,0.1,0,0.2,0c-0.1,0.1,0.2,0.1,0,0.2c0.1-0.2,0.3,0,0.5-0.1
				c-0.1,0.2,0.2,0,0.2,0.1l-0.2,0.5c0.2,0.2,0,0.5,0,0.7c0.1,0.1,0.3,0,0.4,0.1c0,0.1-0.3-0.1-0.1,0.1l0,0c0.4,0-0.8,0.4,0.8,0.3
				c-0.3,0,0.2,0.1-0.7,0c0.8,0,0.3-0.1,0.5-0.1c-0.1,0-0.2,0-0.2,0c-0.2-0.1,0-0.2,0-0.4l0.2,0.1c0.1-0.2,0-0.4,0-0.6l-0.2,0
				l0.1-0.1c-0.1,0-0.2-0.1-0.1-0.2l-0.4,0.3c0.1,0.1,0.2-0.1,0.3,0c0.1,0.1,0.1,0.2-0.1,0.3l0.1-0.1c-0.2,0-0.2,0.1-0.3,0.1
				c0,0-0.1-0.1,0-0.1c-0.1,0.1-0.1,0.2-0.1,0.3c0.1-0.1,0.1,0,0.2,0c-0.2,0-0.2,0.1-0.2,0.3c0.4,0-0.7,0.2,0.8,0.1
				c0.1-0.1,0.1-0.2,0.1-0.3c-0.2,0.1-0.3,0.2-0.4,0.3c-0.1-0.1,0-0.1-0.1-0.2c0.1-0.1,0.4-0.1,0.4-0.2l-0.1,0
				c0.1-0.1,0.3-0.1,0.2-0.3c-0.1-0.3-0.1-0.6-0.1-0.8l-0.1,0c0.3-0.1,0.1-0.4,0.2-0.6c-0.1-0.3,0.1-0.6-0.1-0.8
				c0.1-0.5,0.2-1,0.1-1.5l-0.2,0.1c0.1-0.1-0.1-0.1-0.1-0.2c0.2,0.1,0.2-0.1,0.3-0.2c-0.2-0.2,0-0.5,0.2-0.7l-0.1,0
				c0.3-0.2,0-0.5,0-0.7c-0.1,0-0.2-0.1-0.2-0.2c0.2-0.1,0.2-0.2,0.4-0.4c0-0.2,0-0.4-0.1-0.6c0.3-0.6,0.1-1.2,0.4-1.7l-0.2-0.1
				c0.4-0.6,0.1-1.3,0.3-1.7l-0.3,0c-0.1-0.2,0.1-0.3,0.3-0.3c-0.1-0.2,0.2-0.4,0-0.5c0-0.2,0.2-0.2,0.2-0.3c-0.1-0.3,0-0.4,0.1-0.7
				l0,0.1c-0.1,0-0.2,0-0.2-0.1c0.1-0.1,0-0.4,0.3-0.2c-0.1-0.3,0.3-0.7,0.1-1c0.1,0,0.1,0,0.2,0c0-0.3-0.1-0.6,0.2-0.7
				c0-0.1-0.2,0-0.1-0.1c0.1,0,0.1,0,0.2,0c0.3-0.3,0.1-0.9,0.3-1.2c0.4-0.6,0.7-1.1,1-1.5l-0.1,0c0.3,0.1,0.1-0.5,0.5-0.3
				c0-0.1,0.1-0.1,0-0.2c0.2,0,0.3-0.3,0.5-0.2l-0.1,0c0.1-0.2,0.3-0.1,0.5-0.3l-0.1-0.1c0.1-0.1,0.3,0.3,0.2-0.1c0,0,0.1,0.2,0,0.1
				c0.5-0.3,1,0.2,1.4,0.3c0.4-0.1,0.2-0.5,0.4-0.2c0,0,0,0.1,0,0.1c0.1,0.2,0.3-0.2,0.3,0c-0.1,0.2,0,0.1-0.1,0.2
				c0.3,0,0.4-0.1,0.5,0.1l0-0.1c0,0.4,0.3,0.4,0.2,0.8c0.7,1,1.2,2.2,1.5,3.5c0.5,1.2,0.6,2.6,1,3.9c0.3,0.3,0.3,0.3,0.3,0.7l0.1,0
				c-0.2,0.1,0,0.3-0.2,0.3c0.1,0.4,0.1,1.2,0.2,1.4c0,0.2,0.2,0.1,0.2,0l-0.1,0.1l0.1,0c0,0.1-0.1,0.2-0.2,0.1
				c-0.1,1.7,0.6,2.9,0.6,4.2c0.1,0.3,0.1,0.8,0,1.1c0.3,1,0.5,1.9,0.3,2.9C192.4,266.1,193,266,193.1,265.6z"/>
		</g>
		<g>
			<path class="st7" d="M180.5,264c0.1,0,0.2,0.2,0.3,0.1L180.5,264z"/>
		</g>
		<g>
			<path class="st7" d="M180.1,263.6C180.1,263.6,180.1,263.5,180.1,263.6c-0.1,0-0.2,0-0.1,0.1L180.1,263.6z"/>
		</g>
		<g>
			<path class="st7" d="M180,262.8c-0.1,0-0.2,0.2-0.2,0.3L180,262.8z"/>
		</g>
		<g>
			<path class="st7" d="M179.6,262c-0.1-0.1-0.1,0-0.1,0L179.6,262z"/>
		</g>
		<g>
			<path class="st7" d="M179.8,261.9l-0.1-0.1C179.8,261.8,179.7,262,179.8,261.9z"/>
		</g>
		<g>
			<path class="st7" d="M179.5,260.2c0,0,0.1-0.1,0-0.2C179.6,260.1,179.4,260.3,179.5,260.2z"/>
		</g>
		<g>
			<path class="st7" d="M179.7,259.4L179.7,259.4c0-0.1-0.1-0.1-0.1,0L179.7,259.4z"/>
		</g>
		<g>
			<polygon class="st7" points="184,245.6 183.8,245.6 183.9,245.7 			"/>
		</g>
		<g>
			<path class="st7" d="M190.4,247.1c0,0.1,0.1,0,0.1,0C190.5,247,190.5,247.2,190.4,247.1z"/>
		</g>
		<g>
			<polygon class="st7" points="191.7,250.4 191.7,250.4 191.5,250.5 			"/>
		</g>
	</g>
</g>
<g>
	<polygon class="st5" points="319.9,243.1 434.9,129.5 436.3,130.9 322.7,247.1 	"/>
</g>
<g>
	<g>
		<path class="st4" d="M321.4,240.5c0,0,0.1-0.1,0.1-0.2C321.3,240.5,321.2,240.7,321.4,240.5z"/>
	</g>
	<g>
		<g>
			<path class="st8" d="M321.4,240.5c0,0,0.1-0.1,0.1-0.2C321.3,240.5,321.2,240.7,321.4,240.5z"/>
		</g>
		<g id="XMLID_1_">
			<g>
				<path class="st4" d="M325.1,243.9c0.3-0.2,2.1-1.4,3-0.5c1,1-0.1,2.6-0.1,2.6s-28.5,35.7-100,55l-3.8-16
					c18.6-4.9,53.9-17.3,95.6-47.1c0,0,1.4-1.1,2.2,0c0,0,0,1.8-0.4,2.5c-0.2,0.2-0.3,0.4-0.1,0.2c0,0,0.1-0.1,0.1-0.2
					c0.5-0.5,1.5-1.4,2.1-0.9c0.8,0.8-0.3,2.9-0.3,2.9s1.8-1.6,2.6-0.6C326.6,242.7,325.4,243.7,325.1,243.9z"/>
			</g>
		</g>
	</g>
</g>
<g>
	<g>
		<g>
			<path class="st4" d="M4.1,179.5C3.3,177,8.3,177,8.3,177c6.8-0.1,13.1,3,13.1,3s3.2-5.3,6.3-2.9c3.2,2.4-2.4,7.1-2.4,7.1
				c5.8,24.8,10,59.9,38.4,103.3l-13.1,9.2c-32.3-48.4-34.1-100.4-36-106.3c0,0-10.1,2.2-10.4-0.9c-0.2-1.6,4-1.6,4.6-1.6
				c0.1,0,0.1,0,0.1,0s0,0-0.1,0c-0.6,0-4.5-0.1-4.7-1.9c-0.2-1.6,3.1-1.6,4.1-1.5c0.2,0,0.3,0,0.3,0s-0.1,0-0.3,0
				c-1-0.1-4.1-0.5-4.1-1.9c0-1.6,3.8-1.9,4.3-1.9c0,0,0.1,0,0.1,0s0,0-0.1,0C7.9,180.6,4.5,180.8,4.1,179.5z"/>
		</g>
	</g>
</g>
<g>
	<path class="st9" d="M228,300.9l-3.8-16c-9,2.4-14.1,3-14.1,3l0,0.4l0-0.4c-7.4,2.2-64.1,16.1-136.4,12c-4.9-5-9.9-12.6-9.9-12.6
		l-13.1,9.2c0,0,8,12.6,16.5,23.3l10.2,66.3c74.4,10.2,126.7-0.3,126.7-0.3c5-28.9,7.2-53.4,7.1-74.1l-0.3-5.4
		C216.8,305.2,222.5,302.4,228,300.9z"/>
</g>
<g>
	<g>
		<path class="st10" d="M157.8,335.6c1.9,4.4,4.2,8.3,6.5,10.9c1.3-0.8,2.7-1.5,4.2-2.1c1.5-0.7,3-1.2,4.5-1.6
			c-0.4-3.5-1.6-7.8-3.6-12.2c-4.2-9.7-12-15.6-13.4-15C154.6,316.2,153.6,325.9,157.8,335.6z M158.3,326.7c-0.5-1.2,0-2.6,1.2-3.1
			c1.2-0.5,2.6,0,3.1,1.2c0.5,1.2,0,2.6-1.2,3.1C160.2,328.5,158.8,327.9,158.3,326.7z"/>
		<path class="st11" d="M164.3,346.6c1.3-0.8,2.7-1.5,4.2-2.1l-7.2-16.5l0,0c-1.2,0.5-2.6,0-3.1-1.2c-0.5-1.2,0-2.6,1.2-3.1l0,0
			l-3.5-8l0,0c-1.4,0.6-2.4,10.4,1.8,20C159.7,340.1,162.1,343.9,164.3,346.6z"/>
		<path class="st12" d="M167.5,348.1c0,0.1,0.1,0.1,0.1,0.2c0.8,1.8,3.6,2.3,3.6,2.3s1.6-2.4,0.8-4.2c0-0.1-0.1-0.1-0.1-0.2
			c0-0.1,0-0.1-0.1-0.1c-0.1-0.2-0.2-0.4-0.4-0.6c0,0,0,0,0-0.1l0,0c-0.7-0.8-1.8-1-2.7-0.6c-1,0.4-1.5,1.4-1.4,2.4l0,0
			c0,0,0,0,0,0.1c0,0.2,0.1,0.4,0.2,0.6C167.5,347.9,167.5,348,167.5,348.1z"/>
		<path class="st13" d="M154.9,323.7l7.8-3.4c-3.1-3.3-5.9-5-6.7-4.7S154.5,319.2,154.9,323.7z"/>
		<path class="st13" d="M173.7,342.5c2.6-0.7,4.9-1.1,7-1l-1.6-3.7l-7.4-3.4C172.7,337.3,173.4,340.1,173.7,342.5z"/>
		<path class="st13" d="M159.1,340.1l-2.6,7.5c1,0.8,1.8,1.8,2.4,2.9c1.2-1.2,2.8-2.4,4.7-3.5C162.1,345.1,160.5,342.7,159.1,340.1z
			"/>
	</g>
	<g>
		<path class="st14" d="M173.3,356.9c0.3,1.7,0.5,3.5,0.1,5.3c-0.2,0.9-0.5,1.7-1,2.5c-0.5,0.8-1.1,1.4-1.8,1.9
			c-1.5,1-3.3,1.4-5,1.6c-0.9,0.1-1.8,0.1-2.6,0.1c-0.9-0.1-1.8-0.1-2.6-0.2c-1.7-0.2-3.5-0.6-5.2-1c-1.7-0.4-3.4-0.9-5-1.5
			c-1.7-0.6-3.3-1.2-4.9-1.8c3.3,1.2,6.6,2.3,10,3.1c1.7,0.4,3.4,0.8,5.2,1c0.9,0.1,1.7,0.2,2.6,0.2c0.9,0,1.7,0,2.6-0.1
			c1.7-0.2,3.5-0.6,4.9-1.6c0.7-0.5,1.3-1.1,1.8-1.9c0.5-0.8,0.8-1.6,1-2.4c0.4-1.7,0.3-3.5-0.1-5.2c-0.3-1.7-0.8-3.4-1.5-5
			C172.4,353.5,172.9,355.2,173.3,356.9z"/>
	</g>
	<g>
		<path class="st14" d="M172,356.9c0.3,1.5,0.3,3.1,0,4.6c-0.2,0.8-0.4,1.5-0.9,2.2c-0.4,0.7-1,1.3-1.6,1.7s-1.3,0.8-2.1,1
			c-0.4,0.2-0.8,0.2-1.1,0.3c-0.4,0.1-0.8,0.1-1.1,0.2l0.6-0.1c0.2,0,0.4-0.1,0.6-0.1c0.4-0.1,0.8-0.2,1.1-0.3
			c0.7-0.2,1.4-0.6,2-1.1c0.6-0.5,1.1-1,1.5-1.7s0.7-1.4,0.8-2.1c0.2-0.8,0.2-1.5,0.2-2.3c0-0.8-0.1-1.5-0.2-2.3s-0.3-1.5-0.5-2.3
			c-0.2-0.8-0.4-1.5-0.7-2.2C171.4,353.8,171.8,355.3,172,356.9z"/>
	</g>
	<circle class="st15" cx="160.4" cy="325.8" r="2.4"/>
	<circle class="st16" cx="160.4" cy="325.8" r="2.4"/>
</g>
</svg>
