<?xml version="1.0" encoding="utf-8"?>
<!-- Generator: Adobe Illustrator 22.0.1, SVG Export Plug-In . SVG Version: 6.00 Build 0)  -->
<svg version="1.1" id="Layer_1" xmlns="http://www.w3.org/2000/svg" xmlns:xlink="http://www.w3.org/1999/xlink" x="0px" y="0px"
	 viewBox="0 0 609.4 190.5" style="enable-background:new 0 0 609.4 190.5;" xml:space="preserve">
<style type="text/css">
	.st0{fill:#FFFFFF;}
	.st1{fill:#CFD1D2;}
	.st2{fill:#E9571E;}
	.st3{fill:#E73E4A;}
	.st4{fill:none;stroke:#E84443;stroke-miterlimit:10;}
	.st5{fill:#F29129;}
	.st6{fill:#FFFFFF;stroke:#E84443;stroke-width:0.9045;stroke-miterlimit:10;}
	.st7{opacity:0.1;fill:#213565;}
</style>
<g>
	<g>
		<g>
			<path class="st0" d="M153.7,146.1l-5.2,16.6c-9-0.7-14.9-3-18.9-9.7c-5.1,7.7-13.1,10.2-21.1,10.2c-14,0-23.1-9.3-23.1-22.3
				c0-15.5,11.8-24,33.8-24h5v-1.7c0-7.1-2.4-8.9-10.1-8.9c-4.1,0-11.1,1.3-18.1,3.7l-5.6-16.5c8.8-3.5,19.7-5.5,27.6-5.5
				c22.3,0,31.4,8.5,31.4,25.8v24.1C149.5,142.9,150.6,144.9,153.7,146.1z M124.2,140.8v-10.4h-2.8c-7.3,0-10.7,2.5-10.7,8
				c0,3.9,2.2,6.6,5.8,6.6C119.8,145,122.5,143.2,124.2,140.8z"/>
			<path class="st0" d="M225.6,160.6h-23.1l-0.9-7.2c-3.7,4.8-9.7,9.8-19.8,9.8c-18.2,0-26.6-14.9-26.6-38
				c0-21.7,11.3-37.2,29.9-37.2c5.2,0,10.6,2,14.5,5.5v-33l25.9,2.6V160.6z M199.7,138.5v-28c-2.4-2.5-4.5-3.9-7.6-3.9
				c-5.8,0-10.2,4.8-10.2,19c0,16.8,4.1,19.1,9,19.1C194.2,144.6,197.2,142.8,199.7,138.5z"/>
			<path class="st0" d="M258.8,141.5h29.6l-2.2,19.1h-57.6v-18.1l29.1-33h-26.5V90.6h56.3v17.9L258.8,141.5z"/>
			<path class="st0" d="M360.7,125.8c0,22.8-13.8,37.5-36,37.5c-22,0-36-13.4-36-37.7c0-22.8,13.8-37.5,36-37.5
				C346.7,88,360.7,101.4,360.7,125.8z M315.2,125.5c0,13.9,2.9,19.1,9.4,19.1c6.5,0,9.4-5.6,9.4-18.9c0-13.9-2.9-19.1-9.4-19.1
				C318.1,106.6,315.2,112.3,315.2,125.5z"/>
			<path class="st0" d="M433.9,125.8c0,22.8-13.8,37.5-36,37.5c-22,0-36-13.4-36-37.7c0-22.8,13.8-37.5,36-37.5
				C419.9,88,433.9,101.4,433.9,125.8z M388.4,125.5c0,13.9,2.9,19.1,9.4,19.1c6.6,0,9.4-5.6,9.4-18.9c0-13.9-2.9-19.1-9.4-19.1
				C391.3,106.6,388.4,112.3,388.4,125.5z"/>
			<path class="st0" d="M537.6,109v51.6h-25.9v-46.9c0-5.5-1.6-6.8-3.5-6.8c-2.5,0-5.1,2.2-7.2,6.9v46.8H475v-46.9
				c0-5.5-1.6-6.8-3.5-6.8c-2.5,0-5.1,2.2-7.2,6.9v46.8h-25.9v-70H461l1.8,7.1c5.6-6.8,11.9-9.7,20.3-9.7c7.2,0,13,3.5,15.7,10.1
				c5.9-7.1,12.3-10.1,21-10.1C530.3,88,537.6,95.6,537.6,109z"/>
			<path class="st0" d="M609.4,146.1l-5.2,16.6c-9-0.7-14.9-3-18.9-9.7c-5.1,7.7-13.1,10.2-21.1,10.2c-14,0-23.1-9.3-23.1-22.3
				c0-15.5,11.8-24,33.8-24h5v-1.7c0-7.1-2.4-8.9-10.1-8.9c-4.1,0-11.1,1.3-18.1,3.7l-5.6-16.5c8.8-3.5,19.7-5.5,27.6-5.5
				c22.3,0,31.4,8.5,31.4,25.8v24.1C605.2,142.9,606.3,144.9,609.4,146.1z M579.9,140.8v-10.4h-2.8c-7.3,0-10.7,2.5-10.7,8
				c0,3.9,2.2,6.6,5.8,6.6C575.5,145,578.2,143.2,579.9,140.8z"/>
		</g>
		<g>
			<path class="st0" d="M89.2,0.2c-5.2-2.3-33.3,19.1-48.4,54c-7,16.1-11.4,31.6-12.9,44.2c5.2,1.5,10.7,3.5,16.1,5.9
				c5.5,2.4,10.6,5,15.3,7.8c8.1-9.7,16.5-23.5,23.5-39.6C97.9,37.5,94.4,2.4,89.2,0.2z M81.1,40.3c-1.9,4.4-7,6.3-11.3,4.5
				c-4.4-1.9-6.3-7-4.5-11.3c1.9-4.4,7-6.3,11.3-4.5C81,30.9,83,35.9,81.1,40.3z"/>
			<path class="st1" d="M89.2,0.2L76.7,29l0,0c4.4,1.9,6.3,7,4.5,11.3c-1.9,4.4-7,6.3-11.3,4.5l-25.9,59.5c5.5,2.4,10.6,5,15.3,7.8
				c8.1-9.7,16.5-23.5,23.5-39.6C97.9,37.5,94.4,2.4,89.2,0.2z"/>
			<path class="st2" d="M47.8,116.8c0.3-0.8,0.5-1.6,0.6-2.4c0-0.1,0-0.1,0-0.2c0,0,0,0,0,0c0.4-3.6-1.6-7.2-5.1-8.7
				c-3.5-1.5-7.5-0.5-9.9,2.2c0,0,0,0,0,0c0,0.1-0.1,0.1-0.1,0.2c-0.5,0.6-1,1.3-1.3,2.1c-0.1,0.2-0.1,0.3-0.2,0.5
				c-0.1,0.2-0.2,0.4-0.3,0.6c-2.8,6.4,2.8,15,2.8,15s10.1-1.8,12.9-8.2c0.1-0.2,0.2-0.4,0.2-0.6C47.7,117.1,47.8,117,47.8,116.8z"
				/>
			<path class="st3" d="M61.7,113.3c6.6,4.1,12.3,8.4,16.8,12.8c2-4.1,4.9-7.6,8.7-10.5L78,88.5C72.9,98,67.4,106.5,61.7,113.3z"/>
			<path class="st3" d="M32.4,68L5.8,80.2L0,93.6c7.3-0.1,15.9,1.1,25.1,3.7C26.3,88.5,28.8,78.4,32.4,68z"/>
			<path class="st3" d="M89.2,0.2C86.2-1.1,76,5.1,65,17.1l28.3,12.3C94.5,13.2,92.1,1.4,89.2,0.2z"/>
			<circle class="st4" cx="73.2" cy="36.8" r="8.6"/>
		</g>
		<g>
			<path class="st5" d="M32.7,131.4c-2.5,5.8-4.3,12-5.4,18.2c-1.1,6.2-1.5,12.6-0.2,18.8c0.6,3.1,1.8,6,3.4,8.7
				c1.7,2.6,3.9,4.9,6.4,6.7c5.2,3.5,11.5,5.1,17.7,5.7c3.1,0.3,6.3,0.3,9.4,0.2c3.2-0.2,6.3-0.4,9.4-0.8c6.3-0.8,12.5-2.1,18.6-3.5
				c12.3-3,24.4-6.9,36.3-11.2c-5.9,2.3-11.9,4.5-17.9,6.5c-6,2-12.1,3.8-18.3,5.4c-6.2,1.6-12.4,2.8-18.7,3.7
				c-3.2,0.4-6.3,0.7-9.5,0.9c-3.2,0.1-6.4,0.1-9.6-0.2c-6.3-0.6-12.8-2.2-18.1-5.9c-2.7-1.8-4.9-4.2-6.6-7c-1.7-2.8-2.8-5.8-3.4-9
				c-1.3-6.3-0.8-12.8,0.4-19C28.1,143.2,30.1,137.2,32.7,131.4z"/>
		</g>
		<g>
			<path class="st5" d="M36,133.1c-1,2.6-1.8,5.3-2.4,8c-0.7,2.7-1.3,5.4-1.6,8.2c-0.4,2.7-0.6,5.5-0.6,8.3c0,2.8,0.3,5.5,0.9,8.2
				c0.6,2.7,1.5,5.3,2.9,7.6c1.4,2.4,3.3,4.4,5.5,6c2.2,1.6,4.7,3,7.3,3.8c1.3,0.5,2.6,0.8,4,1.2c0.7,0.2,1.4,0.3,2,0.4l2.1,0.4
				c-1.4-0.2-2.8-0.3-4.1-0.5c-1.4-0.3-2.8-0.5-4.1-1c-2.7-0.8-5.3-2-7.6-3.7c-2.3-1.6-4.3-3.7-5.8-6.2c-1.5-2.4-2.5-5.1-3.1-7.9
				c-1.2-5.5-1-11.3,0-16.8C32.2,143.6,33.8,138.2,36,133.1z"/>
		</g>
	</g>
	<circle class="st6" cx="73.2" cy="36.8" r="8.6"/>
	<path class="st7" d="M80.8,32.9c-6.3,0.2-11.7,4.3-13.7,9.9c1.6,1.6,3.7,2.5,6.1,2.5c4.7,0,8.6-3.8,8.6-8.6
		C81.8,35.4,81.4,34.1,80.8,32.9z"/>
</g>
</svg>
