<svg xmlns="http://www.w3.org/2000/svg" viewBox="0 0 114 114"><defs><style>.cls-1{fill:#0275d8;}.cls-2{opacity:0.1;}.cls-3{fill:#fff;}</style></defs><title>Asset 1</title><g id="Layer_2" data-name="Layer 2"><g id="Layer_1-2" data-name="Layer 1"><path class="cls-1" d="M82.36,76.84l1.26-42.11,30.17,17.42a57,57,0,1,0-32.58,56.46l-51.92-30Z"/><path class="cls-1" d="M114,57c0-1.63-.07-3.25-.21-4.85L83.62,34.73,82.36,76.84l-53.07,1.8,51.92,30A57,57,0,0,0,114,57Z"/><path class="cls-2" d="M114,57c0-1.63-.07-3.25-.21-4.85L83.62,34.73,82.36,76.84l-53.07,1.8,51.92,30A57,57,0,0,0,114,57Z"/><path class="cls-3" d="M80.35,33.65H33.65a5.83,5.83,0,0,0-5.81,5.84l0,35a5.85,5.85,0,0,0,5.84,5.84h46.7a5.85,5.85,0,0,0,5.84-5.84v-35A5.85,5.85,0,0,0,80.35,33.65ZM65.76,74.51H33.65V62.84H65.76Zm0-14.59H33.65V48.24H65.76ZM80.35,74.51H68.68V48.24H80.35Z"/></g></g></svg>