<svg xmlns="http://www.w3.org/2000/svg" viewBox="0 0 112.22 112.22"><defs><style>.cls-1{fill:#00c851;}.cls-2{opacity:0.1;}.cls-3{fill:#fff;}</style></defs><title>Asset 3</title><g id="Layer_2" data-name="Layer 2"><g id="Layer_1-2" data-name="Layer 1"><path class="cls-1" d="M43.67,81.2,31.11,70.65l7-3-5-3.52,3-18.58L48.19,35l15.06-2.51,3,2,1.47-3,44.47,25.67c0-.35,0-.69,0-1a56.08,56.08,0,1,0-29.7,49.52L43.58,83.15Z"/><path class="cls-1" d="M112.21,57.15,67.74,31.48l-1.47,3-3-2L48.19,35l-12,10.55-3,18.58,5,3.52-7,3L43.67,81.2l-.09,2,38.94,22.48A56.15,56.15,0,0,0,112.21,57.15Z"/><path class="cls-2" d="M112.21,57.15,67.74,31.48l-1.47,3-3-2L48.19,35l-12,10.55-3,18.58,5,3.52-7,3L43.67,81.2l-.09,2,38.94,22.48A56.15,56.15,0,0,0,112.21,57.15Z"/><path class="cls-3" d="M54.72,59.6,31.11,69.48v1.28l9,3.48,3.46,9h1.29Z"/><path class="cls-3" d="M72.54,46.63a3.49,3.49,0,0,1,1.14-1.12,21.23,21.23,0,0,0-1.58-2.18Z"/><path class="cls-3" d="M73.68,45.51A3.47,3.47,0,0,1,75.52,45h3.06a25,25,0,0,0-7.44-8.7l1,7.06A21.23,21.23,0,0,1,73.68,45.51Z"/><path class="cls-3" d="M39.47,45.2A20.33,20.33,0,0,1,62.9,37l.67-4.53A24.86,24.86,0,0,0,32.93,64.3l4.18-1.75a20.39,20.39,0,0,1,.21-13,3.72,3.72,0,0,1-.15-1A3.53,3.53,0,0,1,39.47,45.2Z"/><path class="cls-3" d="M76.78,55.2q0,.57,0,1.14A20.31,20.31,0,0,1,51.52,76.06l-1.76,4.21A24.84,24.84,0,0,0,81.33,56.34,24.53,24.53,0,0,0,81,52H78Z"/><path class="cls-3" d="M37.17,48.5a3.72,3.72,0,0,0,.15,1,20.1,20.1,0,0,1,2.15-4.3A3.53,3.53,0,0,0,37.17,48.5Z"/><path class="cls-3" d="M62,68.44h0a1.27,1.27,0,0,0,1.2-1.08L67.05,41.7,69.65,61a1.26,1.26,0,0,0,2.44.27L76.4,49.76H86.5a1.27,1.27,0,0,0,0-2.53h-11a1.26,1.26,0,0,0-1.18.83L71.48,55.7,68.36,32.52a1.29,1.29,0,0,0-1.25-1.1h0a1.26,1.26,0,0,0-1.25,1.08L61.74,60.26,58.27,44.78a1.26,1.26,0,0,0-2.3-.4l-2.46,3.93-1.26-2.83a1.27,1.27,0,0,0-2.29,0l-.89,1.8H40.7a1.27,1.27,0,1,0,0,2.53h9.16a1.26,1.26,0,0,0,1.13-.7L51,49l1.13,2.55a1.27,1.27,0,0,0,1.07.74,1.25,1.25,0,0,0,1.16-.59l2.08-3.33,4.28,19.11A1.26,1.26,0,0,0,62,68.44Z"/></g></g></svg>