<svg xmlns="http://www.w3.org/2000/svg" viewBox="0 0 112.22 112.22"><defs><style>.cls-1{fill:#ff364d;}.cls-2{opacity:0.1;}.cls-3{fill:#fff;}</style></defs><title>Asset 4</title><g id="Layer_2" data-name="Layer 2"><g id="Layer_1-2" data-name="Layer 1"><path class="cls-1" d="M112.22,56.11c0-1.23,0-2.46-.12-3.67L79,33.34,78.5,67.13,32.77,69.22l14.9,8.59-.83,1.45,40.57,23.42A56,56,0,0,0,112.22,56.11Z"/><path class="cls-1" d="M47.67,77.81l-14.9-8.59L78.5,67.13,79,33.34l33.08,19.1a56.11,56.11,0,1,0-24.69,50.24L46.84,79.26Z"/><path class="cls-2" d="M112.22,56.11c0-1.23,0-2.46-.12-3.67L79,33.34,78.5,67.13,32.77,69.22l14.9,8.59-.83,1.45,40.57,23.42A56,56,0,0,0,112.22,56.11Z"/><path class="cls-3" d="M57.16,46.29H55.05v4.22H50.84v2.11h4.21v4.22h2.11V52.62h4.22V50.51H57.16Zm-1-5.27A10.55,10.55,0,1,0,66.66,51.57,10.55,10.55,0,0,0,56.11,41Zm0,19a8.44,8.44,0,1,1,8.44-8.43A8.45,8.45,0,0,1,56.11,60Z"/><path class="cls-3" d="M76.65,32.76H35.56A4.63,4.63,0,0,0,31,37.43v28a4.63,4.63,0,0,0,4.56,4.67h16v4.67H47v4.67H65.24V74.79H60.67V70.12h16a4.63,4.63,0,0,0,4.57-4.67v-28A4.63,4.63,0,0,0,76.65,32.76Zm0,32.69H35.56v-28H76.65Z"/></g></g></svg>