<svg xmlns="http://www.w3.org/2000/svg" viewBox="0 0 112.22 112.22"><defs><style>.cls-1{fill:#ff9300;}.cls-2{opacity:0.1;}.cls-3{fill:#fff;}</style></defs><title>Asset 2</title><g id="Layer_2" data-name="Layer 2"><g id="Layer_1-2" data-name="Layer 1"><path class="cls-1" d="M76.5,69.2l.82-29.77,34.79,20.09c.07-1.13.11-2.27.11-3.41a56.06,56.06,0,1,0-35.54,52.22L27.46,79.91Z"/><path class="cls-1" d="M112.11,59.52,77.32,39.43,76.5,69.2l-49,10.71,49.22,28.42A56.13,56.13,0,0,0,112.11,59.52Z"/><path class="cls-2" d="M112.11,59.52,77.32,39.43,76.5,69.2l-49,10.71,49.22,28.42A56.13,56.13,0,0,0,112.11,59.52Z"/><path class="cls-3" d="M75.22,74.89V72.5A4.77,4.77,0,0,0,80,67.73l0-23.9a4.79,4.79,0,0,0-4.78-4.77h-11a12,12,0,0,1,.49,3.42,12.22,12.22,0,0,1-.08,1.35H75.22v23.9H37V43.83h3.36a11.94,11.94,0,0,1-.08-1.35,12.4,12.4,0,0,1,.49-3.42H37a4.79,4.79,0,0,0-4.78,4.77v23.9A4.79,4.79,0,0,0,37,72.5v2.39H27.44v4.78H84.78V74.89Z"/><path class="cls-3" d="M61.64,49.35H60.43L60,48.94A10,10,0,1,0,58.93,50l.41.43v1.2L67,59.26,69.26,57Zm-9.17,0a6.88,6.88,0,1,1,6.87-6.87A6.86,6.86,0,0,1,52.47,49.35Z"/></g></g></svg>