<?xml version="1.0" encoding="utf-8"?>
<!-- Generator: Adobe Illustrator 22.0.1, SVG Export Plug-In . SVG Version: 6.00 Build 0)  -->
<svg version="1.1" id="Layer_1" xmlns="http://www.w3.org/2000/svg" xmlns:xlink="http://www.w3.org/1999/xlink" x="0px" y="0px"
	 viewBox="0 0 500 500" style="enable-background:new 0 0 500 500;" xml:space="preserve">
<style type="text/css">
	.st0{fill:#E73E4A;}
	.st1{fill:#594A42;}
	.st2{fill:#FFFFFF;}
	.st3{fill:#E8E8E8;}
	.st4{fill:none;stroke:#56534F;stroke-miterlimit:10;}
	.st5{fill:none;}
</style>
<g>
	<path class="st0" d="M243.5,91.3c-91.8,0-166.2,74.4-166.2,166.2s74.4,166.2,166.2,166.2s166.2-74.4,166.2-166.2
		S335.3,91.3,243.5,91.3z M243.5,400.6c-78.9,0-143-64.1-143-143s64.1-143,143-143s143,64.1,143,143
		C386.7,336.5,322.4,400.6,243.5,400.6z"/>
	<g>
		<path class="st1" d="M108.3,300c17.8,56.9,71,98.2,133.8,98.2c22.9,0,44.6-5.5,63.7-15.3L174.7,155.7L108.3,300z"/>
		<path class="st1" d="M408.1,156.7L228.8,74.4c-7.6-3.6-16.7-0.1-20.3,7.5l-13.2,28.7l-8.6,18.6l-4.7,10.3l136.3,236.1
			c3-2,6.1-4.1,9-6.3l54.8-119.2l11.2-24.5l22.4-48.6C419.1,169.4,415.8,160.3,408.1,156.7z"/>
	</g>
	<g>
		
			<image style="overflow:visible;opacity:0.5;enable-background:new    ;" width="198" height="226" xlink:href="EA65A60DB6B8E5FC.png"  transform="matrix(1.3169 0 0 1.3169 126.0725 105.0262)">
		</image>
		<g>
			
				<rect x="135.3" y="169.5" transform="matrix(0.4175 -0.9087 0.9087 0.4175 -80.8407 379.2504)" class="st2" width="240.2" height="166.3"/>
		</g>
	</g>
	<path class="st3" d="M342.4,174l-81.1-37.3c-7.6-3.6-11.1-12.8-7.5-20.4l7.8-16.7c3.6-7.6,12.8-11.1,20.4-7.5l81.1,37.3
		c7.6,3.6,11.1,12.8,7.5,20.4l-7.8,16.7C359.3,174.1,350.1,177.5,342.4,174z"/>
	<line class="st4" x1="205.1" y1="207.5" x2="286.2" y2="244.8"/>
	<line class="st4" x1="185.1" y1="250.9" x2="266.2" y2="288.1"/>
	<line class="st4" x1="225" y1="164.1" x2="306.1" y2="201.4"/>
	<line class="st4" x1="165.2" y1="294.2" x2="246.3" y2="331.5"/>
	
		<rect x="322.8" y="205.8" transform="matrix(0.4175 -0.9087 0.9087 0.4175 -1.9849 426.9707)" class="st4" width="18.4" height="18.4"/>
	
		<rect x="303.1" y="248.6" transform="matrix(0.4175 -0.9087 0.9087 0.4175 -52.3493 433.9958)" class="st4" width="18.4" height="18.4"/>
	
		<rect x="283.4" y="291.5" transform="matrix(0.4175 -0.9087 0.9087 0.4175 -102.8547 441.0408)" class="st4" width="18.4" height="18.4"/>
	
		<rect x="263.7" y="334.5" transform="matrix(0.4175 -0.9087 0.9087 0.4175 -153.3402 448.2264)" class="st4" width="18.4" height="18.4"/>
	<path class="st5" d="M182,139.5l4.7-10.3c-2.9,1.2-5.7,2.5-8.4,4L182,139.5z"/>
	<path class="st5" d="M102,258c0,14.6,2.2,28.7,6.5,42l66.2-144.3l-8.8-15.3C127.4,165.4,102,208.7,102,258z"/>
	<path class="st5" d="M382.3,258c0-2.6-0.1-5.3-0.3-7.9l-54.8,119.2C360.7,343.6,382.3,303.4,382.3,258z"/>
	<path class="st0" d="M393.3,225.6l-11.2,24.5c0.1,2.6,0.3,5.3,0.3,7.9c0,45.3-21.6,85.6-55,111.3c-2.9,2.2-5.8,4.3-9,6.3L182,139.5
		l-3.7-6.3c2.8-1.4,5.5-2.6,8.4-4l8.6-18.6c-8.4,2.6-16.5,6.1-24.1,10c-4.3,2.2-8.4,4.6-12.5,7.2c-42.8,27.5-71.2,75.6-71.2,130.1
		c0,21.5,4.3,41.9,12.4,60.4c6.3,14.7,14.9,28.3,25.2,40.3c28.4,32.9,70.3,53.9,117.1,53.9l0,0c25.5,0,49.6-6.3,71-17.3
		c1.1-0.5,2-1.1,3-1.6c3.3-1.7,6.5-3.6,9.5-5.7c42.8-27.5,71.2-75.6,71.2-130.1C396.7,246.9,395.5,236,393.3,225.6z M242.1,398.2
		c-62.8,0-116-41.3-133.8-98.2c-4.2-13.3-6.5-27.4-6.5-42c0-49.3,25.4-92.6,64-117.6l8.8,15.3l131.2,227.3
		C286.7,392.6,265,398.2,242.1,398.2z"/>
	<path class="st0" d="M321.4,393.4l-3.7,2.1c-6.6,3.8-15.1,1.6-19-5.1L156,143.1c-3.8-6.6-1.6-15.1,5.1-19l3.7-2.1
		c6.6-3.8,15.1-1.6,19,5.1l142.7,247.3C330.3,381,328.1,389.5,321.4,393.4z"/>
</g>
</svg>
