<?xml version="1.0" encoding="utf-8"?>
<!-- Generator: Adobe Illustrator 22.0.1, SVG Export Plug-In . SVG Version: 6.00 Build 0)  -->
<svg version="1.1" id="Layer_1" xmlns="http://www.w3.org/2000/svg" xmlns:xlink="http://www.w3.org/1999/xlink" x="0px" y="0px"
	 viewBox="0 0 369.9 368.8" style="enable-background:new 0 0 369.9 368.8;" xml:space="preserve">
<style type="text/css">
	.st0{fill:#D9F2FC;}
	.st1{fill:#213565;}
	.st2{fill:#D0D2D3;}
	.st3{fill:#FFFFFF;}
	.st4{fill:#939596;}
	.st5{fill:#FFC360;}
	.st6{clip-path:url(#SVGID_2_);}
	.st7{fill:#E6E7E7;}
	.st8{fill:#CFD1D2;}
	.st9{fill:#E9571E;}
	.st10{fill:#E73E4A;}
	.st11{fill:#F29129;}
	.st12{fill:none;stroke:#E84443;stroke-width:0.9045;stroke-miterlimit:10;}
	.st13{fill:#FFFFFF;stroke:#E84443;stroke-width:0.9045;stroke-miterlimit:10;}
	.st14{clip-path:url(#SVGID_4_);}
	.st15{fill:#F9FBFC;}
	.st16{clip-path:url(#SVGID_6_);}
	.st17{fill:#A3998C;}
	.st18{fill:#F9ECD9;}
	.st19{clip-path:url(#SVGID_6_);fill:#213565;}
	.st20{clip-path:url(#SVGID_6_);fill:#BB8576;}
	.st21{clip-path:url(#SVGID_6_);fill:#FEFEFD;}
	.st22{clip-path:url(#SVGID_6_);fill:#E7A694;}
	.st23{opacity:0.2;fill:#FFFFFF;}
	.st24{opacity:0.3;fill:#FFFFFF;}
	.st25{opacity:0.8;fill:#FFFFFF;}
	.st26{fill:#F9E5CA;}
	.st27{opacity:0.2;fill:#213565;}
</style>
<path class="st0" d="M181.9,59.5L181.9,59.5c-2.8,0-5-2.2-5-5v-47c0-2.7,2.2-5,5-5h0c2.8,0,5,2.2,5,5v47
	C186.9,57.3,184.6,59.5,181.9,59.5z"/>
<path class="st0" d="M44.4,184.5L44.4,184.5c-1.9,0-3.5-1.6-3.5-3.5v-50c0-1.9,1.6-3.5,3.5-3.5h0c1.9,0,3.5,1.6,3.5,3.5v50
	C47.9,182.9,46.3,184.5,44.4,184.5z"/>
<path class="st0" d="M285.9,80L285.9,80c-2.8,0-5-2.3-5-5V5c0-2.7,2.3-5,5-5l0,0c2.8,0,5,2.2,5,5v70C290.9,77.8,288.6,80,285.9,80z"
	/>
<path class="st0" d="M333.9,228.5L333.9,228.5c-2.8,0-5-2.3-5-5v-40c0-2.8,2.3-5,5-5l0,0c2.8,0,5,2.3,5,5v40
	C338.9,226.3,336.6,228.5,333.9,228.5z"/>
<path class="st0" d="M347.4,257.5L347.4,257.5c-1.4,0-2.5-1.1-2.5-2.5v-45c0-1.4,1.1-2.5,2.5-2.5l0,0c1.4,0,2.5,1.1,2.5,2.5v45
	C349.9,256.4,348.7,257.5,347.4,257.5z"/>
<path class="st1" d="M349.9,279.6L349.9,279.6c-1.1,0-2-0.9-2-2v-36.3c0-1.1,0.9-2,2-2l0,0c1.1,0,2,0.9,2,2v36.3
	C351.9,278.7,351,279.6,349.9,279.6z"/>
<g>
	<path class="st1" d="M52.8,289.7c4.3-1.2,6.7-5.7,5.5-10l-1.2-4c-1.2-4.3-5.7-6.7-10-5.5s-6.7,5.7-5.5,10l1.2,4
		C44.1,288.5,48.5,290.9,52.8,289.7z"/>
	<path class="st2" d="M51.7,285.7L51.7,285.7c2-0.6,3.2-2.7,2.7-4.8l-1.2-4c-0.6-2-2.7-3.2-4.8-2.7h0c-2,0.6-3.2,2.7-2.7,4.8l1.2,4
		C47.4,285.1,49.6,286.3,51.7,285.7z"/>
	<path class="st1" d="M151.3,167.1c26.6,5.6,50,19.4,67.8,39.8c17.2,19.8,27.9,45,30,71l1.1,13.6l-8.5-10.6
		c-17.7-21.9-42.6-37.2-70.3-43c-20.7-4.4-42.3-3.3-62.3,3.1c-19.5,6.2-37.2,17.2-51.4,31.9l-2.5,2.6l-0.7-0.5
		c-1.6,0.8-3.5,1.3-5.6,1.4l-0.1,0c-0.3,0-0.6,0-0.8,0l-0.1,0c-0.3,0-0.6,0-0.8,0l-0.2,0c-0.3,0-0.5,0-0.8,0l-0.2,0
		c-0.3,0-0.5,0-0.8-0.1l-0.2,0c-0.3,0-0.6-0.1-0.8-0.1l-0.2,0c-0.3,0-0.6-0.1-0.9-0.1l-0.2,0c-0.3-0.1-0.6-0.1-0.9-0.2l-0.3-0.1
		c-0.8-0.2-1.7-0.4-2.6-0.7l-0.2-0.1c-0.2-0.1-0.4-0.1-0.6-0.2l-0.5-0.2c-0.2-0.1-0.4-0.1-0.5-0.2c0,0-0.4-0.2-0.6-0.2
		c-0.2-0.1-0.6-0.2-0.6-0.2c-0.2-0.1-0.3-0.1-0.5-0.2c-0.2-0.1-0.4-0.2-0.6-0.2c-0.2-0.1-0.4-0.2-0.6-0.2c-0.2-0.1-0.4-0.2-0.5-0.2
		c-0.2-0.1-0.4-0.2-0.6-0.3c-0.2-0.1-0.3-0.2-0.5-0.3c-0.2-0.1-0.4-0.2-0.6-0.3c-0.2-0.1-0.3-0.2-0.5-0.3c-0.2-0.1-0.4-0.2-0.6-0.3
		l-0.5-0.3c-0.2-0.1-0.4-0.2-0.6-0.3l-0.5-0.3c-0.2-0.1-0.4-0.3-0.6-0.4l-0.5-0.3c-0.2-0.1-0.5-0.3-0.7-0.5l-0.4-0.2
		c-0.4-0.2-0.7-0.5-1.1-0.7c-0.4-0.3-0.7-0.5-1.1-0.8c-0.1-0.1-0.5-0.3-0.5-0.3c-0.2-0.2-0.4-0.3-0.6-0.5c-0.1-0.1-0.5-0.4-0.5-0.4
		c-0.2-0.1-0.3-0.3-0.5-0.4c-0.1-0.1-0.6-0.5-0.6-0.5c-0.1-0.1-0.3-0.2-0.4-0.4c-0.1-0.1-0.5-0.4-0.5-0.4s-0.4-0.3-0.5-0.4
		c-0.1-0.1-0.5-0.4-0.5-0.4s-0.3-0.3-0.5-0.4c-0.1-0.1-0.3-0.2-0.4-0.4c0,0-0.4-0.4-0.5-0.5c-0.1-0.1-0.2-0.2-0.4-0.4
		c0,0-0.4-0.4-0.5-0.5c-0.1-0.2-0.3-0.3-0.4-0.5c0,0-0.3-0.4-0.4-0.5c-0.1-0.2-0.3-0.3-0.4-0.5c0,0-0.2-0.3-0.3-0.4
		c-0.1-0.2-0.3-0.3-0.4-0.5c0,0-0.2-0.3-0.3-0.4c-0.1-0.2-0.3-0.3-0.4-0.5l-0.3-0.4c-0.1-0.2-0.3-0.4-0.4-0.6l-0.2-0.3
		c-0.1-0.2-0.3-0.4-0.4-0.6l-0.2-0.3c-0.1-0.2-0.3-0.4-0.4-0.6l-0.2-0.3c-0.1-0.2-0.3-0.4-0.4-0.7l-0.2-0.3
		c-0.1-0.2-0.2-0.4-0.3-0.7l-0.1-0.3c-0.1-0.2-0.2-0.5-0.3-0.7l-0.1-0.2c-0.1-0.3-0.2-0.5-0.3-0.7l-0.1-0.2
		c-0.1-0.3-0.2-0.5-0.3-0.8l-0.1-0.2c-0.1-0.3-0.2-0.5-0.2-0.8l0-0.2c-0.1-0.3-0.1-0.6-0.2-0.8c0,0,0-0.1,0-0.2
		c-0.1-0.2-0.1-0.5-0.1-0.8l0-0.1c-0.1-0.3-0.1-0.6-0.1-0.9l0-0.2c0-0.3,0-0.6-0.1-0.8l0-0.1c0-0.3,0-0.6,0-0.9l0-0.1
		c0-0.3,0-0.6,0.1-0.9l0-0.1c0-0.3,0.1-0.6,0.1-0.9c0,0,0-0.1,0-0.1l-0.2-0.2l1.3-3C34.9,185.5,93.5,154.9,151.3,167.1z"/>
	<path class="st3" d="M15.5,242C15.5,242,15.5,242,15.5,242c-0.1,0.2-0.2,0.4-0.3,0.6c0,0,0,0,0,0c-0.1,0.2-0.1,0.4-0.2,0.6
		c0,0,0,0,0,0c-0.1,0.2-0.1,0.4-0.1,0.6c0,0,0,0,0,0c0,0.2-0.1,0.4-0.1,0.6c0,0,0,0,0,0c0,0.2,0,0.4,0,0.6c0,0,0,0,0,0.1
		c0,0.2,0,0.4,0,0.6c0,0,0,0,0,0.1c0,0.2,0,0.4,0,0.6c0,0,0,0.1,0,0.1c0,0.2,0,0.4,0.1,0.6c0,0,0,0.1,0,0.1c0,0.2,0.1,0.4,0.1,0.6
		c0,0,0,0.1,0,0.1c0,0.2,0.1,0.4,0.2,0.6c0,0,0,0.1,0,0.1c0.1,0.2,0.1,0.4,0.2,0.6c0,0.1,0,0.1,0.1,0.2c0.1,0.2,0.1,0.4,0.2,0.6
		c0,0.1,0,0.1,0.1,0.2c0.1,0.2,0.2,0.4,0.2,0.6c0,0.1,0.1,0.1,0.1,0.2c0.1,0.2,0.2,0.4,0.3,0.6c0,0.1,0.1,0.1,0.1,0.2
		c0.1,0.2,0.2,0.4,0.3,0.6c0,0.1,0.1,0.2,0.1,0.2c0.1,0.2,0.2,0.4,0.3,0.6c0,0.1,0.1,0.2,0.2,0.3c0.1,0.2,0.2,0.4,0.3,0.6
		c0.1,0.1,0.1,0.2,0.2,0.3c0.1,0.2,0.2,0.4,0.3,0.5c0.1,0.1,0.1,0.2,0.2,0.3c0.1,0.2,0.2,0.3,0.4,0.5c0.1,0.1,0.2,0.2,0.2,0.3
		c0.1,0.2,0.2,0.3,0.4,0.5c0.1,0.1,0.2,0.2,0.3,0.3c0.1,0.2,0.3,0.3,0.4,0.5c0.1,0.1,0.2,0.2,0.3,0.3c0.1,0.2,0.3,0.3,0.4,0.5
		c0.1,0.1,0.2,0.2,0.3,0.4c0.1,0.2,0.3,0.3,0.4,0.5c0.1,0.1,0.2,0.2,0.4,0.4c0.1,0.1,0.3,0.3,0.4,0.4c0.1,0.1,0.3,0.3,0.4,0.4
		c0.1,0.1,0.3,0.3,0.4,0.4c0.1,0.1,0.3,0.3,0.4,0.4c0.1,0.1,0.3,0.3,0.4,0.4c0.1,0.1,0.3,0.3,0.4,0.4c0.1,0.1,0.3,0.2,0.4,0.4
		c0.2,0.1,0.3,0.3,0.5,0.4c0.1,0.1,0.3,0.2,0.4,0.3c0.2,0.1,0.4,0.3,0.5,0.4c0.1,0.1,0.3,0.2,0.4,0.3c0.2,0.2,0.4,0.3,0.6,0.5
		c0.1,0.1,0.2,0.2,0.3,0.2c0.3,0.2,0.7,0.5,1,0.7c0.3,0.2,0.7,0.5,1,0.7c0.1,0.1,0.2,0.1,0.3,0.2c0.2,0.1,0.4,0.3,0.7,0.4
		c0.1,0.1,0.3,0.2,0.4,0.2c0.2,0.1,0.4,0.2,0.6,0.4c0.1,0.1,0.3,0.2,0.4,0.3c0.2,0.1,0.4,0.2,0.6,0.3c0.2,0.1,0.3,0.2,0.5,0.2
		c0.2,0.1,0.4,0.2,0.5,0.3c0.2,0.1,0.3,0.2,0.5,0.2c0.2,0.1,0.4,0.2,0.5,0.3c0.2,0.1,0.3,0.2,0.5,0.2c0.2,0.1,0.3,0.2,0.5,0.2
		c0.2,0.1,0.3,0.1,0.5,0.2c0.2,0.1,0.3,0.1,0.5,0.2c0.2,0.1,0.3,0.1,0.5,0.2c0.2,0.1,0.3,0.1,0.5,0.2c0.2,0.1,0.3,0.1,0.5,0.2
		c0.1,0.1,0.3,0.1,0.4,0.2c0.2,0.1,0.4,0.1,0.5,0.2c0.1,0,0.3,0.1,0.4,0.1c0.2,0.1,0.4,0.1,0.6,0.2c0.1,0,0.2,0,0.2,0.1
		c0.8,0.2,1.7,0.5,2.5,0.6c0,0,0,0,0,0c0.3,0.1,0.5,0.1,0.7,0.1c0.1,0,0.1,0,0.2,0c0.2,0,0.5,0.1,0.7,0.1c0.1,0,0.1,0,0.2,0
		c0.2,0,0.5,0.1,0.7,0.1c0.1,0,0.1,0,0.2,0c0.2,0,0.4,0,0.7,0c0.1,0,0.1,0,0.2,0c0.2,0,0.4,0,0.7,0c0.1,0,0.1,0,0.2,0
		c0.2,0,0.4,0,0.7,0c0,0,0.1,0,0.1,0c0.2,0,0.5,0,0.7,0c0,0,0,0,0.1,0c2.5-0.2,4.6-1,6.1-2.3l0,0c29.4-30.4,73.2-45.5,117.7-36.1
		c29.8,6.3,54.9,22.5,72.7,44.5c-4.3-51.3-41.6-95.9-94.5-107c-56.9-12-112.8,18.6-134.7,70.2l0.1,0.1
		C15.7,241.6,15.6,241.8,15.5,242z"/>
	<path class="st1" d="M56.7,272.6l-1.7,3.1c-0.6,1.1-1.2,2.1-1.9,3.1c-10.4,15.3-29.2,20.7-42,12.1c-12.8-8.7-14.8-28.2-4.4-43.5
		c0.7-1,1.4-2,2.2-2.9l2.2-2.7L56.7,272.6z"/>
	<path class="st2" d="M11.8,246.9c-0.7,0.8-1.4,1.7-2,2.6c-9.2,13.6-7.7,30.7,3.4,38.2c11.1,7.5,27.5,2.6,36.7-11
		c0.6-0.9,1.2-1.9,1.7-2.8L11.8,246.9z"/>
</g>
<g>
	<path class="st1" d="M310.7,352.4c-3.6-2.6-4.3-7.7-1.7-11.3l2.5-3.4c2.6-3.6,7.7-4.3,11.3-1.7s4.3,7.7,1.7,11.3l-2.5,3.4
		C319.4,354.3,314.3,355.1,310.7,352.4z"/>
	<path class="st2" d="M313.2,349.1L313.2,349.1c-1.7-1.3-2.1-3.7-0.8-5.4l2.5-3.4c1.3-1.7,3.7-2.1,5.4-0.8h0
		c1.7,1.3,2.1,3.7,0.8,5.4l-2.5,3.4C317.4,350,314.9,350.4,313.2,349.1z"/>
	<path class="st1" d="M261.6,203.1c-26.9-4.1-53.6,0.6-77.5,13.5c-23,12.5-41.9,32.3-53,55.9l-5.8,12.3l11.7-6.9
		c24.3-14.3,53-19.9,80.9-15.6c20.9,3.2,40.8,11.7,57.3,24.7c16.1,12.6,28.8,29.2,37,47.9l1.5,3.4l0.8-0.2c1.3,1.3,2.9,2.4,4.8,3.3
		l0.1,0c0.2,0.1,0.5,0.2,0.8,0.3l0.1,0.1c0.3,0.1,0.5,0.2,0.8,0.3l0.2,0.1c0.2,0.1,0.5,0.2,0.8,0.3l0.2,0.1c0.3,0.1,0.5,0.2,0.8,0.2
		l0.2,0c0.3,0.1,0.6,0.1,0.8,0.2l0.2,0c0.3,0.1,0.6,0.1,0.9,0.2l0.2,0c0.3,0.1,0.6,0.1,0.9,0.2l0.3,0c0.9,0.1,1.8,0.2,2.7,0.3l0.3,0
		c0.2,0,0.4,0,0.6,0l0.6,0c0.2,0,0.4,0,0.6,0c0,0,0.5,0,0.6,0c0.2,0,0.7,0,0.7,0c0.2,0,0.3,0,0.5,0c0.2,0,0.4,0,0.6,0
		c0.2,0,0.4,0,0.6,0c0.2,0,0.4,0,0.6,0c0.2,0,0.4,0,0.6,0c0.2,0,0.4,0,0.6-0.1c0.2,0,0.4,0,0.7-0.1c0.2,0,0.4,0,0.6-0.1
		c0.2,0,0.5-0.1,0.7-0.1l0.6-0.1c0.2,0,0.5-0.1,0.7-0.1l0.5-0.1c0.2,0,0.5-0.1,0.7-0.1l0.5-0.1c0.3-0.1,0.6-0.1,0.8-0.2l0.4-0.1
		c0.4-0.1,0.8-0.2,1.3-0.3c0.4-0.1,0.9-0.2,1.3-0.4c0.1,0,0.5-0.2,0.5-0.2c0.2-0.1,0.5-0.1,0.7-0.2c0.1,0,0.7-0.2,0.7-0.2
		c0.2-0.1,0.4-0.1,0.6-0.2c0.1,0,0.7-0.2,0.7-0.2c0.2-0.1,0.4-0.1,0.5-0.2c0.1-0.1,0.6-0.2,0.6-0.2s0.5-0.2,0.6-0.2
		c0.2-0.1,0.6-0.2,0.6-0.2s0.4-0.2,0.6-0.2c0.2-0.1,0.3-0.1,0.5-0.2c0,0,0.5-0.2,0.6-0.3c0.2-0.1,0.3-0.1,0.5-0.2
		c0,0,0.5-0.2,0.6-0.3c0.2-0.1,0.4-0.2,0.5-0.3c0,0,0.4-0.2,0.5-0.3c0.2-0.1,0.4-0.2,0.6-0.3c0,0,0.3-0.2,0.4-0.3
		c0.2-0.1,0.4-0.2,0.5-0.3c0,0,0.3-0.2,0.4-0.3c0.2-0.1,0.4-0.2,0.5-0.4l0.4-0.3c0.2-0.1,0.4-0.3,0.6-0.4l0.3-0.2
		c0.2-0.1,0.4-0.3,0.6-0.4l0.3-0.2c0.2-0.2,0.4-0.3,0.6-0.5l0.3-0.2c0.2-0.2,0.4-0.3,0.6-0.5l0.2-0.2c0.2-0.2,0.4-0.3,0.6-0.5
		l0.2-0.2c0.2-0.2,0.4-0.4,0.5-0.5l0.2-0.2c0.2-0.2,0.4-0.4,0.5-0.6l0.2-0.2c0.2-0.2,0.4-0.4,0.5-0.6l0.1-0.2
		c0.2-0.2,0.3-0.4,0.5-0.7l0.1-0.1c0.2-0.2,0.3-0.5,0.5-0.7c0,0,0.1-0.1,0.1-0.2c0.1-0.2,0.3-0.5,0.4-0.7l0-0.1
		c0.2-0.3,0.3-0.5,0.4-0.8l0.1-0.1c0.1-0.2,0.2-0.5,0.3-0.8l0-0.1c0.1-0.3,0.2-0.6,0.3-0.9l0-0.1c0.1-0.3,0.2-0.6,0.3-0.9l0-0.1
		c0.1-0.3,0.1-0.6,0.2-0.9c0,0,0-0.1,0-0.1l0.3-0.1l-0.1-3.3C364.1,261.1,319.9,211.9,261.6,203.1z"/>
	<path class="st3" d="M362.5,320.8C362.5,320.8,362.5,320.8,362.5,320.8c0,0.2,0,0.4,0,0.6c0,0,0,0,0,0c0,0.2,0,0.4,0,0.6
		c0,0,0,0,0,0c0,0.2,0,0.4-0.1,0.6c0,0,0,0,0,0c0,0.2-0.1,0.4-0.1,0.6c0,0,0,0,0,0c-0.1,0.2-0.1,0.4-0.2,0.6c0,0,0,0,0,0.1
		c-0.1,0.2-0.1,0.4-0.2,0.6c0,0,0,0,0,0.1c-0.1,0.2-0.2,0.4-0.3,0.6c0,0,0,0.1,0,0.1c-0.1,0.2-0.2,0.4-0.3,0.6c0,0,0,0.1-0.1,0.1
		c-0.1,0.2-0.2,0.4-0.3,0.6c0,0,0,0.1-0.1,0.1c-0.1,0.2-0.2,0.4-0.4,0.5c0,0-0.1,0.1-0.1,0.1c-0.1,0.2-0.3,0.3-0.4,0.5
		c0,0-0.1,0.1-0.1,0.1c-0.1,0.2-0.3,0.3-0.4,0.5c0,0-0.1,0.1-0.1,0.1c-0.1,0.2-0.3,0.3-0.4,0.5c0,0.1-0.1,0.1-0.2,0.2
		c-0.2,0.2-0.3,0.3-0.5,0.5c-0.1,0.1-0.1,0.1-0.2,0.2c-0.2,0.1-0.3,0.3-0.5,0.4c-0.1,0.1-0.1,0.1-0.2,0.2c-0.2,0.1-0.3,0.3-0.5,0.4
		c-0.1,0.1-0.2,0.1-0.2,0.2c-0.2,0.1-0.3,0.3-0.5,0.4c-0.1,0.1-0.2,0.1-0.3,0.2c-0.2,0.1-0.3,0.3-0.5,0.4c-0.1,0.1-0.2,0.1-0.3,0.2
		c-0.2,0.1-0.3,0.2-0.5,0.4c-0.1,0.1-0.2,0.1-0.3,0.2c-0.2,0.1-0.3,0.2-0.5,0.3c-0.1,0.1-0.2,0.1-0.4,0.2c-0.2,0.1-0.4,0.2-0.5,0.3
		c-0.1,0.1-0.3,0.1-0.4,0.2c-0.2,0.1-0.4,0.2-0.5,0.3c-0.1,0.1-0.3,0.1-0.4,0.2c-0.2,0.1-0.4,0.2-0.5,0.3c-0.2,0.1-0.3,0.2-0.5,0.2
		c-0.2,0.1-0.4,0.2-0.5,0.3c-0.2,0.1-0.3,0.2-0.5,0.2c-0.2,0.1-0.4,0.2-0.5,0.2c-0.2,0.1-0.3,0.1-0.5,0.2c-0.2,0.1-0.4,0.2-0.5,0.2
		c-0.2,0.1-0.4,0.1-0.6,0.2c-0.2,0.1-0.3,0.1-0.5,0.2c-0.2,0.1-0.4,0.1-0.6,0.2c-0.2,0.1-0.3,0.1-0.5,0.2c-0.2,0.1-0.4,0.1-0.7,0.2
		c-0.2,0.1-0.3,0.1-0.5,0.2c-0.3,0.1-0.5,0.2-0.8,0.2c-0.1,0-0.3,0.1-0.4,0.1c-0.4,0.1-0.8,0.2-1.2,0.3c-0.4,0.1-0.8,0.2-1.2,0.3
		c-0.1,0-0.3,0.1-0.4,0.1c-0.3,0.1-0.5,0.1-0.8,0.2c-0.2,0-0.3,0.1-0.5,0.1c-0.2,0-0.5,0.1-0.7,0.1c-0.2,0-0.3,0.1-0.5,0.1
		c-0.2,0-0.4,0.1-0.6,0.1c-0.2,0-0.3,0-0.5,0.1c-0.2,0-0.4,0.1-0.6,0.1c-0.2,0-0.3,0-0.5,0.1c-0.2,0-0.4,0-0.6,0.1
		c-0.2,0-0.4,0-0.5,0c-0.2,0-0.4,0-0.6,0c-0.2,0-0.4,0-0.5,0c-0.2,0-0.4,0-0.5,0c-0.2,0-0.4,0-0.5,0c-0.2,0-0.3,0-0.5,0
		c-0.2,0-0.4,0-0.6,0c-0.2,0-0.3,0-0.5,0c-0.2,0-0.4,0-0.6,0c-0.1,0-0.3,0-0.4,0c-0.2,0-0.4,0-0.6,0c-0.1,0-0.2,0-0.2,0
		c-0.9-0.1-1.7-0.2-2.6-0.3c0,0,0,0,0,0c-0.3,0-0.5-0.1-0.7-0.1c-0.1,0-0.1,0-0.2,0c-0.2,0-0.5-0.1-0.7-0.1c-0.1,0-0.1,0-0.2,0
		c-0.2-0.1-0.4-0.1-0.7-0.2c-0.1,0-0.1,0-0.2,0c-0.2-0.1-0.4-0.1-0.6-0.2c-0.1,0-0.1,0-0.2-0.1c-0.2-0.1-0.4-0.1-0.6-0.2
		c0,0-0.1,0-0.1-0.1c-0.2-0.1-0.4-0.2-0.6-0.2c0,0-0.1,0-0.1,0c-0.2-0.1-0.4-0.2-0.6-0.3c0,0,0,0-0.1,0c-2.3-1.1-4-2.5-4.9-4.3l0,0
		c-16.8-38.8-52.6-68.3-97.5-75.1c-30.1-4.6-59.3,1.8-83.7,16.2c22-46.5,72.6-75.2,126.1-67c57.5,8.7,99.1,57,101.5,113l-0.1,0
		C362.4,320.4,362.4,320.6,362.5,320.8z"/>
	<path class="st1" d="M313.1,335.1l0.5,3.5c0.2,1.2,0.4,2.4,0.7,3.6c4.3,18,20.1,29.7,35.1,26s23.7-21.2,19.4-39.2
		c-0.3-1.2-0.6-2.3-1-3.5l-1.1-3.3L313.1,335.1z"/>
	<path class="st2" d="M364.2,326.7c0.3,1,0.7,2.1,0.9,3.2c3.8,15.9-3.6,31.4-16.6,34.5c-13,3.1-26.6-7.3-30.5-23.2
		c-0.3-1.1-0.5-2.2-0.6-3.2L364.2,326.7z"/>
</g>
<path class="st1" d="M305.1,149l2.4-2.9c0.9-1,1.7-2.1,2.4-3.2c11.3-16.6,9.3-37.7-4.5-47.2s-34.3-3.7-45.7,12.8
	c-0.7,1.1-1.4,2.2-2.1,3.4l-1.9,3.3L305.1,149z"/>
<path class="st4" d="M261.3,113.9c0.6-1,1.2-2,1.9-3C273.2,96.2,291,90.9,303,99.1c12,8.2,13.5,26.7,3.5,41.4
	c-0.7,1-1.4,1.9-2.2,2.9L261.3,113.9z"/>
<path class="st1" d="M251.4,210.4c7.7,2.9,16.4,0.1,20.8-6.9l31.3-49.3c5.1-8.1,2.7-18.8-5.3-23.9l-24.2-15.3c-1-0.6-2-1.1-3.1-1.5
	c-7.7-2.9-16.4-0.1-20.8,6.9l-31.3,49.3c-5.1,8.1-2.7,18.8,5.3,23.9l24.2,15.3C249.3,209.4,250.4,210,251.4,210.4z"/>
<path class="st3" d="M226.5,189.9l24.2,15.3c6.1,3.9,14.2,2.1,18.1-4l31.3-49.3c3.9-6.1,2.1-14.2-4-18.1l-24.2-15.3
	c-6.1-3.9-14.2-2.1-18.1,4l-31.3,49.3C218.5,177.9,220.4,186.1,226.5,189.9z"/>
<path class="st1" d="M168.6,96.5l0.2-3.8c0.1-1.3,0.2-2.7,0.3-3.9c2.7-19.9,18.4-34.2,35-32c16.6,2.2,28,20.2,25.3,40.1
	c-0.2,1.3-0.4,2.6-0.7,3.9l-0.8,3.7L168.6,96.5z"/>
<path class="st4" d="M224.6,99.8c0.3-1.2,0.5-2.3,0.6-3.5c2.4-17.6-7.4-33.5-21.7-35.4s-27.9,10.8-30.3,28.4
	c-0.2,1.2-0.3,2.4-0.3,3.6L224.6,99.8z"/>
<path class="st1" d="M167.3,178c-7.7-2.9-12.2-11-10.9-19l9.8-57.6c1.6-9.4,10.5-15.8,19.9-14.2l28.2,4.8c1.1,0.2,2.2,0.5,3.3,0.9
	c7.7,2.9,12.2,11,10.9,19l-9.8,57.6c-1.6,9.4-10.5,15.8-19.9,14.2l-28.2-4.8C169.4,178.7,168.3,178.4,167.3,178z"/>
<path class="st3" d="M199.5,179.6l-28.2-4.8c-7.1-1.2-12-8-10.7-15.1l9.8-57.6c1.2-7.1,8-12,15.1-10.7l28.2,4.8
	c7.1,1.2,12,8,10.7,15.1l-9.8,57.6C213.4,176,206.6,180.8,199.5,179.6z"/>
<ellipse class="st1" cx="192.5" cy="241.2" rx="103.8" ry="100.8"/>
<ellipse class="st5" cx="192.5" cy="241.2" rx="99.6" ry="96.6"/>
<g>
	<path class="st1" d="M267.1,233.8c7.9,3,16.9-0.9,19.9-8.9l11-28.6c2.8-7.3-0.3-15.4-7-19l-3.2-15.3c-0.9-4.4-4.8-9-9-10.6
		l-92.4-35.5c-4.1-1.6-10.2-0.8-13.8,1.8L160,127c-7.4-1.8-15.2,2.2-18,9.5l-11,28.6c-3,7.9,0.9,16.9,8.9,19.9L267.1,233.8z"/>
	<path class="st3" d="M160.5,131.5l0.3,0.1l0.3-0.2l14-10.3c2.5-1.8,7-2.4,9.8-1.3l92.4,35.5c2.9,1.1,5.8,4.6,6.4,7.5l3.5,17.1
		l0.1,0.3l0.3,0.1c5.8,2.2,8.7,8.7,6.5,14.5l-11,28.6c-2.2,5.8-8.7,8.7-14.5,6.5L141.5,181c-5.8-2.2-8.7-8.7-6.5-14.5l11-28.6
		C148.2,132.1,154.7,129.3,160.5,131.5z"/>
</g>
<g>
	<path class="st1" d="M250.7,209.9c10.8-17.6,25.6-16.3,28.1-16.8c2.5-0.5,2.8-2.9,2.8-2.9s-0.2-2.4-2.5-2.4
		c-2.3-0.1-20.5-1.1-33,19.3L250.7,209.9z"/>
	<path class="st1" d="M168.2,178.2c3.7-20.3-8.1-29.3-9.6-31.3s-0.1-4.1-0.1-4.1s1.7-1.6,3.5-0.1s15.9,12.9,11.6,36.5L168.2,178.2z"
		/>
</g>
<g>
	<circle class="st1" cx="328.9" cy="274.3" r="16.4"/>
	<g>
		<defs>
			<circle id="SVGID_1_" cx="328.9" cy="274.3" r="16.4"/>
		</defs>
		<clipPath id="SVGID_2_">
			<use xlink:href="#SVGID_1_"  style="overflow:visible;"/>
		</clipPath>
		<g class="st6">
			<g>
				<path class="st7" d="M325,286.6c0.9,0.4,5.6-3.4,8-9.5c1.1-2.8,1.8-5.5,2-7.6c-0.9-0.2-1.8-0.5-2.8-0.9
					c-0.9-0.4-1.8-0.8-2.6-1.2c-1.3,1.7-2.7,4.1-3.8,6.9C323.4,280.3,324.1,286.3,325,286.6z M328.1,278.9c0.8,0.3,1.1,1.1,0.8,1.9
					c-0.3,0.8-1.1,1.1-1.9,0.8c-0.8-0.3-1.1-1.1-0.8-1.9C326.5,279,327.4,278.6,328.1,278.9z"/>
				<path class="st8" d="M325.8,274.3c-2.4,6-1.6,12-0.7,12.4l0,0l2-5l0,0c-0.8-0.3-1.1-1.1-0.8-1.9s1.1-1.1,1.9-0.8l0,0l4.1-10.3
					c-0.9-0.4-1.8-0.8-2.6-1.2C328.3,269.1,326.9,271.5,325.8,274.3z"/>
				<path class="st9" d="M331.5,266.5c-0.1,0.1-0.1,0.3-0.1,0.4c0,0,0,0,0,0l0,0c0,0.6,0.3,1.2,0.9,1.5c0.6,0.2,1.3,0.1,1.7-0.4l0,0
					c0,0,0,0,0,0c0.1-0.1,0.2-0.2,0.2-0.4c0,0,0,0,0-0.1c0,0,0-0.1,0-0.1c0.4-1.1-0.6-2.6-0.6-2.6s-1.7,0.4-2.2,1.5c0,0,0,0.1,0,0.1
					C331.5,266.4,331.5,266.5,331.5,266.5z"/>
				<path class="st10" d="M325,286.6c0.5,0.2,2.2-0.9,4-3l-4.9-2C324.1,284.4,324.5,286.4,325,286.6z"/>
				<path class="st10" d="M334.4,274.7l4.5-2.2l0.9-2.3c-1.2,0.1-2.7-0.1-4.3-0.5C335.3,271.2,335,273,334.4,274.7z"/>
				<path class="st10" d="M329.2,267.1c-1.2-0.7-2.2-1.4-2.9-2.1c-0.3,0.7-0.8,1.3-1.4,1.8l1.7,4.6
					C327.3,269.8,328.2,268.3,329.2,267.1z"/>
			</g>
			<g>
				<path class="st11" d="M334,263.9c0.4-1,0.7-2.1,0.8-3.1c0.2-1.1,0.2-2.2-0.1-3.2c-0.1-0.5-0.3-1-0.6-1.5
					c-0.3-0.4-0.7-0.8-1.1-1.1c-0.9-0.6-2-0.8-3.1-0.9c-0.5,0-1.1,0-1.6,0c-0.5,0-1.1,0.1-1.6,0.2c-1.1,0.2-2.1,0.4-3.2,0.7
					c-2.1,0.6-4.1,1.3-6.1,2.1c1-0.4,2-0.8,3-1.2c1-0.4,2.1-0.7,3.1-1c1-0.3,2.1-0.5,3.2-0.7c0.5-0.1,1.1-0.1,1.6-0.2
					c0.5,0,1.1,0,1.6,0c1.1,0.1,2.2,0.3,3.1,0.9c0.5,0.3,0.9,0.7,1.2,1.1c0.3,0.5,0.5,1,0.6,1.5c0.3,1.1,0.2,2.2,0,3.2
					C334.8,261.9,334.4,262.9,334,263.9z"/>
			</g>
			<g>
				<path class="st11" d="M333.4,263.6c0.1-0.5,0.3-0.9,0.4-1.4c0.1-0.5,0.2-0.9,0.2-1.4s0.1-0.9,0.1-1.4c0-0.5-0.1-0.9-0.2-1.4
					s-0.3-0.9-0.6-1.3c-0.3-0.4-0.6-0.7-1-1c-0.4-0.3-0.8-0.5-1.3-0.6c-0.2-0.1-0.5-0.1-0.7-0.2c-0.1,0-0.2,0-0.4-0.1l-0.4-0.1
					c0.2,0,0.5,0,0.7,0.1c0.2,0,0.5,0.1,0.7,0.2c0.5,0.1,0.9,0.3,1.3,0.6c0.4,0.3,0.8,0.6,1,1c0.3,0.4,0.5,0.9,0.6,1.3
					c0.2,0.9,0.2,1.9,0.1,2.9C334,261.8,333.8,262.8,333.4,263.6z"/>
			</g>
			<circle class="st12" cx="327.6" cy="280.3" r="1.5"/>
			<circle class="st13" cx="327.6" cy="280.3" r="1.5"/>
		</g>
	</g>
</g>
<g>
	<g>
		<path class="st1" d="M197.3,150.1c5.5-7.6,15.7-12.1,24.8-9.4c8.9,2.6,14.6,12.4,14.4,21.7c-0.3,12.6-15.8,12.4-24.2,9.7
			C204.2,169.4,189.6,160.6,197.3,150.1z"/>
		<g>
			<defs>
				<path id="SVGID_3_" d="M197.3,150.1c5.5-7.6,15.7-12.1,24.8-9.4c8.9,2.6,14.6,12.4,14.4,21.7c-0.3,12.6-15.8,12.4-24.2,9.7
					C204.2,169.4,189.6,160.6,197.3,150.1z"/>
			</defs>
			<clipPath id="SVGID_4_">
				<use xlink:href="#SVGID_3_"  style="overflow:visible;"/>
			</clipPath>
			<g class="st14">
				<g>
					<path class="st7" d="M206.9,165.9c1.2,0.8,9.9-0.3,14.7-5.1c2.2-2.2,3.6-4.6,4.2-6.6c-1-0.6-2-1.2-3-2c-1-0.7-1.9-1.5-2.7-2.2
						c-2.1,1.1-4.6,2.8-7.2,4.8C207.4,159.3,205.7,165.1,206.9,165.9z M214.3,160.2c1,0.6,1.2,1.6,0.5,2.2c-0.7,0.6-2.1,0.5-3-0.2
						c-1-0.6-1.2-1.6-0.4-2.2C212.1,159.5,213.4,159.6,214.3,160.2z"/>
					<path class="st8" d="M212.9,154.8c-5.6,4.5-7.2,10.2-6,11l0,0c1.9-1.4,2.9-2.2,4.8-3.6l0,0c-1-0.6-1.2-1.6-0.4-2.2
						c0.7-0.6,2-0.5,3,0.1l0,0c3.8-3.1,5.5-4.7,8.5-8c-1-0.7-1.9-1.5-2.7-2.2C218.1,151.1,215.5,152.8,212.9,154.8z"/>
					<path class="st9" d="M222.6,149.9c-0.1,0.1-0.2,0.2-0.2,0.3c0,0,0,0,0,0l0,0c-0.2,0.6,0,1.3,0.7,1.8c0.6,0.5,1.5,0.6,2,0.2l0,0
						c0,0,0,0,0,0c0.1-0.1,0.2-0.2,0.3-0.3c0,0,0,0,0.1-0.1c0,0,0-0.1,0.1-0.1c0.8-0.9,0-2.7,0-2.7s-2-0.3-2.8,0.6
						C222.7,149.8,222.7,149.8,222.6,149.9C222.6,149.9,222.6,149.9,222.6,149.9z"/>
					<path class="st10" d="M206.9,165.9c0.7,0.4,3.7,0.3,7.2-0.8c-2.7-1.7-4-2.6-6.4-4.2C206.3,163.4,206.3,165.4,206.9,165.9z"/>
					<path class="st10" d="M224,159.1c2.5-0.1,3.6-0.2,5.8-0.4c0.6-0.8,0.8-1.2,1.3-2c-1.4-0.4-3-1.1-4.8-2.1
						C225.9,156,225.1,157.6,224,159.1z"/>
					<path class="st10" d="M219.7,149.6c-1.1-1.1-1.9-2.1-2.5-3.1c-0.6,0.5-1.4,0.9-2.3,1.1c0,1.9,0,2.9,0.1,4.9
						C216.6,151.4,218.3,150.4,219.7,149.6z"/>
				</g>
				<g>
					<path class="st11" d="M226,148.4c0.7-0.8,1.2-1.8,1.6-2.8c0.4-1,0.7-2,0.8-3.1c0-0.5-0.1-1.1-0.2-1.6c-0.2-0.5-0.4-1-0.8-1.4
						c-0.7-0.8-1.7-1.4-2.6-1.8c-0.5-0.2-1-0.4-1.5-0.5c-0.5-0.1-1-0.3-1.6-0.3c-1.1-0.2-2.2-0.3-3.2-0.4c-2.2-0.1-4.4-0.1-6.7,0
						c1.1-0.1,2.2-0.1,3.4-0.1c1.1,0,2.2,0,3.3,0.1c1.1,0.1,2.2,0.2,3.3,0.3c0.5,0.1,1.1,0.2,1.6,0.3c0.5,0.1,1,0.3,1.6,0.5
						c1,0.4,2,1,2.7,1.9c0.3,0.4,0.6,0.9,0.8,1.5c0.2,0.5,0.2,1.1,0.2,1.7c0,1.1-0.4,2.2-0.8,3.2C227.3,146.6,226.7,147.5,226,148.4
						z"/>
				</g>
				<g>
					<path class="st11" d="M225.5,147.9c0.3-0.4,0.5-0.8,0.7-1.2c0.2-0.4,0.4-0.8,0.6-1.3c0.2-0.4,0.3-0.9,0.4-1.3
						c0.1-0.5,0.2-0.9,0.2-1.4s0-1-0.2-1.4c-0.1-0.5-0.4-0.9-0.6-1.3c-0.3-0.4-0.6-0.7-1-1c-0.2-0.2-0.4-0.3-0.6-0.4
						c-0.1-0.1-0.2-0.1-0.3-0.2c-0.1-0.1-0.2-0.1-0.3-0.2c0.2,0.1,0.4,0.2,0.6,0.3c0.2,0.1,0.4,0.2,0.6,0.4c0.4,0.3,0.8,0.6,1.1,1
						c0.3,0.4,0.5,0.8,0.7,1.3c0.1,0.5,0.2,1,0.2,1.5c0,1-0.3,1.9-0.7,2.8C226.6,146.3,226.1,147.1,225.5,147.9z"/>
				</g>
				<path class="st12" d="M212.6,162.6c-1.2-0.4-1.9-1.3-1.6-2.1c0.3-0.8,1.4-1.1,2.6-0.7c1.1,0.4,1.9,1.3,1.6,2.1
					C214.9,162.7,213.8,163,212.6,162.6z"/>
				<path class="st13" d="M212.6,162.6c-1.2-0.4-1.9-1.3-1.6-2.1c0.3-0.8,1.4-1.1,2.6-0.7c1.1,0.4,1.9,1.3,1.6,2.1
					C214.9,162.7,213.8,163,212.6,162.6z"/>
			</g>
		</g>
	</g>
</g>
<g>
	<circle class="st1" cx="180" cy="263" r="95.1"/>
	<path class="st15" d="M180,320.5c39.5,0,73.8-22.3,90.9-55c-1.3,49.1-41.5,88.4-90.9,88.4s-89.6-39.4-90.9-88.4
		C106.2,298.2,140.5,320.5,180,320.5z"/>
	<path class="st3" d="M180,320.5c-39.5,0-73.8-22.3-90.9-55c0-0.8,0-1.7,0-2.5c0-50.2,40.7-91,91-91s91,40.7,91,91
		c0,0.8,0,1.7,0,2.5C253.8,298.2,219.5,320.5,180,320.5z"/>
</g>
<ellipse class="st1" cx="174" cy="274.9" rx="68" ry="70.7"/>
<g>
	<defs>
		<ellipse id="SVGID_5_" cx="174.4" cy="275" rx="64.5" ry="66.5"/>
	</defs>
	<clipPath id="SVGID_6_">
		<use xlink:href="#SVGID_5_"  style="overflow:visible;"/>
	</clipPath>
	<g class="st16">
		<path class="st17" d="M239.9,258.1c0-8.2-1.5-13.3-9.1-15.2c-0.8-0.2-1.6-0.3-2.6-0.3c-4.3,0-11.1,1.8-18.2,3.7
			c-3.6,1-7.2,1.9-10.6,2.7c-8.9,2-21.9,2.3-25.7,2.4c-3.8-0.1-16.7-0.4-25.7-2.4c-3.3-0.7-7-1.7-10.6-2.7
			c-7.1-1.9-13.9-3.7-18.2-3.7c-1,0-1.9,0.1-2.6,0.3c-7.6,1.9-9.1,7-9.1,15.2v22c-0.6-0.1-1.2-0.1-1.8-0.1c0,0,0,0,0,0
			c-8.2-46.3-2.1-55.3,1.9-61.6c4.3-6.7,17.2-3.1,17.2-3.1s2.5-15.3,18.4-19c15.9-3.7,36.8,4.9,50.9,10.4
			c14.1,5.5,18.4,6.1,30.6,6.1c12.3,0,20.8-14.7,20.8-14.7c6.7,35.9,0,67.5-4.1,81.9c-0.5,0-1,0.1-1.4,0.2V258.1z"/>
		<path class="st18" d="M240.4,283.2c0.6-0.1,1.3-0.2,2-0.2c0.4,0,0.9,0,1.3,0.1c5,0.6,8.8,4.9,8.8,10c0,5.6-4.5,10.1-10.1,10.1
			c-0.8,0-1.7-0.1-2.5-0.3v-11.7v-6.6v-1.4C240,283.3,240.2,283.3,240.4,283.2z"/>
		<path class="st18" d="M103.2,283.4c0.8-0.2,1.7-0.3,2.5-0.3c0.2,0,0.4,0,0.5,0c0.4,0,0.9,0.1,1.3,0.1v6.7v4.6v8.6
			c-0.6,0.1-1.2,0.2-1.8,0.2c-5.6,0-10.1-4.5-10.1-10.1C95.6,288.4,98.8,284.5,103.2,283.4z"/>
		<path class="st1" d="M92.5,293.1c0,7.3,5.9,13.2,13.2,13.2c0.6,0,1.2-0.1,1.8-0.1v40.3l61.9,0.5v0l3.1,0l1.2,0l4.3,0v-0.1
			l61.9-0.5v-40.4c0.8,0.2,1.6,0.2,2.5,0.2c7.3,0,13.2-5.9,13.2-13.2c0-6.5-4.8-12-11-13c4.2-15,10.7-46.5,3.9-82.6l-1.5-8.1
			l-4.1,7.1c-0.1,0.1-7.9,13.2-18.2,13.2c-11.9,0-15.7-0.5-29.5-5.9l-1.7-0.7c-11.7-4.6-27.7-10.9-41.9-10.9c-3.2,0-6.3,0.3-9.1,1
			c-13.3,3.1-18.2,13.2-19.9,18.4c-1.5-0.2-3.3-0.5-5.2-0.5c-7.3,0-10.7,3-12.3,5.5l-0.1,0.2c-4.3,6.7-10.5,16.5-2.2,63.5
			C96.8,281.7,92.5,286.9,92.5,293.1z M241.3,280c-0.5,0-1,0.1-1.4,0.2v-22.1c0-8.2-1.5-13.3-9.1-15.2c-0.8-0.2-1.6-0.3-2.6-0.3
			c-4.3,0-11.1,1.8-18.2,3.7c-3.6,1-7.2,1.9-10.6,2.7c-8.9,2-21.9,2.3-25.7,2.4c-3.8-0.1-16.7-0.4-25.7-2.4c-3.3-0.7-7-1.7-10.6-2.7
			c-7.1-1.9-13.9-3.7-18.2-3.7c-1,0-1.9,0.1-2.6,0.3c-7.6,1.9-9.1,7-9.1,15.2v22c-0.6-0.1-1.2-0.1-1.8-0.1c0,0,0,0,0,0
			c-8.2-46.3-2.1-55.3,1.9-61.6c4.3-6.7,17.2-3.1,17.2-3.1s2.5-15.3,18.4-19c15.9-3.7,36.8,4.9,50.9,10.4
			c14.1,5.5,18.4,6.1,30.6,6.1c12.3,0,20.8-14.7,20.8-14.7C252.1,234,245.4,265.6,241.3,280z M239.9,302.9v-11.7v-6.6v-1.4
			c0.2,0,0.3-0.1,0.5-0.1c0.6-0.1,1.3-0.2,2-0.2c0.4,0,0.9,0,1.3,0.1c5,0.6,8.8,4.9,8.8,10c0,5.6-4.5,10.1-10.1,10.1
			C241.5,303.2,240.7,303.1,239.9,302.9z M110.6,305.4c0-1.1,0-2.2,0-3.4c0-2.5,0-5.1,0-7.6c0-1,0-2,0-3.1c0-2.4,0-4.8,0-7
			c0-1.1,0-2.3,0-3.4c0-11.2,0-20.2,0-22.8c0-8.6,1.8-11,6.7-12.3c4.9-1.2,19,3.7,30,6.1c9.2,2.1,22.3,2.4,26.4,2.4
			c4-0.1,17.1-0.4,26.4-2.4c11-2.5,25.1-7.4,30-6.1c4.9,1.2,6.7,3.7,6.7,12.3c0,2.6,0,11.7,0,23.1c0,1.1,0,2.3,0,3.5
			c0,1.2,0,2.4,0,3.6c0,1,0,2,0,3.1c0,3.4,0,6.8,0,10.3c0,1.2,0,2.3,0,3.5c0,19.8,0,38.3,0,38.3l-61.9,0.5v0l-1.2,0l-1.2,0v0
			l-61.9-0.5C110.6,343.4,110.6,325.1,110.6,305.4z M95.6,293.1c0-4.7,3.2-8.7,7.6-9.8c0.8-0.2,1.7-0.3,2.5-0.3c0.2,0,0.4,0,0.5,0
			c0.4,0,0.9,0.1,1.3,0.1v6.7v4.6v8.6c-0.6,0.1-1.2,0.2-1.8,0.2C100.1,303.2,95.6,298.7,95.6,293.1z"/>
		<path class="st18" d="M117.3,245.8c4.9-1.2,19,3.7,30,6.1c9.2,2.1,22.3,2.4,26.4,2.4c4-0.1,17.1-0.4,26.4-2.4
			c11-2.5,25.1-7.4,30-6.1c4.9,1.2,6.7,3.7,6.7,12.3c0,2.6,0,11.7,0,23.1c0,1.1,0,2.3,0,3.5c0,1.2,0,2.4,0,3.6c0,1,0,2,0,3.1
			c0,3.4,0,6.8,0,10.3c0,1.2,0,2.3,0,3.5c0,19.8,0,38.3,0,38.3l-61.9,0.5v0l-1.2,0l-1.2,0v0l-61.9-0.5c0,0,0-18.3,0-38
			c0-1.1,0-2.2,0-3.4c0-2.5,0-5.1,0-7.6c0-1,0-2,0-3.1c0-2.4,0-4.8,0-7c0-1.1,0-2.3,0-3.4c0-11.2,0-20.2,0-22.8
			C110.6,249.5,112.4,247.1,117.3,245.8z"/>
	</g>
	<path class="st19" d="M204.6,290.9v-6.6c0-2.3-1.9-4.2-4.2-4.2c-2.3,0-4.2,1.9-4.2,4.2v6.6h-3v-6.6c0-3.9,3.2-7.2,7.2-7.2
		c3.9,0,7.2,3.2,7.2,7.2v6.6H204.6z"/>
	<path class="st19" d="M138.4,290.9v-6.6c0-2.3-1.9-4.2-4.2-4.2c-2.3,0-4.2,1.9-4.2,4.2v6.6h-3v-6.6c0-3.9,3.2-7.2,7.2-7.2
		c3.9,0,7.2,3.2,7.2,7.2v6.6H138.4z"/>
	<path class="st20" d="M181.5,320.3c-2-4.4-7.9-7.6-14.8-7.6c-6.6,0-12.3,2.9-14.5,7.1c-3.8-3.5-6.1-8.3-6.2-13.7h42.3
		C188.3,311.7,185.6,316.8,181.5,320.3z"/>
	<path class="st21" d="M146,305.8c0-1.3,0.1-2.6,0.4-3.9c1.4-0.8,3-1.2,4.7-1.2h32.2c1.7,0,3.3,0.4,4.7,1.2c0.3,1.3,0.4,2.6,0.4,3.9
		c0,0.1,0,0.2,0,0.3H146C146,306,146,305.9,146,305.8z"/>
	<path class="st22" d="M166.7,312.7c6.9,0,12.7,3.2,14.8,7.6c0,0-0.1,0.1-0.1,0.1c-3.8,3.2-8.7,5.1-14.2,5.1s-10.4-1.9-14.2-5.1
		c-0.3-0.2-0.5-0.4-0.7-0.7C154.5,315.6,160.1,312.7,166.7,312.7z"/>
</g>
<path class="st23" d="M141.2,217.9c8.3,17.1,35.5,18.6,60.8,26.9c15.9,5.2,28,16.5,35.6,25.6c0.1,1.5,0.2,3,0.2,4.5
	c0,30.8-20.1,56.7-47.3,64.3c-30.9-4.7-55.6-19.3-72.9-33.1c-4.7-9.3-7.4-19.9-7.4-31.1C110.2,250.7,122.6,229.5,141.2,217.9z"/>
<path class="st2" d="M101.3,272.8c0,43.4,34,78.7,75.7,78.7s75.7-35.3,75.7-78.7s-34-78.7-75.7-78.7S101.3,229.4,101.3,272.8z
	 M105.4,272.8c0-41.1,32-74.4,71.6-74.4s71.6,33.3,71.6,74.4s-32,74.4-71.6,74.4S105.4,313.9,105.4,272.8z"/>
<circle class="st24" cx="151.1" cy="250" r="25.5"/>
<ellipse transform="matrix(0.5 -0.866 0.866 0.5 -123.95 242.021)" class="st25" cx="147.6" cy="228.4" rx="10.4" ry="7.5"/>
<ellipse transform="matrix(0.5 -0.866 0.866 0.5 -153.0175 238.4106)" class="st25" cx="130" cy="251.7" rx="5" ry="5.6"/>
<path class="st1" d="M338.9,236.6L338.9,236.6c-1.1,0-2-0.9-2-2v-36.3c0-1.1,0.9-2,2-2l0,0c1.1,0,2,0.9,2,2v36.3
	C340.9,235.7,340,236.6,338.9,236.6z"/>
<path class="st1" d="M338.9,191.3L338.9,191.3c-1.1,0-2-0.9-2-2v-10.8c0-1.1,0.9-2,2-2l0,0c1.1,0,2,0.9,2,2v10.8
	C340.9,190.4,340,191.3,338.9,191.3z"/>
<path class="st1" d="M40.9,193.6L40.9,193.6c-1.1,0-2-0.9-2-2v-23.2c0-1.1,0.9-2,2-2h0c1.1,0,2,0.9,2,2v23.2
	C42.9,192.7,42,193.6,40.9,193.6z"/>
<path class="st1" d="M40.9,163L40.9,163c-1.1,0-2-0.9-2-2v-6c0-1.1,0.9-2,2-2h0c1.1,0,2,0.9,2,2v6C42.9,162.1,42,163,40.9,163z"/>
<g>
	<path class="st1" d="M184.9,8.8L184.9,8.8c1.1,0,2,0.9,2,2v26.1c0,1.1-0.9,2-2,2h0c-1.1,0-2-0.9-2-2V10.8
		C182.9,9.7,183.8,8.8,184.9,8.8z"/>
	<path class="st1" d="M184.9,42.7L184.9,42.7c1.1,0,2,0.9,2,2v7.1c0,1.1-0.9,2-2,2h0c-1.1,0-2-0.9-2-2v-7.1
		C182.9,43.6,183.8,42.7,184.9,42.7z"/>
</g>
<path class="st1" d="M280.9,82.6L280.9,82.6c-1.1,0-2-0.9-2-2V57.4c0-1.1,0.9-2,2-2l0,0c1.1,0,2,0.9,2,2v23.2
	C282.9,81.7,282,82.6,280.9,82.6z"/>
<path class="st1" d="M280.9,52L280.9,52c-1.1,0-2-0.9-2-2v-6c0-1.1,0.9-2,2-2l0,0c1.1,0,2,0.9,2,2v6C282.9,51.1,282,52,280.9,52z"/>
<path class="st1" d="M290.9,60.5L290.9,60.5c-1.1,0-2-0.9-2-2v-11c0-1.1,0.9-2,2-2l0,0c1.1,0,2,0.9,2,2v11
	C292.9,59.6,292,60.5,290.9,60.5z"/>
<path class="st1" d="M290.9,38.5L290.9,38.5c-1.1,0-2-0.9-2-2v-26c0-1.1,0.9-2,2-2l0,0c1.1,0,2,0.9,2,2v26
	C292.9,37.6,292,38.5,290.9,38.5z"/>
<path class="st1" d="M349.9,234.3L349.9,234.3c-1.1,0-2-0.9-2-2v-10.8c0-1.1,0.9-2,2-2l0,0c1.1,0,2,0.9,2,2v10.8
	C351.9,233.4,351,234.3,349.9,234.3z"/>
<path class="st1" d="M47.9,181L47.9,181c-1.1,0-2-0.9-2-2v-36c0-1.1,0.9-2,2-2h0c1.1,0,2,0.9,2,2v36C49.9,180.1,49,181,47.9,181z"/>
<path class="st26" d="M130.9,149.5L130.9,149.5c-2.8,0-5-2.3-5-5v-47c0-2.7,2.2-5,5-5h0c2.8,0,5,2.3,5,5v47
	C135.9,147.3,133.6,149.5,130.9,149.5z"/>
<g>
	<path class="st1" d="M133.9,98.8L133.9,98.8c1.1,0,2,0.9,2,2v26.1c0,1.1-0.9,2-2,2h0c-1.1,0-2-0.9-2-2v-26.1
		C131.9,99.7,132.8,98.8,133.9,98.8z"/>
	<path class="st1" d="M133.9,132.7L133.9,132.7c1.1,0,2,0.9,2,2v7.1c0,1.1-0.9,2-2,2h0c-1.1,0-2-0.9-2-2v-7.1
		C131.9,133.6,132.8,132.7,133.9,132.7z"/>
</g>
<path class="st27" d="M237.6,288.8l-0.8,1c-20.7,58.7-83.1,47.3-92.3,45.5c8.8,4.5,18.7,7.1,29.3,7.1
	C205.5,342.5,231.8,319.4,237.6,288.8z"/>
<path class="st27" d="M162.6,209.1l-1,0.8c-58.9,20.1-48.3,82.6-46.6,91.7c-4.4-8.8-6.9-18.8-6.8-29.3
	C108.6,240.7,132,214.6,162.6,209.1z"/>
</svg>
