<?xml version="1.0" encoding="utf-8"?>
<!-- Generator: Adobe Illustrator 22.0.1, SVG Export Plug-In . SVG Version: 6.00 Build 0)  -->
<svg version="1.1" xmlns="http://www.w3.org/2000/svg" xmlns:xlink="http://www.w3.org/1999/xlink" x="0px" y="0px"
	 viewBox="0 0 128.6 348.1" style="enable-background:new 0 0 128.6 348.1;" xml:space="preserve">
<style type="text/css">
	.st0{display:none;fill:#063375;}
	.st1{fill:#FFFFFF;}
	.st2{display:none;}
	.st3{display:inline;fill:#FFFFFF;}
	.st4{display:inline;fill:#C74C3C;}
	.st5{display:inline;fill:#D25040;}
	.st6{display:inline;fill:#BA4739;}
	.st7{display:inline;opacity:0.25;fill:#343B47;}
	.st8{display:inline;fill:#5A6875;}
	.st9{display:inline;fill:#F3F8FF;}
	.st10{display:inline;fill:#414042;}
	.st11{display:inline;fill:#39B54A;}
	.st12{display:inline;fill:#B4B8BD;}
	.st13{display:inline;fill:#4D4D4D;}
	.st14{display:inline;fill:url(#SVGID_1_);}
	.st15{display:inline;opacity:0.25;fill:#FFFFFF;}
	.st16{filter:url(#Adobe_OpacityMaskFilter);}
	.st17{fill:url(#SVGID_3_);}
	.st18{mask:url(#SVGID_2_);fill:#FFFFFF;}
	.st19{fill:none;stroke:#E84443;stroke-width:6.2589;stroke-miterlimit:10;}
	.st20{fill:#E6E7E7;}
	.st21{fill:#CFD1D2;}
	.st22{fill:#E9571E;}
	.st23{fill:#E73E4A;}
	.st24{fill:#FFFFFF;stroke:#E84443;stroke-width:6.2589;stroke-miterlimit:10;}
	.st25{opacity:0.1;fill:#213565;}
</style>
<g id="Layer_1">
	<rect x="-6.7" y="37.1" class="st0" width="146.7" height="306"/>
	<g>
		<g>
			<path class="st1" d="M92.2,329.2c0.1-0.4,0.1-0.9,0.1-1.3c0-2.5-1.1-4.7-2.9-6.3c0-0.1,0-0.2,0-0.4c0-0.8-0.5-1.5-1.2-1.5
				c0-1.3-0.2-2.6-0.4-3.6c0.3-0.7,0.4-1.5,0.4-2.3c0-1.9-0.8-3.7-2.2-4.9c0.1-0.4,0.2-0.8,0.2-1.2c0-0.6-0.1-1.1-0.4-1.6
				c0.5-1.3,0.7-2.8,0.7-4.5c0-2.9-0.9-5.5-2.1-7c0.2-0.2,0.2-0.4,0.2-0.7c0-0.3-0.1-0.6-0.3-0.7c0.4-0.7,0.6-1.6,0.6-2.6
				c0-1.2-0.3-2.3-0.8-3.1c0,0,0-0.1,0-0.1c0-1.1-0.2-2.1-0.6-2.8c0.1-0.4,0.2-0.8,0.2-1.2c0-1.2-0.5-2.3-1.2-3.1
				c0.5-0.6,0.8-1.4,0.8-2.4c0-1-0.4-1.9-0.9-2.5c0.4-0.6,0.7-1.5,0.7-2.5c0-1.1-0.3-2.1-0.8-2.7c-0.1-0.5-0.2-0.9-0.5-1.2
				c0.1-0.6,0.2-1.4,0.2-2.2c0-0.5,0-1-0.1-1.5c0.2-0.6,0.4-1.3,0.4-2.1c0-1.2-0.3-2.3-0.9-3c0-0.4,0-0.8,0-1.2
				c0-1.2-0.1-2.3-0.4-3.3c0.4-1.2,0.6-2.5,0.6-3.9c0-0.3,0-0.5,0-0.8c0-0.3,0-0.6,0-0.9c0-0.2,0-0.4,0-0.7c0.3-0.4,0.5-0.9,0.5-1.4
				c0-0.8-0.4-1.4-1-1.8c-0.2-0.8-0.5-1.5-0.9-1.9c0.5-1.2,0.8-2.6,0.8-4.1c0-0.1,0-0.3,0-0.4c0.2-0.3,0.2-0.7,0.2-1.1
				c0-0.7-0.3-1.3-0.7-1.7c-0.3-1.1-0.9-2-1.5-2.7c0.2-0.6,0.3-1.2,0.3-1.8c0-1.2-0.3-2.2-0.9-3.1c0-0.1,0-0.1,0-0.2
				c0-0.5-0.2-1-0.5-1.4c0.4-0.5,0.6-1.2,0.6-1.9c0-0.2,0-0.4,0-0.6c0.3-0.7,0.4-1.5,0.4-2.3c0-1.4-0.4-2.7-1.1-3.6
				c-0.1-1-0.4-2-0.8-2.7c0-0.3-0.1-0.5-0.2-0.7l0-0.4c0.2-0.3,0.3-0.7,0.3-1.1c0-0.5-0.2-1-0.5-1.4c0.2-0.8,0.3-1.7,0.3-2.6
				c0-0.6,0-1.1-0.1-1.6c0-0.1,0-0.2,0-0.3c0-1.2-0.3-2.3-0.9-3l0-0.2c0.6-0.8,0.9-2,0.9-3.2c0-1.6-0.6-3.1-1.5-3.9l-0.2-2.7
				c0.2-0.8,0.3-1.8,0.3-2.8c0-1.7-0.3-3.2-0.7-4.1c0.1-0.3,0.1-0.5,0.1-0.8c0-0.5-0.1-0.9-0.2-1.3c0.2-0.5,0.3-1.1,0.3-1.7
				c0-0.1,0-0.2,0-0.3c0.1-0.3,0.2-0.6,0.2-0.9c0-0.8-0.4-1.5-1.1-1.9l-0.1-1.2c0.3-0.2,0.4-0.6,0.4-1c0-0.5-0.2-0.9-0.6-1.1
				l-0.1-0.7c0.2-0.2,0.4-0.6,0.4-0.9c0-0.3-0.1-0.6-0.3-0.8c-0.1-0.2-0.1-0.3-0.3-0.4l0-0.6c0.3-0.2,0.4-0.6,0.4-1
				c0-0.1,0-0.3-0.1-0.4c0,0,0,0,0,0c0-0.4-0.2-0.8-0.6-1.1l0-0.4c0.2-0.2,0.3-0.5,0.3-0.8c0-0.2,0-0.3-0.1-0.5
				c0.3-0.2,0.5-0.6,0.5-1c0-0.6-0.4-1.1-1-1.3l-0.4-4.2l-7.3,0l-7.3,0l-0.5,5.5c-0.1,0.2-0.2,0.5-0.2,0.7c0,0.2,0,0.4,0.1,0.6
				l-0.1,1.7c-0.4,0.2-0.6,0.6-0.6,1.1c0,0.4,0.2,0.7,0.4,1l0,0.6c-0.2,0.2-0.3,0.5-0.3,0.9c0,0.3,0.1,0.5,0.2,0.7l-0.1,1.3
				c-0.4,0.2-0.6,0.6-0.6,1.1c0,0.4,0.2,0.7,0.4,1l-0.1,1.2c-0.6,0.4-1.1,1.1-1.1,1.9c0,0.7,0.3,1.3,0.8,1.7l-0.1,0.6
				c-0.3,0.6-0.5,1.2-0.5,1.9c0,0.3,0,0.5,0.1,0.8c-0.4,1-0.7,2.5-0.7,4.1c0,1,0.1,2,0.3,2.8l-0.2,2.7c-0.9,0.8-1.5,2.3-1.5,3.9
				c0,1.2,0.3,2.3,0.9,3.2l0,0.2c-0.5,0.7-0.9,1.8-0.9,3c0,0.1,0,0.2,0,0.3c-0.1,0.5-0.1,1-0.1,1.6c0,0.9,0.1,1.8,0.3,2.6
				c-0.3,0.4-0.5,0.9-0.5,1.4c0,0.4,0.1,0.8,0.3,1.1l0,0.4c-0.1,0.2-0.2,0.4-0.2,0.7c-0.4,0.7-0.7,1.6-0.8,2.7
				c-0.7,0.9-1.1,2.2-1.1,3.6c0,0.8,0.1,1.6,0.4,2.3c0,0.2-0.1,0.4-0.1,0.6c0,0.7,0.2,1.4,0.6,1.9c-0.3,0.4-0.5,0.9-0.5,1.4
				c0,0.1,0,0.1,0,0.2c-0.5,0.8-0.9,1.9-0.9,3.1c0,0.7,0.1,1.3,0.3,1.8c-0.6,0.7-1.1,1.6-1.5,2.7c-0.4,0.4-0.7,1-0.7,1.7
				c0,0.4,0.1,0.7,0.2,1.1c0,0.1,0,0.3,0,0.4c0,1.5,0.3,2.9,0.8,4.1c-0.4,0.5-0.7,1.1-0.9,1.9c-0.6,0.4-1,1.1-1,1.8
				c0,0.5,0.2,1,0.5,1.4c0,0.2,0,0.4,0,0.7c0,0.3,0,0.6,0,0.9c0,0.3,0,0.5,0,0.8c0,1.4,0.2,2.7,0.6,3.9c-0.2,1-0.4,2.2-0.4,3.3
				c0,0.4,0,0.8,0,1.2c-0.5,0.7-0.9,1.8-0.9,3c0,0.8,0.1,1.5,0.4,2.1c-0.1,0.5-0.1,1-0.1,1.5c0,0.8,0.1,1.6,0.2,2.2
				c-0.2,0.3-0.4,0.7-0.5,1.2c-0.5,0.6-0.8,1.6-0.8,2.7c0,1,0.3,1.9,0.7,2.5c-0.6,0.6-0.9,1.5-0.9,2.5c0,0.9,0.3,1.8,0.8,2.4
				c-0.7,0.8-1.2,1.9-1.2,3.1c0,0.4,0.1,0.8,0.2,1.2c-0.4,0.7-0.6,1.7-0.6,2.8c0,0,0,0.1,0,0.1c-0.5,0.8-0.8,1.9-0.8,3.1
				c0,1,0.2,1.9,0.6,2.6c-0.2,0.2-0.3,0.4-0.3,0.7c0,0.3,0.1,0.5,0.2,0.7c-1.3,1.5-2.1,4.1-2.1,7c0,1.7,0.3,3.2,0.7,4.5
				c-0.2,0.4-0.4,1-0.4,1.6c0,0.4,0.1,0.8,0.2,1.2c-1.3,1.2-2.2,2.9-2.2,4.9c0,0.8,0.2,1.6,0.4,2.3c-0.3,1.1-0.4,2.3-0.4,3.6
				c-0.7,0.1-1.2,0.7-1.2,1.5c0,0.1,0,0.2,0,0.3c-1.8,1.6-2.9,3.8-2.9,6.3c0,0.4,0,0.9,0.1,1.3c-0.9,1.5-1.5,3.3-1.5,5.2
				c0,5.5,3.7,8.7,9.3,8.7c1.8,0,4.1,0,5.8,0l13.4,0l13.4,0c2.1,0,4,0,5.8,0c5.5,0,9.3-3.1,9.3-8.7
				C93.6,332.5,93.1,330.7,92.2,329.2z"/>
		</g>
		<path class="st1" d="M128.6,308.6c0-1.4-0.7-2.6-1.7-3.3c0-0.2,0-0.5,0-0.7c0-3.8-3.1-6.8-6.8-6.8c-1.5,0-3,0.5-4.1,1.4
			c-0.9-2.3-3.1-4-5.8-4c-2.5,0-4.7,1.5-5.6,3.6c-1.2-1.4-3-2.3-5-2.3c-0.2,0-0.4,0-0.6,0c0.3-0.8,0.5-1.7,0.5-2.7c0-3.9-3.1-7-7-7
			c-0.3,0-0.6,0-0.9,0.1c-0.6-1.3-1.9-2.2-3.5-2.3l-23.5,1c-2,0-3.8,1.2-4.7,2.8c-0.6-0.2-1.3-0.4-2.1-0.4c-0.8,0-1.6,0.2-2.3,0.5
			c-1.9-1.8-4.4-2.9-7.3-2.9c-5,0-9.2,3.5-10.2,8.2c-0.4-0.1-0.9-0.2-1.3-0.2c-1.6,0-3.1,0.8-3.9,2c-1.2-0.3-2.5-0.5-3.8-0.5
			c-6.4,0-11.7,4.2-13.5,9.9c-0.9-0.4-1.8-0.6-2.9-0.6c-3.8,0-6.8,3.1-6.8,6.8c0,0.5,0.1,1,0.2,1.5l21.7,15.5l71.6-0.5l27.8-15
			c-0.2-0.2-0.4-0.4-0.5-0.5C127.7,311.4,128.6,310.1,128.6,308.6z"/>
		<g class="st2">
			<path class="st3" d="M50.1,152.6c-1.4,0-2.6-1.2-2.6-2.6V86.6c0-2.7,8.2-18.1,8.2-18.1c1.9-3,5.2-8.9,8.8-8.9
				c3.6,0,7,5.9,8.8,8.9c0,0,8.2,16.6,8.2,19.1V150c0,1.4-1.2,2.6-2.6,2.6H50.1z"/>
			<polygon class="st4" points="80.2,103.7 111.8,133 111.8,148.7 80.2,148.7 			"/>
			<polygon class="st5" points="110.8,147.7 110.8,133.4 81.2,106 81.2,147.7 			"/>
			<path class="st6" d="M101.4,152.7L101.4,152.7c1.2,0,2.2-1,2.2-2.2v-8c0-1.2-1-2.2-2.2-2.2l0,0c-1.2,0-2.2,1-2.2,2.2v8
				C99.3,151.8,100.3,152.7,101.4,152.7z"/>
			<path class="st6" d="M92.2,152.7L92.2,152.7c1.2,0,2.2-1,2.2-2.2v-8c0-1.2-1-2.2-2.2-2.2l0,0c-1.2,0-2.2,1-2.2,2.2v8
				C90,151.8,91,152.7,92.2,152.7z"/>
			<polygon class="st7" points="81.1,104.6 82.2,105.6 82.2,148.7 81.1,148.7 			"/>
			<rect x="53.9" y="152" class="st8" width="22" height="3.2"/>
			<rect x="50.7" y="155.2" class="st8" width="28.3" height="4.7"/>
			<rect x="48" y="159.5" class="st8" width="33.8" height="6.2"/>
			<polygon class="st4" points="48.9,103.7 17.3,133 17.3,148.7 48.9,148.7 			"/>
			<polygon class="st5" points="18.3,147.7 18.3,133.4 47.9,106 47.9,147.7 			"/>
			<path class="st9" d="M81.1,150c0,1.2-0.9,2.1-2.1,2.1h-29c-1.2,0-2.1-0.9-2.1-2.1V86.6c0-3,8.2-17.9,8.2-17.9
				c1.8-2.9,5-8.7,8.4-8.7c3.4,0,6.6,5.8,8.4,8.7c0,0,8.2,15.9,8.2,18.9V150z"/>
			<rect x="52.8" y="131.1" class="st5" width="23.5" height="3.3"/>
			<rect x="52.8" y="138.7" class="st5" width="23.5" height="3.3"/>
			<rect x="53.9" y="154.5" class="st10" width="22" height="0.7"/>
			<rect x="50.7" y="159.1" class="st10" width="28.3" height="0.4"/>
			<rect x="63.6" y="129.2" class="st5" width="1.9" height="3.2"/>
			<rect x="59.4" y="129.2" class="st5" width="1.9" height="3.2"/>
			<rect x="55.2" y="129.2" class="st5" width="1.9" height="3.2"/>
			
				<rect x="67.8" y="129.2" transform="matrix(-1 -1.224647e-16 1.224647e-16 -1 137.5633 261.4985)" class="st5" width="1.9" height="3.2"/>
			
				<rect x="72.1" y="129.2" transform="matrix(-1 -1.224647e-16 1.224647e-16 -1 146.0153 261.4985)" class="st5" width="1.9" height="3.2"/>
			<path class="st6" d="M27.7,152.7L27.7,152.7c-1.2,0-2.2-1-2.2-2.2v-8c0-1.2,1-2.2,2.2-2.2l0,0c1.2,0,2.2,1,2.2,2.2v8
				C29.8,151.8,28.9,152.7,27.7,152.7z"/>
			<path class="st6" d="M36.9,152.7L36.9,152.7c-1.2,0-2.2-1-2.2-2.2v-8c0-1.2,1-2.2,2.2-2.2l0,0c1.2,0,2.2,1,2.2,2.2v8
				C39.1,151.8,38.1,152.7,36.9,152.7z"/>
			<polygon class="st7" points="48,104.6 46.9,105.6 46.9,148.7 48,148.7 			"/>
			<circle class="st11" cx="54.2" cy="108.6" r="1"/>
			<circle class="st11" cx="54.2" cy="112" r="1"/>
			<circle class="st11" cx="54.2" cy="115.4" r="1"/>
			<path class="st12" d="M64.5,103.9c-6.3,0-9.5-2.9-9.5-8.5c0-5.8,3.6-16.5,9.5-16.5c5.9,0,9.5,10.7,9.5,16.5
				C74,101,70.8,103.9,64.5,103.9z"/>
			<path class="st13" d="M64.5,102.9c-5.7,0-8.5-2.5-8.5-7.5c0-5.4,3.5-15.5,8.5-15.5c5,0,8.5,10.1,8.5,15.5
				C73,100.4,70.2,102.9,64.5,102.9z"/>
			
				<linearGradient id="SVGID_1_" gradientUnits="userSpaceOnUse" x1="154.7983" y1="115.1998" x2="154.7983" y2="135.7005" gradientTransform="matrix(1 0 0 1 -90.3246 -33.9663)">
				<stop  offset="0" style="stop-color:#2EC8C7"/>
				<stop  offset="1" style="stop-color:#2CBDBC"/>
			</linearGradient>
			<path class="st14" d="M72.5,95.4c0,5.5-3.6,7-8,7s-8-1.5-8-7c0-5.5,3.6-15,8-15S72.5,89.9,72.5,95.4z"/>
			<path class="st15" d="M67.9,85.8c0.3,0.7,0.4,1.3,0.1,1.5c-0.3,0.2-0.8-0.2-1.2-0.9c-0.3-0.7-0.4-1.3-0.1-1.5
				C67,84.7,67.6,85.1,67.9,85.8z"/>
			<path class="st15" d="M61.6,88.9c-0.5,1.5-1.4,2.5-2,2.3c-0.6-0.2-0.7-1.6-0.1-3c0.5-1.5,1.4-2.5,2-2.3
				C62,86.1,62.1,87.4,61.6,88.9z"/>
		</g>
		<defs>
			<filter id="Adobe_OpacityMaskFilter" filterUnits="userSpaceOnUse" x="0" y="0" width="128.6" height="348.1">
				<feColorMatrix  type="matrix" values="1 0 0 0 0  0 1 0 0 0  0 0 1 0 0  0 0 0 1 0"/>
			</filter>
		</defs>
		<mask maskUnits="userSpaceOnUse" x="0" y="0" width="128.6" height="348.1" id="SVGID_2_">
			<g class="st16">
				
					<radialGradient id="SVGID_3_" cx="151.5207" cy="14487.9082" r="74.1965" gradientTransform="matrix(0.8328 0 -6.000000e-06 2.1282 -61.812 -30659.6836)" gradientUnits="userSpaceOnUse">
					<stop  offset="0" style="stop-color:#757575"/>
					<stop  offset="0.3037" style="stop-color:#474747"/>
					<stop  offset="0.6074" style="stop-color:#212121"/>
					<stop  offset="0.85" style="stop-color:#090909"/>
					<stop  offset="1" style="stop-color:#000000"/>
				</radialGradient>
				<ellipse class="st17" cx="64.3" cy="174.1" rx="64.3" ry="174.1"/>
			</g>
		</mask>
		<ellipse class="st18" cx="64.3" cy="174.1" rx="64.3" ry="174.1"/>
	</g>
</g>
<g id="SHIP">
	<g>
		<circle class="st19" cx="65.8" cy="89.6" r="7.8"/>
		<g>
			<g>
				<path class="st20" d="M66.2,53.8c-5.2,0-21,27.8-21.3,62.3c-0.1,15.9,1.7,30.5,4.9,41.5c4.9-0.6,10.1-0.9,15.5-0.8
					c5.4,0,10.6,0.4,15.5,1.1c3.4-11,5.5-25.5,5.6-41.4C86.7,81.9,71.3,53.8,66.2,53.8z M65.8,97.9c-4.3,0-7.8-3.6-7.7-7.9
					c0-4.3,3.6-7.8,7.9-7.7c4.3,0,7.8,3.6,7.7,7.9C73.6,94.5,70.1,97.9,65.8,97.9z"/>
				<g>
					<path class="st21" d="M86.4,116.4c0.3-34.5-15.1-62.6-20.2-62.7l0,0l-0.2,28.5l0,0c4.3,0,7.8,3.6,7.7,7.9
						c0,4.3-3.6,7.8-7.9,7.7l0,0l-0.5,58.9c5.4,0,10.6,0.4,15.5,1.1C84.1,146.9,86.3,132.3,86.4,116.4z"/>
				</g>
				<path class="st22" d="M73,165.9c0-0.8-0.1-1.5-0.3-2.2c0-0.1,0-0.1,0-0.2c0,0,0,0,0,0c-1-3.1-3.9-5.4-7.4-5.5
					c-3.5,0-6.4,2.2-7.5,5.3c0,0,0,0,0,0c0,0.1,0,0.1,0,0.2c-0.2,0.7-0.3,1.4-0.3,2.2c0,0.2,0,0.3,0,0.5c0,0.2,0,0.4,0,0.6
					c-0.1,6.3,7.7,11.5,7.7,11.5s7.9-5.1,7.9-11.4c0-0.2,0-0.4,0-0.6C73,166.2,73,166.1,73,165.9z"/>
				<path class="st23" d="M66.2,53.8c-2.9,0-9.2,8.8-14.2,22.7L80,76.7C75.2,62.7,69.1,53.8,66.2,53.8z"/>
				<path class="st23" d="M42.8,130.6l-17.8,19.7l-0.1,13.3c6-2.7,13.7-4.7,22.3-5.8C44.9,149.9,43.4,140.6,42.8,130.6z"/>
				<path class="st23" d="M83.4,158.1c7,1,13.3,2.7,18.6,4.7c0.2-4.1,1.4-8.1,3.6-11.8l-17.4-19.4C87.3,141.3,85.7,150.4,83.4,158.1
					z"/>
			</g>
			<circle class="st24" cx="65.8" cy="90.1" r="7.8"/>
		</g>
		<path class="st25" d="M70.8,83.6c-5.2,2.4-8.2,7.7-7.9,13.2c1.9,0.8,4,0.8,6,0c4-1.7,5.8-6.3,4.1-10.2
			C72.5,85.3,71.7,84.4,70.8,83.6z"/>
	</g>
</g>
</svg>
