
<svg width="468px" height="442px" viewBox="0 0 468 442" version="1.1" xmlns="http://www.w3.org/2000/svg" xmlns:xlink="http://www.w3.org/1999/xlink">
    <!-- Generator: Sketch 49 (51002) - http://www.bohemiancoding.com/sketch -->
    <desc>Created with Sketch.</desc>
    <defs>
        <polygon id="path-1" points="0 0.515835534 259.312801 0.515835534 259.312801 155.573431 0 155.573431"></polygon>
        <polygon id="path-3" points="0 0.684267825 259.312801 0.684267825 259.312801 155.742187 0 155.742187"></polygon>
        <polygon id="path-5" points="0.0144822312 0.108240317 283.041207 0.108240317 283.041207 163.817708 0.0144822312 163.817708"></polygon>
        <polygon id="path-7" points="0.430872441 0.63294 113.66244 0.63294 113.66244 107.614324 0.430872441 107.614324"></polygon>
        <polygon id="path-9" points="0 0.5277195 33.5722444 0.5277195 33.5722444 68.1700369 0 68.1700369"></polygon>
        <polygon id="path-11" points="0.0591886395 0.3528525 42.3033701 0.3528525 42.3033701 66.1741544 0.0591886395 66.1741544"></polygon>
    </defs>
    <g id="Page-1" stroke="none" stroke-width="1" fill="none" fill-rule="evenodd">
        <g id="Artboard" transform="translate(-247.000000, -1389.000000)">
            <g id="Content-Left-Image" transform="translate(247.000000, 1388.000000)">
                <g id="Image" transform="translate(0.000000, 1.000000)">
                    <g id="Browser">
                        <polygon id="Fill-1" fill="#FFFFFF" points="8.507012 422.898509 316.741674 244.797512 316.741674 5.06529297 8.507012 183.16629"></polygon>
                        <polygon id="Fill-2" fill="#F2F6F9" points="8.507012 213.066137 316.741674 34.9651396 316.741674 5.06610052 8.507012 183.167098"></polygon>
                        <g id="Charts" transform="translate(38.040000, 88.984375)">
                            <path d="M254.792957,9.74623073 L183.791874,50.7721839 C181.296219,52.2142411 179.27203,51.3582359 179.27203,48.8594391 C179.27203,46.3617958 181.296219,43.1685042 183.791874,41.7264469 L254.792957,0.70049375 C257.289765,-0.741563542 259.312801,0.114441667 259.312801,2.6120849 C259.312801,5.10972812 257.289765,8.30417344 254.792957,9.74623073" id="Fill-1" fill="#A3BBC4"></path>
                            <path d="M254.792957,34.541656 L183.791874,75.5676091 C181.296219,77.0096664 179.27203,76.1536612 179.27203,73.656018 C179.27203,71.1572211 181.296219,67.9639294 183.791874,66.5218721 L254.792957,25.495919 C257.289765,24.0538617 259.312801,24.9098669 259.312801,27.4075102 C259.312801,29.9051534 257.289765,33.0995987 254.792957,34.541656" id="Fill-3" fill="#FF1C48"></path>
                            <path d="M254.792957,81.1201065 L183.791874,122.14606 C181.296219,123.588117 179.27203,122.732112 179.27203,120.234468 C179.27203,117.736825 181.296219,114.54238 183.791874,113.100323 L254.792957,72.0743695 C257.289765,70.6323122 259.312801,71.4883174 259.312801,73.9859607 C259.312801,76.4836039 257.289765,79.6780492 254.792957,81.1201065" id="Fill-5" fill="#FFB60E"></path>
                            <path d="M254.792957,105.916224 L183.791874,146.941023 C181.296219,148.383081 179.27203,147.528229 179.27203,145.030586 C179.27203,142.531789 181.296219,139.338497 183.791874,137.895286 L254.792957,96.870487 C257.289765,95.4284297 259.312801,96.2844349 259.312801,98.7820781 C259.312801,101.279721 257.289765,104.474167 254.792957,105.916224" id="Fill-7" fill="#A3BBC4"></path>
                            <g id="Group-11" transform="translate(0.000000, 130.056263)">
                                <mask id="mask-2" fill="white">
                                    <use xlink:href="#path-1"></use>
                                </mask>
                                <g id="Clip-10"></g>
                                <path d="M254.792957,10.2620258 L4.51972836,154.872685 C2.02292109,156.314742 -0.000115272727,155.45989 -0.000115272727,152.962247 C-0.000115272727,150.464604 2.02292109,147.269005 4.51972836,145.826948 L254.792957,1.2162888 C257.289765,-0.22576849 259.312801,0.630236719 259.312801,3.12787995 C259.312801,5.62552318 257.289765,8.81996849 254.792957,10.2620258" id="Fill-9" fill="#A3BBC4" mask="url(#mask-2)"></path>
                            </g>
                            <g id="Group-14" transform="translate(0.000000, 151.975534)">
                                <mask id="mask-4" fill="white">
                                    <use xlink:href="#path-3"></use>
                                </mask>
                                <g id="Clip-13"></g>
                                <path d="M254.792957,10.4304581 L4.51972836,155.042271 C2.02292109,156.484328 -0.000115272727,155.627169 -0.000115272727,153.129526 C-0.000115272727,150.631883 2.02292109,147.438591 4.51972836,145.996534 L254.792957,1.38472109 C257.289765,-0.0573361979 259.312801,0.79866901 259.312801,3.29631224 C259.312801,5.79395547 257.289765,8.98840078 254.792957,10.4304581" id="Fill-12" fill="#A3BBC4" mask="url(#mask-4)"></path>
                            </g>
                            <polygon id="Fill-15" fill="#FFB60E" points="101.753772 194.3441 55.7576487 220.920639 55.7576487 151.80341 101.753772 125.225717"></polygon>
                            <polygon id="Fill-17" fill="#A3BBC4" points="48.2554691 225.25604 2.25934545 251.832579 2.25934545 203.335616 48.2554691 176.759077"></polygon>
                            <polygon id="Fill-19" fill="#FF1C48" points="155.25196 163.432275 109.255837 190.008814 109.255837 86.142619 155.25196 59.5660799"></polygon>
                        </g>
                        <g id="Group-58" transform="translate(0.000000, 0.001365)">
                            <path d="M43.8245007,178.577684 C43.8245007,181.184923 45.6527262,182.242817 47.9097662,180.938043 C50.1656535,179.635577 51.9950316,176.464205 51.9950316,173.856965 C51.9950316,171.248572 50.1656535,170.191832 47.9097662,171.495452 C45.6527262,172.800226 43.8245007,175.970444 43.8245007,178.577684" id="Fill-3" fill="#70EFAC"></path>
                            <path d="M31.7951,185.528285 C31.7951,188.135524 33.6244782,189.192264 35.8803655,187.888644 C38.1374055,186.585024 39.9656309,183.414805 39.9656309,180.807566 C39.9656309,178.199173 38.1374055,177.142433 35.8803655,178.446053 C33.6244782,179.750826 31.7951,182.921045 31.7951,185.528285" id="Fill-5" fill="#F4D969"></path>
                            <path d="M19.7658145,192.478885 C19.7658145,195.086125 21.5951927,196.142865 23.85108,194.839245 C26.10812,193.535625 27.9374982,190.365406 27.9374982,187.758167 C27.9374982,185.149773 26.10812,184.093034 23.85108,185.396654 C21.5951927,186.701427 19.7658145,189.871646 19.7658145,192.478885" id="Fill-7" fill="#EF6262"></path>
                            <polygon id="Fill-9" fill="#E6EBEF" points="8.507012 213.556572 316.741674 35.4555742 316.741674 34.9641211 8.507012 213.065118"></polygon>
                            <polygon id="Fill-11" fill="#FFFFFF" points="8.50528291 183.168041 316.739945 5.06704323 308.235123 0.152511979 0.000461090909 178.253509"></polygon>
                            <polygon id="Fill-13" fill="#F2F6F9" points="8.50528291 183.168041 316.739945 5.06704323 308.235123 0.152511979 0.000461090909 178.253509"></polygon>
                            <polygon id="Fill-15" fill="#D0D2D3" points="8.50528291 183.168041 316.739945 5.06704323 308.235123 0.152511979 0.000461090909 178.253509"></polygon>
                            <polygon id="Fill-17" fill="#FFFFFF" points="0.000576363636 178.252702 0.00172909091 417.982613 8.50655091 422.897145 8.50539818 183.167233"></polygon>
                            <polygon id="Fill-19" fill="#F0F0F0" points="0.000576363636 178.252702 0.00172909091 417.982613 8.50655091 422.897145 8.50539818 183.167233"></polygon>
                            <polygon id="Fill-21" fill="#F2F6F9" points="0.000576363636 178.252702 0.000576363636 208.150587 8.50655091 213.065118 8.50539818 183.167233"></polygon>
                            <polygon id="Fill-23" fill="#D0D2D3" points="0.000576363636 178.252702 0.000576363636 208.150587 8.50655091 213.065118 8.50539818 183.167233"></polygon>
                            <polygon id="Fill-25" fill="#E6EBEF" points="0.00161381818 208.641694 0.00161381818 208.152548 8.50643564 213.06708 8.50643564 213.556226"></polygon>
                            <polygon id="Fill-27" fill="#C3C3C3" points="0.00161381818 208.641694 0.00161381818 208.152548 8.50643564 213.06708 8.50643564 213.556226"></polygon>
                            <g id="Group-31" opacity="0.03" transform="translate(27.512727, 278.028646)">
                                <mask id="mask-6" fill="white">
                                    <use xlink:href="#path-5"></use>
                                </mask>
                                <g id="Clip-30"></g>
                                <path d="M13.460272,162.791656 L281.220374,8.07736667 C283.952337,6.49687187 283.566174,3.66351771 280.356981,1.74615833 C277.146636,-0.171201042 272.328236,-0.444615104 269.596272,1.13472604 L1.83617018,155.849015 C-0.896946182,157.428356 -0.510782545,160.262864 2.69956291,162.180223 C5.90990836,164.097583 10.7271556,164.370997 13.460272,162.791656" id="Fill-29" fill="#020202" mask="url(#mask-6)"></path>
                            </g>
                        </g>
                    </g>
                    <g id="Man" transform="translate(322.000000, 191.000000)">
                        <path d="M1.83982992,220.784025 C1.85822362,226.076235 30.2351055,230.36706 65.2245228,230.36706 C100.211641,230.36706 128.562082,226.076235 128.544838,220.784025 C128.527594,215.491815 100.149562,211.202145 65.1612945,211.202145 C30.1730268,211.202145 1.82258583,215.491815 1.83982992,220.784025" id="Fill-1" fill="#F2F2F2"></path>
                        <path d="M29.4819984,98.0697795 C29.4819984,98.0697795 37.5441874,-11.0222805 113.997605,28.9950045 C113.997605,28.9950045 127.659526,56.4308745 123.814093,108.130984 C59.3073843,115.696234 29.4819984,98.0697795 29.4819984,98.0697795" id="Fill-3" fill="#FDDCBE"></path>
                        <g id="Group-7" transform="translate(31.039370, 0.522060)">
                            <mask id="mask-8" fill="white">
                                <use xlink:href="#path-7"></use>
                            </mask>
                            <g id="Clip-6"></g>
                            <path d="M0.430872441,42.228417 C17.5749512,35.800842 64.552463,41.261682 82.6679591,52.892532 L79.0834866,73.441137 C79.0834866,73.441137 89.7805732,67.120977 89.0965575,76.655502 C88.4010457,86.363277 78.8133291,80.418492 78.8133291,80.418492 C78.8133291,80.418492 81.8781795,100.559382 92.774148,107.608347 C92.3200535,108.334842 132.378085,42.600327 102.711345,40.144797 C102.711345,40.144797 104.292054,18.405387 81.5539906,7.317387 C49.0178331,-8.550003 13.4720063,4.122657 0.430872441,42.228417" id="Fill-5" fill="#574939" mask="url(#mask-8)"></path>
                        </g>
                        <path d="M140.734458,50.023281 C140.811482,50.027901 140.856317,50.029056 140.856317,50.029056 C140.856317,50.029056 140.809183,50.025591 140.734458,50.023281" id="Fill-8" fill="#FDDCBE"></path>
                        <path d="M139.99802,52.989783 C140.089989,52.988628 140.150918,52.984008 140.150918,52.984008 C140.150918,52.984008 140.089989,52.982853 139.99802,52.989783" id="Fill-10" fill="#FDDCBE"></path>
                        <path d="M111.259013,166.278997 L108.126335,196.575802 L110.096761,221.840273 C110.096761,221.840273 76.5225087,230.962463 84.9859102,217.654553 C92.7997843,205.365353 104.994808,215.575553 104.994808,215.575553 L100.203249,195.418492 L99.4088709,172.758547 C99.4088709,172.758547 64.6827134,174.864112 35.3872961,166.340212 L34.4032331,191.773312 L39.5603669,218.240138 C39.5603669,218.240138 7.75420945,228.721763 16.357863,214.204567 C21.1287291,206.156527 32.8478157,211.207343 32.8478157,211.207343 L26.6238472,191.734042 L25.6869181,157.248052 L111.259013,166.278997 Z" id="Fill-12" fill="#574939"></path>
                        <path d="M29.4819984,98.0697795 L25.687148,157.24736 C25.687148,157.24736 60.7225496,167.634275 111.259243,166.27946 L123.814093,108.130985 C123.814093,108.130985 65.3796047,113.35043 29.4819984,98.0697795" id="Fill-14" fill="#F5F5F5"></path>
                        <polygon id="Fill-16" fill="#574939" points="49.7808268 108.856093 47.771315 112.005778 49.9164803 116.064448 43.1567953 149.527109 51.9121969 157.846574 60.4537717 150.272084 54.7057402 116.848693 57.8970472 112.994458 56.6002913 110.185498"></polygon>
                        <path d="M33.947989,160.835598 C33.4571071,161.381913 32.7627449,161.314923 32.1281622,161.059668 C32.4603984,161.631393 32.6374378,162.289743 32.1810441,162.796788 C31.7372961,163.288818 31.1268551,163.279578 30.5417055,163.084383 C30.811863,163.614528 30.9176268,164.194338 30.5049181,164.652873 C30.0140362,165.195723 29.3219732,165.129888 28.6873906,164.874633 C29.0207764,165.448668 29.1955165,166.104708 28.7391228,166.610598 C27.8447291,167.600433 26.6686819,166.862388 25.6949654,166.115103 L25.6869181,157.248168 L25.6880677,157.248168 L26.0409969,151.731888 C28.1999575,153.857088 30.3163827,155.714328 32.1477055,157.189263 C32.5523669,157.516128 34.969989,159.704853 33.947989,160.835598" id="Fill-18" fill="#E6E6E6"></path>
                        <g id="Group-22" transform="translate(0.000000, 97.542060)">
                            <mask id="mask-10" fill="white">
                                <use xlink:href="#path-9"></use>
                            </mask>
                            <g id="Clip-21"></g>
                            <path d="M29.4819984,0.5277195 L28.7634945,11.7393045 C-5.58789134,21.5810595 19.3079827,48.4371195 31.5214,58.2696345 C31.927211,58.5964995 34.3436835,60.7863795 33.3228331,61.9159695 C32.8319512,62.4622845 32.137589,62.3941395 31.5030063,62.1411945 C31.8352425,62.7129195 32.0122819,63.3701145 31.5558882,63.8783145 C31.1109906,64.3691895 30.5016992,64.3611045 29.9165496,64.1659095 C30.1867071,64.6960545 30.2924709,65.2758645 29.8797622,65.7343995 C29.3888803,66.2772495 28.6956677,66.2102595 28.061085,65.9550045 C28.3944709,66.5301945 28.5703606,67.1862345 28.1139669,67.6921245 C27.1586441,68.7489495 25.8825811,67.8353445 24.8743764,67.0453245 C-3.05071024,45.1557645 -14.8893559,11.3119545 29.4819984,0.5277195" id="Fill-20" fill="#FDDCBE" mask="url(#mask-10)"></path>
                        </g>
                        <path d="M29.4819984,98.0697795 L28.7634945,109.281364 C25.0675102,110.340499 22.0612898,111.597139 19.6471165,113.008549 L15.0199512,103.331959 C18.9619512,101.243719 23.7500614,99.4627095 29.4819984,98.0697795" id="Fill-23" fill="#F5F5F5"></path>
                        <path d="M28.7634945,109.281364 C27.8645024,109.538929 27.0091953,109.808044 26.1906756,110.088709 L29.4819984,98.0697795 L28.7634945,109.281364 Z" id="Fill-25" fill="#E6E6E6"></path>
                        <path d="M53.7707654,80.697309 C53.7707654,80.697309 71.3149071,81.423804 81.7556315,85.653414 C81.7556315,85.653414 81.6763087,100.048179 65.2645291,97.628454 C49.0205921,95.234139 53.7707654,80.697309 53.7707654,80.697309" id="Fill-27" fill="#EB7D86"></path>
                        <g id="Group-31" transform="translate(103.314961, 107.937060)">
                            <mask id="mask-12" fill="white">
                                <use xlink:href="#path-11"></use>
                            </mask>
                            <g id="Clip-30"></g>
                            <path d="M20.4067039,0.3528525 L18.076452,11.3426775 C48.4904362,30.1622475 17.2843732,49.2405375 2.87750709,55.3828275 C2.39812126,55.5861075 -0.517280315,57.0367875 0.160987402,58.4031525 C0.486325984,59.0626575 1.17264094,59.1862425 1.85090866,59.1134775 C1.37842047,59.5731675 1.03123937,60.1575975 1.33243622,60.7720575 C1.62788504,61.3657275 2.21763307,61.5228075 2.83267244,61.4950875 C2.42916063,61.9305225 2.17279843,62.4595125 2.44640472,63.0150675 C2.77174331,63.6699525 3.45690866,63.7958475 4.13747559,63.7230825 C3.66153858,64.1850825 3.31550709,64.7683575 3.61785354,65.3805075 C4.25128661,66.6567825 5.7262315,66.1243275 6.91147559,65.6380725 C39.6924992,52.1649975 60.211822,22.8083625 20.4067039,0.3528525" id="Fill-29" fill="#FDDCBE" mask="url(#mask-12)"></path>
                        </g>
                        <path d="M123.721665,108.289913 L121.391413,119.279738 C124.663192,121.304452 127.218767,123.331477 129.161602,125.346953 L136.224783,117.290828 C132.99209,114.208133 128.865003,111.191273 123.721665,108.289913" id="Fill-32" fill="#F5F5F5"></path>
                        <path d="M53.865148,60.306708 C53.0408803,63.988848 50.8439827,66.629178 48.9563291,66.201828 C47.0698252,65.776788 46.2076205,62.446923 47.0318882,58.763628 C47.8550063,55.080333 50.0530535,52.440003 51.9395575,52.867353 C53.827211,53.292393 54.6882661,56.623413 53.865148,60.306708" id="Fill-34" fill="#574939"></path>
                        <path d="M96.5240488,69.939177 C95.6997811,73.621317 93.5028835,76.261647 91.6152299,75.834297 C89.728726,75.409257 88.8676709,72.079392 89.690789,68.396097 C90.5139071,64.713957 92.7131039,62.072472 94.5984583,62.499822 C96.4861118,62.924862 97.3483165,66.255882 96.5240488,69.939177" id="Fill-36" fill="#574939"></path>
                    </g>
                </g>
            </g>
        </g>
    </g>
</svg>
