
<svg width="465px" height="517px" viewBox="0 0 465 517" version="1.1" xmlns="http://www.w3.org/2000/svg" xmlns:xlink="http://www.w3.org/1999/xlink">
    <!-- Generator: Sketch 49 (51002) - http://www.bohemiancoding.com/sketch -->
    <desc>Created with Sketch.</desc>
    <defs>
        <polygon id="path-1" points="339.159099 0.0388880886 0 195.753319 5.07479779 200.822998 344.232629 5.1111019"></polygon>
        <polygon id="path-3" points="0 0.343621066 104.916335 0.343621066 104.916335 115.248867 0 115.248867"></polygon>
        <polygon id="path-5" points="0 0 278 0 278 161 0 161"></polygon>
    </defs>
    <g id="Page-1" stroke="none" stroke-width="1" fill="none" fill-rule="evenodd">
        <g id="Artboard" transform="translate(-247.000000, -2657.000000)">
            <g id="Content-Left-Image" transform="translate(247.000000, 2656.000000)">
                <g id="Image" transform="translate(0.000000, 1.000000)">
                    <g id="Advert">
                        <polygon id="Fill-1" fill="#F9FBFC" points="338.997464 0 0 195.649919 0.00126777787 459 339 263.351348"></polygon>
                        <polygon id="Fill-2" fill="#D0D2D3" points="338.92865 0 0 195.620179 0.00126752052 458.930229 5.07134961 464 344 268.378554 343.998732 5.068504"></polygon>
                        <polygon id="Fill-3" fill="#F9FBFC" points="5 200.648112 5.00126778 464 344 268.349354 343.997464 5"></polygon>
                        <polygon id="Fill-4" fill="#0275D8" points="325 138.600012 24 312 24 276.399988 325 103"></polygon>
                        <polygon id="Fill-5" fill="#00C851" points="60 340.502543 24 361 24 325.497457 60 305"></polygon>
                        <polygon id="Fill-6" fill="#00C851" points="223 246.655268 73 333 73 297.344732 223 211"></polygon>
                        <polygon id="Fill-7" fill="#D0D2D3" points="325 236.600012 24 410 24 374.401252 325 201"></polygon>
                        <g id="Group-11">
                            <mask id="mask-2" fill="white">
                                <use xlink:href="#path-1"></use>
                            </mask>
                            <g id="Clip-10"></g>
                            <polygon id="Fill-9" fill="#B3B5B6" mask="url(#mask-2)" points="339.159099 0.0388880886 0 195.753319 5.07479779 200.822998 344.232629 5.1111019"></polygon>
                        </g>
                        <g id="Star" transform="translate(23.000000, 205.000000)">
                            <polygon id="Fill-2" fill="#FF5505" points="6.74325371 45.6050666 7.7981987 46.9831296 10.125 30.9247564 8.71247529 30.2142857"></polygon>
                            <polygon id="Fill-3" fill="#E24B03" points="17.5299911 0.841129848 12.1800999 16.7995382 0.475845337 26.9294056 1.14353943 27.6127595 13.6781087 17.5492563 18.5574875 1.40079026"></polygon>
                            <polygon id="Fill-4" fill="#FF5505" points="22.5 9.35062027 23.9645462 10.2675898 35.9634018 4.24485416 34.5219415 3.35714286"></polygon>
                            <polygon id="Fill-5" fill="#FE941D" points="13.1739904 17.4599533 1.125 27.602229 9.84337516 31.6381353 7.78523087 47 18.5622501 33.1530724 29.3392693 32.5052859 27.2811251 19.9117271 36 4.14941258 23.9510096 10.2125962 18.5622501 1.11904762"></polygon>
                            <polygon id="Fill-6" fill="#FF5505" points="17.4677811 0.630010696 12.1824646 16.7857143 13.1625137 17.4810893 18.5599079 1.13226391"></polygon>
                        </g>
                        <g id="Star-Copy" transform="translate(60.000000, 184.000000)">
                            <polygon id="Fill-2" fill="#FF5505" points="6.74325371 45.6050666 7.7981987 46.9831296 10.125 30.9247564 8.71247529 30.2142857"></polygon>
                            <polygon id="Fill-3" fill="#E24B03" points="17.5299911 0.841129848 12.1800999 16.7995382 0.475845337 26.9294056 1.14353943 27.6127595 13.6781087 17.5492563 18.5574875 1.40079026"></polygon>
                            <polygon id="Fill-4" fill="#FF5505" points="22.5 9.35062027 23.9645462 10.2675898 35.9634018 4.24485416 34.5219415 3.35714286"></polygon>
                            <polygon id="Fill-5" fill="#FE941D" points="13.1739904 17.4599533 1.125 27.602229 9.84337516 31.6381353 7.78523087 47 18.5622501 33.1530724 29.3392693 32.5052859 27.2811251 19.9117271 36 4.14941258 23.9510096 10.2125962 18.5622501 1.11904762"></polygon>
                            <polygon id="Fill-6" fill="#FF5505" points="17.4677811 0.630010696 12.1824646 16.7857143 13.1625137 17.4810893 18.5599079 1.13226391"></polygon>
                        </g>
                        <g id="Star-Copy-2" transform="translate(97.000000, 163.000000)">
                            <polygon id="Fill-2" fill="#FF5505" points="6.74325371 45.6050666 7.7981987 46.9831296 10.125 30.9247564 8.71247529 30.2142857"></polygon>
                            <polygon id="Fill-3" fill="#E24B03" points="17.5299911 0.841129848 12.1800999 16.7995382 0.475845337 26.9294056 1.14353943 27.6127595 13.6781087 17.5492563 18.5574875 1.40079026"></polygon>
                            <polygon id="Fill-4" fill="#FF5505" points="22.5 9.35062027 23.9645462 10.2675898 35.9634018 4.24485416 34.5219415 3.35714286"></polygon>
                            <polygon id="Fill-5" fill="#FE941D" points="13.1739904 17.4599533 1.125 27.602229 9.84337516 31.6381353 7.78523087 47 18.5622501 33.1530724 29.3392693 32.5052859 27.2811251 19.9117271 36 4.14941258 23.9510096 10.2125962 18.5622501 1.11904762"></polygon>
                            <polygon id="Fill-6" fill="#FF5505" points="17.4677811 0.630010696 12.1824646 16.7857143 13.1625137 17.4810893 18.5599079 1.13226391"></polygon>
                        </g>
                        <g id="Star-Copy-3" transform="translate(134.000000, 141.000000)">
                            <polygon id="Fill-2" fill="#FF5505" points="6.74325371 45.6050666 7.7981987 46.9831296 10.125 30.9247564 8.71247529 30.2142857"></polygon>
                            <polygon id="Fill-3" fill="#E24B03" points="17.5299911 0.841129848 12.1800999 16.7995382 0.475845337 26.9294056 1.14353943 27.6127595 13.6781087 17.5492563 18.5574875 1.40079026"></polygon>
                            <polygon id="Fill-4" fill="#FF5505" points="22.5 9.35062027 23.9645462 10.2675898 35.9634018 4.24485416 34.5219415 3.35714286"></polygon>
                            <polygon id="Fill-5" fill="#FE941D" points="13.1739904 17.4599533 1.125 27.602229 9.84337516 31.6381353 7.78523087 47 18.5622501 33.1530724 29.3392693 32.5052859 27.2811251 19.9117271 36 4.14941258 23.9510096 10.2125962 18.5622501 1.11904762"></polygon>
                            <polygon id="Fill-6" fill="#FF5505" points="17.4677811 0.630010696 12.1824646 16.7857143 13.1625137 17.4810893 18.5599079 1.13226391"></polygon>
                        </g>
                        <g id="Star-Copy-4" transform="translate(171.000000, 119.000000)">
                            <polygon id="Fill-2" fill="#FF5505" points="6.74325371 45.6050666 7.7981987 46.9831296 10.125 30.9247564 8.71247529 30.2142857"></polygon>
                            <polygon id="Fill-3" fill="#E24B03" points="17.5299911 0.841129848 12.1800999 16.7995382 0.475845337 26.9294056 1.14353943 27.6127595 13.6781087 17.5492563 18.5574875 1.40079026"></polygon>
                            <polygon id="Fill-4" fill="#FF5505" points="22.5 9.35062027 23.9645462 10.2675898 35.9634018 4.24485416 34.5219415 3.35714286"></polygon>
                            <polygon id="Fill-5" fill="#FE941D" points="13.1739904 17.4599533 1.125 27.602229 9.84337516 31.6381353 7.78523087 47 18.5622501 33.1530724 29.3392693 32.5052859 27.2811251 19.9117271 36 4.14941258 23.9510096 10.2125962 18.5622501 1.11904762"></polygon>
                            <polygon id="Fill-6" fill="#FF5505" points="17.4677811 0.630010696 12.1824646 16.7857143 13.1625137 17.4810893 18.5599079 1.13226391"></polygon>
                        </g>
                    </g>
                    <g id="Man" transform="translate(272.000000, 212.000000)">
                        <path d="M131.694118,239.032732 C131.694118,243.43285 104.500075,247 70.9553982,247 C37.410721,247 10.2176471,243.43285 10.2176471,239.032732 C10.2176471,234.631666 37.410721,231.064516 70.9553982,231.064516 C104.500075,231.064516 131.694118,234.631666 131.694118,239.032732" id="Fill-1" fill="#F2F2F2"></path>
                        <path d="M159.881138,136.589862 C159.881138,136.589862 170.471466,134.728083 167.496506,127.34286 C164.522565,119.958652 156.670588,127.374313 156.670588,127.374313 L159.881138,136.589862 Z" id="Fill-3" fill="#FDDBBB"></path>
                        <polygon id="Fill-5" fill="#F5F5F5" points="155.535294 127.378131 157.890972 126.345622 161.211765 135.869614 158.668513 136.589862"></polygon>
                        <path d="M95.3647059,107.307656 C95.3647059,107.307656 104.495768,155.514868 158.941176,136.84564 L155.840337,125.511643 C155.840337,125.511643 115.422259,142.608281 105.635568,105.857143 L95.3647059,107.307656 Z" id="Fill-7" fill="#424242"></path>
                        <path d="M152.606641,137.622601 C153.175269,137.355843 153.423029,136.679783 153.159023,136.11063 C152.892986,135.540459 152.218755,135.293045 151.651142,135.557768 C151.083529,135.819435 150.836784,136.49855 151.09876,137.067703 C151.36175,137.638892 152.038012,137.886305 152.606641,137.622601" id="Fill-9" fill="#808080"></path>
                        <path d="M157.148721,136.483887 C157.717667,136.218136 157.963532,135.542047 157.700395,134.971852 C157.437258,134.402675 156.761635,134.154233 156.194722,134.419984 C155.62476,134.6837 155.376863,135.359788 155.641016,135.929983 C155.903137,136.500179 156.57876,136.748621 157.148721,136.483887" id="Fill-11" fill="#808080"></path>
                        <path d="M154.4,138.866359 L160.463708,124.528829 C162.5983,123.679992 165.04658,123.716688 166.401188,127.182532 C168.727949,133.133086 162.075485,135.315534 159.979516,135.845696 L160.043573,136.060078 L158.552373,136.548715 L158.785049,137.433282 C157.286314,137.966341 155.829027,138.439527 154.4,138.866359" id="Fill-13" fill="#E6E6E6"></path>
                        <path d="M18.1359781,117.239631 C18.1359781,117.239631 3.30094338,41.1267737 49.9544228,30.8744497 C109.426412,17.8065447 105.530058,109.10724 105.530058,109.10724 L18.1359781,117.239631 Z" id="Fill-15" fill="#FDDBBB"></path>
                        <g id="Group-19">
                            <mask id="mask-4" fill="white">
                                <use xlink:href="#path-3"></use>
                            </mask>
                            <g id="Clip-18"></g>
                            <path d="M102.474842,0.343621066 C102.474842,0.343621066 125.009409,58.4860226 33.1556679,54.9385888 L33.0258694,73.2113854 C33.0258694,73.2113854 24.6848635,65.1428271 23.4866491,73.9948258 C22.1053607,84.1863808 31.4256671,80.4906494 31.4256671,80.4906494 C31.4256671,80.4906494 25.2941415,105.837825 17.1797987,115.248867 C15.8624409,113.901505 -21.4149102,29.4909219 18.1261653,30.2987534 C18.1261653,30.2987534 18.5756167,11.453255 43.5037071,5.93502462 C78.3361971,-1.77547307 82.4035393,27.61086 102.474842,0.343621066" id="Fill-17" fill="#424242" mask="url(#mask-4)"></path>
                        </g>
                        <path d="M54.3770167,74.1080622 C54.8642492,77.5560701 53.7865231,80.5524125 51.9709305,80.7994016 C50.1543355,81.0463908 48.2876136,78.4515287 47.7993787,75.0025369 C47.3121462,71.554529 48.3908748,68.5581866 50.2074699,68.3111974 C52.0230624,68.0642083 53.8907868,70.6590704 54.3770167,74.1080622" id="Fill-20" fill="#424242"></path>
                        <path d="M94.1123108,67.2785717 C94.5995433,70.726581 93.5218172,73.7219408 91.7062247,73.969914 C89.8896296,74.2169033 88.0229078,71.6210561 87.5346728,68.1730467 C87.0474403,64.7250374 88.126169,61.7286936 89.942764,61.4817044 C91.757354,61.2347151 93.6260809,63.8295783 94.1123108,67.2785717" id="Fill-22" fill="#424242"></path>
                        <path d="M83.6666147,86.5069912 C79.9670568,86.54411 67.3895424,86.8801855 58.7837713,89.64704 C58.2226962,89.8266147 57.8610927,90.3813901 57.9033453,90.9793035 C58.1303301,94.1695129 59.9019909,103.61474 73.0032408,102.321601 C85.9295847,101.045518 85.4716846,90.9783003 84.9459838,87.602497 C84.8457567,86.9634519 84.3013862,86.4999687 83.6666147,86.5069912" id="Fill-24" fill="#EB7D86"></path>
                        <path d="M14.7588235,115.849748 L43.8075839,112.3334 L75.1317981,145.074961 L98.026424,106.607802 L105.88496,105.857143 C109.623553,138.334566 110.183904,172.132682 106.512437,205.752117 L99.9448485,232.507827 C99.9448485,232.507827 109.090441,224.793419 114.953699,233.282763 C120.81793,241.772108 94.2849125,238.086788 94.2849125,238.086788 L98.7278358,205.332602 L95.9465094,184.824942 C95.9465094,184.824942 75.1794669,191.837245 41.0068009,190.856435 L40.4279659,207.400071 L33.7475293,234.186856 C33.7475293,234.186856 40.6536629,224.938113 47.9751958,232.535017 C57.5605084,242.482952 29.3376823,238.046002 29.3376823,238.046002 L32.4196138,206.878591 C32.4196138,206.878591 21.660093,143.829042 14.7588235,115.849748" id="Fill-26" fill="#424242"></path>
                        <polygon id="Fill-28" fill="#F5F5F5" points="98.7705882 105.857143 75.7593099 144.557604 44.2764706 111.617611"></polygon>
                        <polygon id="Fill-30" fill="#808080" points="97.961278 105.857143 99.9058824 121.20504 91.3875955 123.8674 93.8107662 135.451843 74.9294118 144.557604"></polygon>
                        <polygon id="Fill-32" fill="#808080" points="76.0647059 144.557604 55.9588791 137.274546 55.7555007 128.671747 46.175985 126.293666 44.2764706 111.548387"></polygon>
                        <polygon id="Fill-34" fill="#B35730" points="79.3823805 115.519479 76.2069009 111.548387 69.0843386 112.044774 66.9823529 117.459369 70.1812713 120.624197 67.9227149 137.193404 74.7405737 144.557604 80.6058824 134.337482 76.4909783 120.118097"></polygon>
                        <path d="M73.905126,152.086272 C74.2890601,153.283764 75.5682507,153.93928 76.7616311,153.552534 C77.9558962,153.167563 78.6087611,151.884916 78.2257117,150.687424 C77.8408929,149.491706 76.559933,148.835303 75.3683219,149.221161 C74.1740568,149.607907 73.518538,150.889667 73.905126,152.086272" id="Fill-36" fill="#808080"></path>
                        <path d="M75.0403556,163.469385 C75.4260934,164.665358 76.705398,165.321902 77.8980001,164.935074 C79.0906021,164.55002 79.7461794,163.266211 79.3595569,162.072011 C78.9764733,160.874263 77.696284,160.217719 76.5027972,160.603661 C75.3101951,160.988714 74.6537332,162.272523 75.0403556,163.469385" id="Fill-38" fill="#808080"></path>
                        <path d="M27.2470588,182.457056 C27.2470588,182.457056 35.1911764,189.396947 38.9277768,182.433764 C42.6643772,175.471595 32.220931,174.152074 32.220931,174.152074 L27.2470588,182.457056 Z" id="Fill-40" fill="#FDDBBB"></path>
                        <polygon id="Fill-42" fill="#F5F5F5" points="31.7991041 173.013825 34.0588235 174.071275 28.2272257 183.258065 26.1117647 181.839584"></polygon>
                        <path d="M15.765681,117.239631 C15.765681,117.239631 -23.1575066,151.333418 25.9700856,182.119816 L32.9235294,172.457967 C32.9235294,172.457967 -3.64585272,155.709273 18.5042621,128.255518 L15.765681,117.239631 Z" id="Fill-44" fill="#424242"></path>
                        <path d="M22.2141527,177.454006 C22.7797809,177.726799 23.4581285,177.487596 23.7292644,176.922669 C24.0004004,176.35367 23.7617601,175.67474 23.198163,175.402964 C22.6335503,175.130171 21.9552027,175.370392 21.6820357,175.934301 C21.4119153,176.500246 21.64954,177.181212 22.2141527,177.454006" id="Fill-46" fill="#808080"></path>
                        <path d="M24.4836693,179.730394 C25.0502725,180.003451 25.7265409,179.764017 25.9996884,179.198544 C26.270805,178.633071 26.0331972,177.951447 25.4686247,177.67839 C24.9030369,177.408389 24.2247377,177.644767 23.9536211,178.211259 C23.6825045,178.776732 23.9180814,179.457337 24.4836693,179.730394" id="Fill-48" fill="#808080"></path>
                        <path d="M178.462348,150.332891 L192.854238,117.366728 C193.241332,116.479581 192.830778,115.449752 191.938311,115.065386 L173.525918,107.140268 C172.633451,106.755902 171.596312,107.162592 171.208241,108.049739 L156.81635,141.014932 C156.429256,141.902079 156.83981,142.932878 157.732278,143.316273 L176.14467,151.242362 C177.037137,151.626728 178.075253,151.219067 178.462348,150.332891" id="Fill-50" fill="#666666"></path>
                        <path d="M177.326553,149.194642 L191.719376,116.228479 C192.105492,115.341332 191.695916,114.311503 190.802474,113.927137 L172.391117,106.002019 C171.497675,105.617653 170.46054,106.024343 170.073447,106.911491 L155.680624,139.876683 C155.294508,140.76383 155.704084,141.794629 156.597526,142.178025 L175.008883,150.104114 C175.902325,150.488479 176.93946,150.080819 177.326553,149.194642" id="Fill-52" fill="#424242"></path>
                        <polygon id="Fill-54" fill="#F2F2F2" points="176.540719 147.97235 189.594118 117.87939 169.723987 109.271889 156.670588 139.36387"></polygon>
                        <path d="M184.494303,101.304147 C184.719142,101.304147 184.933604,101.185313 185.025845,100.986912 L186.143121,98.6060936 C186.266494,98.3436249 186.128132,98.040856 185.834112,97.9292551 C185.543551,97.8197209 185.202257,97.9437219 185.080037,98.2061905 L183.962761,100.588042 C183.839388,100.850511 183.977751,101.15328 184.271771,101.263847 C184.343258,101.290714 184.42051,101.304147 184.494303,101.304147" id="Fill-60" fill="#F2F2F2"></path>
                    </g>
                    <g id="Shadow" opacity="0.03" transform="translate(12.000000, 356.000000)">
                        <mask id="mask-6" fill="white">
                            <use xlink:href="#path-5"></use>
                        </mask>
                        <g id="Clip-30"></g>
                        <path d="M13.2069845,159.990506 L276.211506,7.83721286 C278.894948,6.2828801 278.515643,3.49642664 275.363448,1.61080545 C272.21012,-0.274815747 267.477298,-0.543703968 264.793855,1.00949424 L1.78933368,153.162787 C-0.895240897,154.715985 -0.515935759,157.503573 2.63739203,159.389195 C5.79071983,161.274816 10.5224099,161.543704 13.2069845,159.990506" id="Fill-29" fill="#020202" mask="url(#mask-6)"></path>
                    </g>
                </g>
            </g>
        </g>
    </g>
</svg>
