
<svg width="614px" height="241px" viewBox="0 0 614 241" version="1.1" xmlns="http://www.w3.org/2000/svg" xmlns:xlink="http://www.w3.org/1999/xlink">
    <!-- Generator: Sketch 49 (51002) - http://www.bohemiancoding.com/sketch -->
    <desc>Created with Sketch.</desc>
    <defs>
        <polygon id="path-1" points="0 0.112427055 613.937957 0.112427055 613.937957 19.9674405 0 19.9674405"></polygon>
        <polygon id="path-3" points="0 227 614 227 614 0 0 0"></polygon>
        <polygon id="path-5" points="0.084477193 0.0473054585 54.5684612 0.0473054585 54.5684612 50.4820324 0.084477193 50.4820324"></polygon>
        <polygon id="path-7" points="0 241 140 241 140 0 0 0"></polygon>
    </defs>
    <g id="Page-1" stroke="none" stroke-width="1" fill="none" fill-rule="evenodd">
        <g id="Artboard" transform="translate(-1058.000000, -2102.000000)">
            <g id="Content-Right-Image" transform="translate(248.000000, 1994.000000)">
                <g id="Image" transform="translate(810.000000, 0.000000)">
                    <g id="Machine" transform="translate(0.000000, 119.000000)">
                        <path d="M322.943734,50.4444444 C322.630529,50.4444444 322.317324,50.3268742 322.078982,50.0917336 C321.599243,49.6184378 321.599243,48.8542309 322.078982,48.3824424 L329.325483,41.2317569 C329.554658,41.0041529 329.867863,40.8760314 330.191763,40.8760314 L330.205514,40.8760314 C330.535525,40.8805534 330.850258,41.0147041 331.076377,41.2498447 L334.862342,45.1567959 L342.91401,37.4031859 C343.381526,36.9524998 344.12558,36.9434559 344.603791,37.3835908 L351.68987,43.8936689 L361.570351,30.9579222 C361.978282,30.4273485 362.746781,30.3173148 363.286105,30.719767 C363.826957,31.1237264 363.933905,31.8819041 363.527502,32.4124777 L352.831159,46.4199229 C352.620319,46.6927463 352.304058,46.8660871 351.958768,46.8962333 C351.616534,46.9309015 351.271244,46.8118239 351.016096,46.5766833 L343.790985,39.9369764 L335.687371,47.7388204 C335.453612,47.9634098 335.125129,48.109619 334.810396,48.0824874 C334.484968,48.0764582 334.17329,47.9423075 333.947171,47.7101815 L330.171902,43.8152887 L323.808487,50.0917336 C323.570145,50.3268742 323.25694,50.4444444 322.943734,50.4444444" id="Fill-1" fill="#F44236"></path>
                        <path d="M365.693675,37.8333333 C365.011826,37.8333333 364.459267,37.2701806 364.459267,36.5717454 L364.459267,30.5721238 L359.226117,33.0890075 C358.607374,33.3847414 357.873194,33.1157494 357.582292,32.4865285 C357.294469,31.8541615 357.557666,31.1038155 358.17487,30.8065086 L365.167281,27.4433227 C365.548993,27.2608487 365.996889,27.2891636 366.355514,27.5188293 C366.71106,27.751641 366.928082,28.1527693 366.928082,28.5837857 L366.928082,36.5717454 C366.928082,37.2701806 366.375523,37.8333333 365.693675,37.8333333" id="Fill-3" fill="#F44236"></path>
                        <g id="Group-7" transform="translate(0.000000, 205.981481)">
                            <mask id="mask-2" fill="white">
                                <use xlink:href="#path-1"></use>
                            </mask>
                            <g id="Clip-6"></g>
                            <path d="M613.937957,10.0406944 C613.937957,15.5236052 476.504035,19.9674405 306.968747,19.9674405 C137.435001,19.9674405 -0.000462444639,15.5236052 -0.000462444639,10.0406944 C-0.000462444639,4.55778367 137.435001,0.112427055 306.968747,0.112427055 C476.504035,0.112427055 613.937957,4.55778367 613.937957,10.0406944" id="Fill-5" fill-opacity="0.2" fill="#D0D8DC" mask="url(#mask-2)"></path>
                        </g>
                        <path d="M63.4844366,122.958333 C53.4326619,122.958333 45.2089041,114.918977 45.2089041,105.092593 C45.2089041,95.2662086 53.4326619,87.2268519 63.4844366,87.2268519 L312.904429,87.2268519 C322.956204,87.2268519 331.181507,95.2662086 331.181507,105.092593 C331.181507,114.918977 322.956204,122.958333 312.904429,122.958333 L63.4844366,122.958333 Z" id="Fill-8" fill="#A9B8BF"></path>
                        <path d="M66.7619863,100.355455 C64.4405803,100.355455 62.550708,102.243289 62.550708,104.56713 C62.550708,106.889441 64.4405803,108.777275 66.7619863,108.777275 C69.0849225,108.777275 70.9732646,106.889441 70.9732646,104.56713 C70.9732646,102.243289 69.0849225,100.355455 66.7619863,100.355455 M66.7619863,114.550926 C61.2545769,114.550926 56.7739726,110.073057 56.7739726,104.56713 C56.7739726,99.0596723 61.2545769,94.5833333 66.7619863,94.5833333 C72.2693957,94.5833333 76.75,99.0596723 76.75,104.56713 C76.75,110.073057 72.2693957,114.550926 66.7619863,114.550926" id="Fill-10" fill="#FFFFFF"></path>
                        <path d="M114.07363,100.355455 C111.750694,100.355455 109.862352,102.243289 109.862352,104.56713 C109.862352,106.889441 111.750694,108.777275 114.07363,108.777275 C116.396566,108.777275 118.284908,106.889441 118.284908,104.56713 C118.284908,102.243289 116.396566,100.355455 114.07363,100.355455 M114.07363,114.550926 C108.566221,114.550926 104.085616,110.073057 104.085616,104.56713 C104.085616,99.0596723 108.566221,94.5833333 114.07363,94.5833333 C119.58104,94.5833333 124.061644,99.0596723 124.061644,104.56713 C124.061644,110.073057 119.58104,114.550926 114.07363,114.550926" id="Fill-12" fill="#FFFFFF"></path>
                        <path d="M163.488014,100.355455 C161.166608,100.355455 159.276735,102.243289 159.276735,104.56713 C159.276735,106.889441 161.166608,108.777275 163.488014,108.777275 C165.81095,108.777275 167.699292,106.889441 167.699292,104.56713 C167.699292,102.243289 165.81095,100.355455 163.488014,100.355455 M163.488014,114.550926 C157.980604,114.550926 153.5,110.073057 153.5,104.56713 C153.5,99.0596723 157.980604,94.5833333 163.488014,94.5833333 C168.995423,94.5833333 173.476027,99.0596723 173.476027,104.56713 C173.476027,110.073057 168.995423,114.550926 163.488014,114.550926" id="Fill-14" fill="#FFFFFF"></path>
                        <path d="M211.851027,100.355455 C209.528091,100.355455 207.639749,102.243289 207.639749,104.56713 C207.639749,106.889441 209.528091,108.777275 211.851027,108.777275 C214.173964,108.777275 216.062306,106.889441 216.062306,104.56713 C216.062306,102.243289 214.173964,100.355455 211.851027,100.355455 M211.851027,114.550926 C206.343618,114.550926 201.863014,110.073057 201.863014,104.56713 C201.863014,99.0596723 206.343618,94.5833333 211.851027,94.5833333 C217.358437,94.5833333 221.839041,99.0596723 221.839041,104.56713 C221.839041,110.073057 217.358437,114.550926 211.851027,114.550926" id="Fill-16" fill="#FFFFFF"></path>
                        <path d="M261.265411,100.355455 C258.944005,100.355455 257.054133,102.243289 257.054133,104.56713 C257.054133,106.889441 258.944005,108.777275 261.265411,108.777275 C263.588347,108.777275 265.476689,106.889441 265.476689,104.56713 C265.476689,102.243289 263.588347,100.355455 261.265411,100.355455 M261.265411,114.550926 C255.758002,114.550926 251.277397,110.073057 251.277397,104.56713 C251.277397,99.0596723 255.758002,94.5833333 261.265411,94.5833333 C266.77282,94.5833333 271.253425,99.0596723 271.253425,104.56713 C271.253425,110.073057 266.77282,114.550926 261.265411,114.550926" id="Fill-18" fill="#FFFFFF"></path>
                        <path d="M310.68056,100.355455 C308.355915,100.355455 306.467428,102.243289 306.467428,104.56713 C306.467428,106.889441 308.355915,108.777275 310.68056,108.777275 C313.003674,108.777275 314.892161,106.889441 314.892161,104.56713 C314.892161,102.243289 313.003674,100.355455 310.68056,100.355455 M310.68056,114.550926 C305.171198,114.550926 300.691781,110.073057 300.691781,104.56713 C300.691781,99.0596723 305.171198,94.5833333 310.68056,94.5833333 C316.188391,94.5833333 320.667808,99.0596723 320.667808,104.56713 C320.667808,110.073057 316.188391,114.550926 310.68056,114.550926" id="Fill-20" fill="#FFFFFF"></path>
                        <path d="M322.121423,122.958333 C312.069648,122.958333 303.84589,114.918977 303.84589,105.092593 C303.84589,95.2662086 312.069648,87.2268519 322.121423,87.2268519 L571.541415,87.2268519 C581.59319,87.2268519 589.818493,95.2662086 589.818493,105.092593 C589.818493,114.918977 581.59319,122.958333 571.541415,122.958333 L322.121423,122.958333 Z" id="Fill-22" fill="#A9B8BF"></path>
                        <path d="M326.450342,100.355455 C324.12705,100.355455 322.236888,102.243289 322.236888,104.56713 C322.236888,106.889441 324.12705,108.777275 326.450342,108.777275 C328.773635,108.777275 330.663797,106.889441 330.663797,104.56713 C330.663797,102.243289 328.773635,100.355455 326.450342,100.355455 M326.450342,114.550926 C320.942089,114.550926 316.462329,110.073057 316.462329,104.56713 C316.462329,99.0596723 320.942089,94.5833333 326.450342,94.5833333 C331.958596,94.5833333 336.438356,99.0596723 336.438356,104.56713 C336.438356,110.073057 331.958596,114.550926 326.450342,114.550926" id="Fill-24" fill="#FFFFFF"></path>
                        <path d="M373.763517,100.355455 C371.438694,100.355455 369.550063,102.243289 369.550063,104.56713 C369.550063,106.889441 371.438694,108.777275 373.763517,108.777275 C376.086809,108.777275 377.97544,106.889441 377.97544,104.56713 C377.97544,102.243289 376.086809,100.355455 373.763517,100.355455 M373.763517,114.550926 C368.253733,114.550926 363.773973,110.073057 363.773973,104.56713 C363.773973,99.0596723 368.253733,94.5833333 373.763517,94.5833333 C379.27177,94.5833333 383.75,99.0596723 383.75,104.56713 C383.75,110.073057 379.27177,114.550926 373.763517,114.550926" id="Fill-26" fill="#FFFFFF"></path>
                        <path d="M423.17637,100.355455 C420.851547,100.355455 418.962916,102.243289 418.962916,104.56713 C418.962916,106.889441 420.851547,108.777275 423.17637,108.777275 C425.499662,108.777275 427.388294,106.889441 427.388294,104.56713 C427.388294,102.243289 425.499662,100.355455 423.17637,100.355455 M423.17637,114.550926 C417.666586,114.550926 413.188356,110.073057 413.188356,104.56713 C413.188356,99.0596723 417.666586,94.5833333 423.17637,94.5833333 C428.684623,94.5833333 433.164384,99.0596723 433.164384,104.56713 C433.164384,110.073057 428.684623,114.550926 423.17637,114.550926" id="Fill-28" fill="#FFFFFF"></path>
                        <path d="M471.537853,100.355455 C469.216091,100.355455 467.325929,102.243289 467.325929,104.56713 C467.325929,106.889441 469.216091,108.777275 471.537853,108.777275 C473.862676,108.777275 475.751307,106.889441 475.751307,104.56713 C475.751307,102.243289 473.862676,100.355455 471.537853,100.355455 M471.537853,114.550926 C466.0296,114.550926 461.55137,110.073057 461.55137,104.56713 C461.55137,99.0596723 466.0296,94.5833333 471.537853,94.5833333 C477.047637,94.5833333 481.527397,99.0596723 481.527397,104.56713 C481.527397,110.073057 477.047637,114.550926 471.537853,114.550926" id="Fill-30" fill="#FFFFFF"></path>
                        <path d="M520.953767,100.355455 C518.630475,100.355455 516.740313,102.243289 516.740313,104.56713 C516.740313,106.889441 518.630475,108.777275 520.953767,108.777275 C523.277059,108.777275 525.167221,106.889441 525.167221,104.56713 C525.167221,102.243289 523.277059,100.355455 520.953767,100.355455 M520.953767,114.550926 C515.445514,114.550926 510.965753,110.073057 510.965753,104.56713 C510.965753,99.0596723 515.445514,94.5833333 520.953767,94.5833333 C526.46202,94.5833333 530.941781,99.0596723 530.941781,104.56713 C530.941781,110.073057 526.46202,114.550926 520.953767,114.550926" id="Fill-32" fill="#FFFFFF"></path>
                        <path d="M568.266176,100.355455 C565.941532,100.355455 564.053045,102.243289 564.053045,104.56713 C564.053045,106.889441 565.941532,108.777275 568.266176,108.777275 C570.58929,108.777275 572.477777,106.889441 572.477777,104.56713 C572.477777,102.243289 570.58929,100.355455 568.266176,100.355455 M568.266176,114.550926 C562.756814,114.550926 558.277397,110.073057 558.277397,104.56713 C558.277397,99.0596723 562.756814,94.5833333 568.266176,94.5833333 C573.774007,94.5833333 578.253425,99.0596723 578.253425,104.56713 C578.253425,110.073057 573.774007,114.550926 568.266176,114.550926" id="Fill-34" fill="#FFFFFF"></path>
                        <mask id="mask-4" fill="white">
                            <use xlink:href="#path-3"></use>
                        </mask>
                        <g id="Clip-37"></g>
                        <polygon id="Fill-36" fill="#647B89" mask="url(#mask-4)" points="63.0821918 204.930556 73.5958904 204.930556 73.5958904 124.009259 63.0821918 124.009259"></polygon>
                        <polygon id="Fill-38" fill="#647B89" mask="url(#mask-4)" points="50.4657534 215.439815 88.3150685 215.439815 88.3150685 204.930556 50.4657534 204.930556"></polygon>
                        <polygon id="Fill-39" fill="#647B89" mask="url(#mask-4)" points="229.19863 204.930556 239.712329 204.930556 239.712329 124.009259 229.19863 124.009259"></polygon>
                        <polygon id="Fill-40" fill="#647B89" mask="url(#mask-4)" points="215.530822 215.439815 253.380137 215.439815 253.380137 204.930556 215.530822 204.930556"></polygon>
                        <polygon id="Fill-41" fill="#647B89" mask="url(#mask-4)" points="395.315068 204.930556 405.828767 204.930556 405.828767 124.009259 395.315068 124.009259"></polygon>
                        <polygon id="Fill-42" fill="#647B89" mask="url(#mask-4)" points="382.69863 215.439815 420.547945 215.439815 420.547945 204.930556 382.69863 204.930556"></polygon>
                        <polygon id="Fill-43" fill="#647B89" mask="url(#mask-4)" points="560.380137 204.930556 570.893836 204.930556 570.893836 124.009259 560.380137 124.009259"></polygon>
                        <polygon id="Fill-44" fill="#647B89" mask="url(#mask-4)" points="547.763699 215.439815 585.613014 215.439815 585.613014 204.930556 547.763699 204.930556"></polygon>
                        <polygon id="Fill-45" fill="#A9B8BF" mask="url(#mask-4)" points="239.712329 134.518519 395.315068 134.518519 395.315068 0 239.712329 0"></polygon>
                        <polygon id="Fill-46" fill="#647B89" mask="url(#mask-4)" points="309.10274 64.1064815 379.544521 64.1064815 379.544521 13.662037 309.10274 13.662037"></polygon>
                        <polygon id="Fill-47" fill="#647B89" mask="url(#mask-4)" points="309.10274 94.5833333 377.441781 94.5833333 377.441781 72.5138889 309.10274 72.5138889"></polygon>
                        <polygon id="Fill-48" fill="#F1F2F2" mask="url(#mask-4)" points="314.359589 83.0231481 324.873288 83.0231481 324.873288 76.7175926 314.359589 76.7175926"></polygon>
                        <polygon id="Fill-49" fill="#F1F2F2" mask="url(#mask-4)" points="326.976027 83.0231481 337.489726 83.0231481 337.489726 76.7175926 326.976027 76.7175926"></polygon>
                        <polygon id="Fill-50" fill="#F1F2F2" mask="url(#mask-4)" points="339.592466 83.0231481 350.106164 83.0231481 350.106164 76.7175926 339.592466 76.7175926"></polygon>
                        <polygon id="Fill-51" fill="#F1F2F2" mask="url(#mask-4)" points="352.208904 83.0231481 362.722603 83.0231481 362.722603 76.7175926 352.208904 76.7175926"></polygon>
                        <polygon id="Fill-52" fill="#F1F2F2" mask="url(#mask-4)" points="363.773973 83.0231481 374.287671 83.0231481 374.287671 76.7175926 363.773973 76.7175926"></polygon>
                        <polygon id="Fill-53" fill="#F1F2F2" mask="url(#mask-4)" points="314.359589 90.3796296 324.873288 90.3796296 324.873288 84.0740741 314.359589 84.0740741"></polygon>
                        <polygon id="Fill-54" fill="#F1F2F2" mask="url(#mask-4)" points="326.976027 90.3796296 337.489726 90.3796296 337.489726 84.0740741 326.976027 84.0740741"></polygon>
                        <polygon id="Fill-55" fill="#F1F2F2" mask="url(#mask-4)" points="339.592466 90.3796296 350.106164 90.3796296 350.106164 84.0740741 339.592466 84.0740741"></polygon>
                        <polygon id="Fill-56" fill="#F1F2F2" mask="url(#mask-4)" points="352.208904 90.3796296 362.722603 90.3796296 362.722603 84.0740741 352.208904 84.0740741"></polygon>
                        <polygon id="Fill-57" fill="#F1F2F2" mask="url(#mask-4)" points="363.773973 90.3796296 374.287671 90.3796296 374.287671 84.0740741 363.773973 84.0740741"></polygon>
                        <polygon id="Fill-58" fill="#FFFFFF" mask="url(#mask-4)" points="314.359589 59.9027778 374.287671 59.9027778 374.287671 18.9166667 314.359589 18.9166667"></polygon>
                        <polygon id="Fill-59" fill="#647B89" mask="url(#mask-4)" points="239.712329 124.009259 395.315068 124.009259 395.315068 101.939815 239.712329 101.939815"></polygon>
                        <polygon id="Fill-60" fill="#F4F4D6" mask="url(#mask-4)" points="278.613014 81.85503 274.348485 83.0231481 267.047945 53.7159256 271.312474 52.5462963"></polygon>
                        <path d="M274.218148,50.5585671 C275.025643,53.6460905 273.176554,56.8046936 270.087331,57.611744 C266.998107,58.4187945 263.839247,56.5692421 263.031752,53.4817187 C262.224257,50.3941953 264.074828,47.2370731 267.164051,46.4300226 C270.253274,45.6229721 273.412135,47.4710437 274.218148,50.5585671" id="Fill-61" fill="#F44236" mask="url(#mask-4)"></path>
                        <polygon id="Fill-62" fill="#647B89" mask="url(#mask-4)" points="256.534247 102.990741 291.229452 102.990741 291.229452 72.5138889 256.534247 72.5138889"></polygon>
                        <path d="M285.672433,35.7314815 C279.311102,30.9150338 270.55689,30.9150338 264.195559,35.7314815 C261.992245,32.7717321 259.788931,29.8151163 257.585616,26.8553669 C267.864124,19.0729024 282.003869,19.0729024 292.280822,26.8553669 C290.077508,29.8151163 287.875747,32.7717321 285.672433,35.7314815" id="Fill-63" fill="#FFFFFF" mask="url(#mask-4)"></path>
                        <polygon id="Fill-64" fill="#647B89" mask="url(#mask-4)" points="239.712329 136.62037 229.19863 136.62037 229.19863 25.0916509 239.712329 18.9166667"></polygon>
                        <polygon id="Fill-65" fill="#647B89" mask="url(#mask-4)" points="395.315068 136.62037 405.828767 136.62037 405.828767 25.0916509 395.315068 18.9166667"></polygon>
                        <polygon id="Fill-66" fill="#B2EBF2" mask="url(#mask-4)" points="319.616438 52.338213 370.082192 52.338213 370.082192 51.4953704 319.616438 51.4953704"></polygon>
                        <polygon id="Fill-67" fill="#B2EBF2" mask="url(#mask-4)" points="319.616438 43.9308056 370.082192 43.9308056 370.082192 43.087963 319.616438 43.087963"></polygon>
                        <polygon id="Fill-68" fill="#B2EBF2" mask="url(#mask-4)" points="319.616438 36.5743241 370.082192 36.5743241 370.082192 35.7314815 319.616438 35.7314815"></polygon>
                        <polygon id="Fill-69" fill="#B2EBF2" mask="url(#mask-4)" points="319.616438 28.1669167 370.082192 28.1669167 370.082192 27.3240741 319.616438 27.3240741"></polygon>
                        <path d="M319.811896,53.5972222 C319.446822,53.5972222 319.084855,53.432704 318.839401,53.1196403 C318.40908,52.5669869 318.494523,51.7619658 319.028929,51.3179263 L329.011758,43.0664599 C329.393921,42.7502016 329.920559,42.6942974 330.358648,42.9243034 L337.36496,46.610789 L346.035077,37.6469427 C346.414133,37.2540158 346.996698,37.1565827 347.481391,37.4057559 L357.161287,42.4403324 L366.80856,29.9097954 C367.234221,29.3587392 368.017188,29.2629034 368.557808,29.702151 C369.098428,30.1398014 369.188531,30.9448225 368.761317,31.5006704 L358.483321,44.8490066 C358.113587,45.3281859 357.470435,45.4703424 356.943797,45.1972102 L347.162923,40.1131185 L338.489699,49.0801593 C338.105983,49.4746835 337.51565,49.5689221 337.040277,49.3165544 L329.942308,45.5821509 L320.591756,53.3145065 C320.361837,53.5045809 320.085313,53.5972222 319.811896,53.5972222" id="Fill-70" fill="#F44236" mask="url(#mask-4)"></path>
                        <path d="M368.291907,37.8333333 C368.260356,37.8333333 368.228804,37.8317569 368.198755,37.8301804 C367.53317,37.7750037 367.037361,37.1680601 367.088444,36.4728339 L367.531667,30.4759163 L362.252055,32.5773598 C361.634548,32.8295961 360.935908,32.4969595 360.698521,31.8442982 C360.462636,31.1916368 360.775146,30.461728 361.397161,30.2142212 L368.451167,27.4065161 C368.838799,27.2520214 369.271505,27.3182334 369.600542,27.5751991 C369.931081,27.8353178 370.111375,28.2530841 370.078321,28.6850387 L369.492365,36.6667405 C369.442784,37.3304372 368.915424,37.8333333 368.291907,37.8333333" id="Fill-71" fill="#F44236" mask="url(#mask-4)"></path>
                        <polygon id="Fill-72" fill="#647B89" mask="url(#mask-4)" points="59.9280822 135.569444 579.304795 135.569444 579.304795 124.009259 59.9280822 124.009259"></polygon>
                    </g>
                    <g id="Lab-Coat" transform="translate(61.000000, 108.000000)">
                        <path d="M105.822866,62.0917031 C105.822866,62.0917031 105.822866,83.3828348 110.526316,96.6525948 C110.526316,96.6525948 90.5363195,97.9919569 75.149048,93.1154116 C60,88.3141698 60,89.0526626 60,89.0526626 L105.822866,62.0917031 Z" id="Fill-1" fill="#594A42"></path>
                        <path d="M138.754569,70.510917 C138.754569,70.510917 140.660085,57.9158201 132.490036,59.0007726 C125.067218,59.986671 127.898695,69.883832 127.898695,69.883832 L138.754569,70.510917 Z" id="Fill-3" fill="#FDDBBB"></path>
                        <path d="M103.157895,236.264192 C103.157895,238.879577 86.8986842,241 66.8421053,241 C46.7855263,241 30.5263158,238.879577 30.5263158,236.264192 C30.5263158,233.648539 46.7855263,231.528384 66.8421053,231.528384 C86.8986842,231.528384 103.157895,233.648539 103.157895,236.264192" id="Fill-5" fill="#E6E7E8"></path>
                        <path d="M108.421053,53.6724891 C108.421053,79.246453 90.5784781,99.9781659 67.3241712,99.9781659 C44.0701289,99.9781659 24.2105263,79.246453 24.2105263,53.6724891 C24.2105263,28.0985252 43.0616149,7.36681223 66.3159218,7.36681223 C106.656219,7.36681223 108.421053,28.0985252 108.421053,53.6724891" id="Fill-7" fill="#FDDBBB"></path>
                        <path d="M50.5263158,191.537118 L50.5263158,230.768579 C50.5263158,230.768579 60.6496921,237.864494 63.4679092,235.09772 C66.704663,231.920198 58.3124956,228.459564 58.3124956,228.459564 L59.4464955,191.537118 L50.5263158,191.537118 Z" id="Fill-9" fill="#FDDBBB"></path>
                        <polygon id="Fill-13" fill="#E6E7E8" points="32.1571935 177.855895 31.5789474 185.222707 100 180.174915 99.8180473 177.855895"></polygon>
                        <path d="M50.5263158,229.463428 L50.5263158,236.790393 L53.6314,236.790393 L54.1972069,234.696833 C54.1972069,234.696833 58.0586715,236.790393 63.6422859,236.790393 C72.3987201,236.790393 63.6323406,229.839106 58.6320047,228.371179 C58.6320047,228.371179 64.9324871,230.704508 62.7813454,232.58091 C59.4168771,235.516019 50.5263158,229.463428 50.5263158,229.463428" id="Fill-15" fill="#594A42"></path>
                        <path d="M70.5263158,191.537118 L70.5263158,230.636718 C70.5263158,230.636718 81.2715347,238.132808 83.6490342,234.951308 C86.3514403,231.334789 78.4212058,228.335463 78.4212058,228.335463 L79.5713385,191.537118 L70.5263158,191.537118 Z" id="Fill-17" fill="#FDDBBB"></path>
                        <polygon id="Fill-11" fill="#594A42" points="100 192.58952 30.5263158 192.58952 31.6745374 178.908297 98.8515169 178.908297"></polygon>
                        <path d="M64.2105263,74.720524 C64.2105263,80.5329199 68.92341,85.2445415 74.7368421,85.2445415 C80.5502742,85.2445415 85.2631579,80.5329199 85.2631579,74.720524 L64.2105263,74.720524 Z" id="Fill-19" fill="#EB7D86"></path>
                        <polygon id="Fill-21" fill="#FDDBBB" points="56.8421053 87.349345 56.8421053 103.534077 65.2631579 123.131004 73.6842105 103.534077 73.6842105 87.349345"></polygon>
                        <polygon id="Fill-23" fill="#F5F5F5" points="56.1937624 103.135371 35.5790777 109.745141 28.4210526 177.855895 100 177.855895 92.5556852 108.787253 73.3727098 103.135371 64.7832361 122.581578"></polygon>
                        <path d="M49.9351529,149.220138 C50.2397256,149.006578 50.6579916,149.082417 50.8702538,149.390512 C51.0814729,149.698608 51.006112,150.121515 50.7012785,150.335075 C50.3967057,150.549162 49.9776575,150.472796 49.7661776,150.164701 C49.5549585,149.857132 49.6308409,149.433961 49.9351529,149.220138 M55.1533079,163.666653 L48.5285901,154.024057 L48.9507675,153.473435 C48.9507675,153.473435 50.3578518,154.360328 52.0987145,152.660537 C53.6176667,151.178519 52.1774653,148.859377 52.1774653,148.859377 C52.1774653,148.859377 50.6926732,146.318774 48.1950725,147.612775 C46.3981455,148.542855 46.5326999,149.954827 46.5326999,149.954827 L45.9097339,150.212363 L39.2164351,140.469702 C38.0930624,138.833636 35.8497068,138.424159 34.2303604,139.559898 L32.2748887,140.932108 L28.4210526,177.855895 L41.2133683,177.855895 L54.2531494,168.705725 C55.8719744,167.570248 56.2772021,165.302719 55.1533079,163.666653" id="Fill-25" fill="#E6E7E8"></path>
                        <path d="M21.4567455,191.944896 C19.8465669,193.083314 17.6129762,192.673494 16.4946237,191.034216 L0.633430712,167.787444 C-0.485181395,166.148165 -0.0826367601,163.875817 1.52857994,162.737928 L34.3316853,139.561351 C35.9434211,138.423198 38.1762331,138.833281 39.2943262,140.472823 L55.1562978,163.719331 C56.2749099,165.358873 55.8715866,167.631221 54.2603699,168.769111 L21.4567455,191.944896 Z" id="Fill-27" fill="#C49A6C"></path>
                        <polygon id="Fill-29" fill="#F5F5F5" points="51.5789474 166.523539 35.9409809 144.179039 4.21052632 166.034891 19.8479664 188.379913"></polygon>
                        <polygon id="Fill-31" fill="#F5F5F5" points="51.5789474 165.471266 35.9409809 143.126638 4.21052632 164.982621 19.8479664 187.327511"></polygon>
                        <path d="M50.5877255,150.237227 C50.3717768,149.931337 50.4493584,149.51136 50.7604846,149.298363 C51.0718773,149.086412 51.4997758,149.161511 51.7165244,149.467924 C51.9322066,149.773813 51.8554248,150.194052 51.5437654,150.406264 C51.2323726,150.619 50.8042075,150.543116 50.5877255,150.237227 Z M50.2686013,160.035899 L48.3818489,155.264126 L49.7540567,153.524821 C49.7540567,153.524821 51.1929153,154.406118 52.9724931,152.717314 C54.525458,151.244648 53.0530073,148.939878 53.0530073,148.939878 C53.0530073,148.939878 51.5349675,146.415569 48.9817066,147.701143 C47.1442758,148.625615 47.2821098,150.028416 47.2821098,150.028416 L45.1986041,150.865491 L41.4253659,147.52504 L37.8947368,148.838351 L47.9912749,163.122271 L50.2686013,160.035899 Z" id="Fill-33" fill="#BDBDBD"></path>
                        <polygon id="Fill-35" fill="#BDBDBD" points="32.1261891 174.69869 20 158.199992 20.5051259 157.860262 32.6315789 174.358708"></polygon>
                        <polygon id="Fill-37" fill="#BDBDBD" points="35.2840944 172.593886 23.1578947 156.095188 23.663274 155.755459 35.7894737 172.254157"></polygon>
                        <polygon id="Fill-39" fill="#BDBDBD" points="38.4419891 170.489083 26.3157895 153.990637 26.8211688 153.650655 38.9473684 170.149353"></polygon>
                        <polygon id="Fill-41" fill="#BDBDBD" points="40.5472523 168.384279 28.4210526 151.885581 28.9264319 151.545852 41.0526316 168.044298"></polygon>
                        <polygon id="Fill-43" fill="#BDBDBD" points="43.705147 166.279476 31.5789474 149.78103 32.0843266 149.441048 44.2105263 165.939746"></polygon>
                        <polygon id="Fill-45" fill="#BDBDBD" points="28.9683049 176.803493 16.8421053 160.305047 17.3474845 159.965066 29.4736842 176.463764"></polygon>
                        <polygon id="Fill-47" fill="#BDBDBD" points="25.8104102 179.960699 13.6842105 163.462252 14.1895898 163.122271 26.3157895 179.620969"></polygon>
                        <polygon id="Fill-49" fill="#BDBDBD" points="22.6525155 182.065502 10.5263158 165.566804 11.0316951 165.227074 23.1578947 181.72552"></polygon>
                        <path d="M36.9396069,177.022699 L37.9228647,176.176122 C37.9228647,176.176122 22.981504,163.669515 22.167384,148.388646 L11.5789474,155.909453 C13.3568191,164.356063 18.2851711,173.953565 28.0941365,184.637686 L29.496004,183.430915 C29.496004,183.430915 30.0201001,184.210069 30.8955615,185.222707 L40,178.755989 C38.4117987,177.654155 36.9396069,177.022699 36.9396069,177.022699" id="Fill-51" fill="#E6E7E8"></path>
                        <path d="M30.5263158,181.034405 C30.5263158,181.034405 37.8254425,191.511365 43.6090458,185.428789 C49.3923862,179.345953 38.153109,174.69869 38.153109,174.69869 L30.5263158,181.034405 Z" id="Fill-53" fill="#FDDBBB"></path>
                        <path d="M36.0439142,109.449782 C36.0439142,109.449782 -13.9819881,135.07607 29.036701,181.0131 L38.9473684,172.648725 C38.9473684,172.648725 5.24385275,144.995589 35.9064925,121.872001 L36.0439142,109.449782 Z" id="Fill-55" fill="#F5F5F5"></path>
                        <path d="M26.6898145,176.555442 C27.1352264,176.930313 27.7992072,176.873611 28.174061,176.430561 C28.5477657,175.983838 28.4909975,175.320639 28.0471945,174.946686 C27.6043108,174.571815 26.9387211,174.628746 26.5634076,175.071337 C26.1890134,175.516683 26.2455518,176.1808 26.6898145,176.555442" id="Fill-57" fill="#E1E2E3"></path>
                        <path d="M28.7950939,179.712566 C29.2403019,180.087829 29.9030599,180.030874 30.278661,179.586253 C30.6531135,179.142781 30.596601,178.478147 30.1520823,178.104032 C29.7073338,177.729458 29.0436569,177.785035 28.6689747,178.229656 C28.2945222,178.673587 28.3503454,179.337991 28.7950939,179.712566" id="Fill-59" fill="#E1E2E3"></path>
                        <g id="Group-63" transform="translate(85.263158, 69.458515)">
                            <mask id="mask-6" fill="white">
                                <use xlink:href="#path-5"></use>
                            </mask>
                            <g id="Clip-62"></g>
                            <path d="M0.084477193,48.6890511 C0.084477193,48.6890511 54.3852491,64.7384408 54.5684872,0.802140611 L41.5437253,0.0473054585 C41.5437253,0.0473054585 45.7467328,44.7272847 8.75192581,39.6228731 L0.084477193,48.6890511 Z" id="Fill-61" fill="#F5F5F5" mask="url(#mask-6)"></path>
                        </g>
                        <path d="M137.887938,76.7067435 C137.821528,76.1290703 137.2999,75.7149068 136.723353,75.7795769 C136.144736,75.8479162 135.730422,76.3682578 135.796372,76.9443257 C135.860943,77.5201643 136.38372,77.9350157 136.960498,77.871263 C137.538425,77.804529 137.953429,77.2832701 137.887938,76.7067435" id="Fill-64" fill="#E1E2E3"></path>
                        <path d="M137.887812,72.4969837 C137.821625,71.9187303 137.300404,71.5050691 136.722189,71.5700337 C136.145352,71.6352278 135.729846,72.1570102 135.796493,72.7338862 C135.862679,73.3116805 136.383441,73.7269486 136.961426,73.6612954 C137.538263,73.5958717 137.953998,73.0745484 137.887812,72.4969837" id="Fill-66" fill="#E1E2E3"></path>
                        <path d="M70.5263158,229.463428 L70.5263158,236.790393 L73.6314014,236.790393 L74.1972086,234.696833 C74.1972086,234.696833 78.058675,236.790393 83.642292,236.790393 C92.3987302,236.790393 83.6323467,229.839106 78.6317397,228.371179 C78.6317397,228.371179 84.932225,230.704508 82.7813511,232.58091 C79.4166124,235.516019 70.5263158,229.463428 70.5263158,229.463428" id="Fill-68" fill="#594A42"></path>
                        <polygon id="Fill-70" fill="#E1E2E3" points="65.2631579 122.078603 77.0686988 114.207073 73.8493139 109.97177 78.9473684 107.285974 77.3942341 103.939234 73.8493139 102.082969"></polygon>
                        <polygon id="Fill-72" fill="#E1E2E3" points="66.3157895 122.078603 54.5102485 114.207073 57.7296335 109.97177 52.6315789 107.285974 54.1849739 103.939234 57.7296335 102.082969"></polygon>
                        <mask id="mask-8" fill="white">
                            <use xlink:href="#path-7"></use>
                        </mask>
                        <g id="Clip-75"></g>
                        <polygon id="Fill-74" fill="#E1E2E3" mask="url(#mask-8)" points="72.6315789 130.497817 87.3684211 130.497817 87.3684211 128.393013 72.6315789 128.393013"></polygon>
                        <path d="M60,55.7772926 C60,59.1775434 58.8217749,61.0393013 57.3684211,61.0393013 C55.9150672,61.0393013 54.7368421,59.1775434 54.7368421,55.7772926 C54.7368421,52.3770418 55.9150672,50.5152838 57.3684211,50.5152838 C58.8217749,50.5152838 60,52.3770418 60,55.7772926" id="Fill-76" fill="#594A42" mask="url(#mask-8)"></path>
                        <path d="M94.7368421,55.7772926 C94.7368421,59.1775434 93.5583655,61.0393013 92.1052632,61.0393013 C90.6519093,61.0393013 89.4736842,59.1775434 89.4736842,55.7772926 C89.4736842,52.3770418 90.6519093,50.5152838 92.1052632,50.5152838 C93.5583655,50.5152838 94.7368421,52.3770418 94.7368421,55.7772926" id="Fill-77" fill="#594A42" mask="url(#mask-8)"></path>
                        <path d="M41.672237,51.2155563 L42.0533651,39.0708665 C42.0533651,39.0708665 77.6512048,45.7864916 109.473684,38.4440539 C107.525256,16.957295 89.2406156,-0.0599608349 66.3866641,0.000158803888 C12.0815888,0.000158803888 11.0303831,49.6341484 23.0653678,90.7936215 C38.3094352,97.1848619 49.7464476,97.8733624 49.7464476,97.8733624 C42.1167543,83.7272114 41.6727652,58.949033 41.6727652,58.949033 C41.6727652,58.949033 33.7266538,62.254829 34.3365115,53.7092144 C34.7559373,47.8292523 41.672237,51.2155563 41.672237,51.2155563" id="Fill-78" fill="#594A42" mask="url(#mask-8)"></path>
                    </g>
                    <g id="Advert-Going-In-Machine" transform="translate(203.000000, 170.000000)">
                        <rect id="Rectangle-12" fill="#F9FBFC" x="0" y="1.05882353" width="26" height="34.9411765"></rect>
                        <rect id="Rectangle-12" fill="#56666B" x="3.12" y="6.35294118" width="22.88" height="4.23529412"></rect>
                        <rect id="Rectangle-12" fill="#56666B" x="3.12" y="12.7058824" width="15.6" height="4.23529412"></rect>
                        <rect id="Rectangle-12" fill="#D0D2D3" x="3.12" y="19.0588235" width="22.88" height="4.23529412"></rect>
                        <rect id="Rectangle-12" fill="#D0D2D3" x="3.12" y="25.4117647" width="19.76" height="4.23529412"></rect>
                        <polygon id="Path-3" fill="#FFFFFF" points="8.38042969 0.351303998 12.4896484 6.45918543 8.38042969 11.8432617 12.4896484 18.1607881 11.4971289 12.9434455 15.5944141 6.45918543 11.4971289 0.351303998"></polygon>
                    </g>
                    <g id="Advert-Coming-Out-Machine" transform="translate(406.000000, 171.000000)">
                        <rect id="Rectangle-12" fill="#F9FBFC" x="0" y="0" width="26" height="35"></rect>
                        <rect id="Rectangle-12" fill="#4A90E2" x="0" y="5.3030303" width="22.88" height="4.24242424"></rect>
                        <rect id="Rectangle-12" fill="#417505" x="0" y="11.6666667" width="10.4" height="4.24242424"></rect>
                        <rect id="Rectangle-12" fill="#D0D2D3" x="0" y="18.030303" width="22.88" height="4.24242424"></rect>
                        <rect id="Rectangle-12" fill="#D0D2D3" x="0" y="24.3939394" width="18.72" height="4.24242424"></rect>
                    </g>
                    <g id="Full-Advert" transform="translate(438.000000, 171.000000)">
                        <rect id="Rectangle-12" fill="#F9FBFC" x="0" y="0" width="57" height="35"></rect>
                        <rect id="Rectangle-12" fill="#4A90E2" x="4.22222222" y="5.3030303" width="49.6111111" height="4.24242424"></rect>
                        <rect id="Rectangle-12" fill="#417505" x="4.22222222" y="11.6666667" width="22.1666667" height="4.24242424"></rect>
                        <rect id="Rectangle-12" fill="#D0D2D3" x="4.22222222" y="18.030303" width="49.6111111" height="4.24242424"></rect>
                        <rect id="Rectangle-12" fill="#D0D2D3" x="4.22222222" y="24.3939394" width="41.1666667" height="4.24242424"></rect>
                    </g>
                    <g id="Full-Advert-Copy" transform="translate(506.000000, 171.000000)">
                        <rect id="Rectangle-12" fill="#F9FBFC" x="0" y="0" width="57" height="35"></rect>
                        <rect id="Rectangle-12" fill="#4A90E2" x="4.22222222" y="5.3030303" width="49.6111111" height="4.24242424"></rect>
                        <rect id="Rectangle-12" fill="#417505" x="4.22222222" y="11.6666667" width="22.1666667" height="4.24242424"></rect>
                        <rect id="Rectangle-12" fill="#D0D2D3" x="4.22222222" y="18.030303" width="49.6111111" height="4.24242424"></rect>
                        <rect id="Rectangle-12" fill="#D0D2D3" x="4.22222222" y="24.3939394" width="41.1666667" height="4.24242424"></rect>
                    </g>
                </g>
            </g>
        </g>
    </g>
</svg>
