<?xml version="1.0" encoding="utf-8"?>
<!-- Generator: Adobe Illustrator 22.0.1, SVG Export Plug-In . SVG Version: 6.00 Build 0)  -->
<svg version="1.1" id="Layer_1" xmlns="http://www.w3.org/2000/svg" xmlns:xlink="http://www.w3.org/1999/xlink" x="0px" y="0px"
	 viewBox="0 0 500 500" style="enable-background:new 0 0 500 500;" xml:space="preserve">
<style type="text/css">
	.st0{fill:#F2F2F2;}
	.st1{fill:#FDDBBB;}
	.st2{fill:#213565;}
	.st3{fill:#E6E6E6;}
	.st4{fill:#574939;}
	.st5{fill:#56666B;}
	.st6{fill:none;}
	.st7{fill:#EB7D86;}
	.st8{fill:#E6E7E7;}
	.st9{fill:#CFD1D2;}
	.st10{fill:#E9571E;}
	.st11{fill:#E73E4A;}
	.st12{fill:#F29129;}
	.st13{fill:none;stroke:#E84443;stroke-width:0.9045;stroke-miterlimit:10;}
	.st14{fill:#FFFFFF;stroke:#E84443;stroke-width:0.9045;stroke-miterlimit:10;}
	.st15{fill:#FDDCBE;}
	.st16{opacity:0.1;enable-background:new    ;}
	.st17{fill:#E6E7E8;}
	.st18{fill:#553625;}
	.st19{fill:#333333;}
	.st20{fill:#F5F5F5;}
	.st21{fill:#808080;}
	.st22{fill:#CCCCCC;}
</style>
<g>
	<g>
		<ellipse class="st0" cx="133.6" cy="363.5" rx="80.1" ry="12"/>
		<g>
			<g>
				<path class="st1" d="M169.4,224.5l8.6-4.6c12.3,43,50.4,18.3,62.7,4.3c0.5-0.5,3.1-3.2,4.5-2c0.6,0.6,0.5,1.4,0.2,2.2
					c0.8-0.3,1.5-0.5,2,0c0.6,0.6,0.5,1.2,0.3,2c0.6-0.3,1.4-0.3,1.8,0.2c0.6,0.6,0.5,1.4,0.2,2.2c0.8-0.3,1.5-0.5,2,0
					c1.2,1.2,0.2,2.8-0.9,3.8C223.5,261.6,182.8,272.9,169.4,224.5z"/>
			</g>
		</g>
		<path class="st2" d="M178.2,219.9l-8.6,4.6c2.3,8.5,5.4,15.1,9.2,20.3l7.5-8.6C182.9,232.4,180.2,227.1,178.2,219.9z"/>
		<g>
			<path class="st3" d="M178.2,219.9l-8.6,4.6c3.4,12,8.3,20.4,14.4,25.7l-4.9-27.4C178.6,221.9,178.3,221,178.2,219.9z"/>
		</g>
		<g>
			<g>
				<path class="st1" d="M178,217.8c0,0-8.3-131.7-99.4-82.7c0,0-26.9,22.3-12.6,93.4C142.4,238.4,178,217.8,178,217.8z"/>
			</g>
			<g>
				<path class="st4" d="M83.2,186.1v-21.2c49.5-3.7,85.3-17.4,85.3-17.4c-11.4-44.3-51.9-44.4-71.9-39.7
					c-25.4,5.5-34.9,23.1-37,29.2c-2-2.3-2.5-5.4-2.5-5.4c-3.4,4.6-1.2,8.3-1.2,8.3c-4.9,0.3-6.3,5.2-6.3,5.2
					c1.5-0.6,3.1-0.6,4.5-0.5c-25.4,13.4,11.8,83.8,11.8,83.8c10.5-7.4,17.2-34.7,17.2-34.7s-11.4,4.9-10.5-4.3
					C73.5,180.1,83.2,186.1,83.2,186.1z"/>
			</g>
			<g>
				<g>
					<path class="st1" d="M46.5,159.5C46.5,159.5,46.3,159.5,46.5,159.5C46.3,159.5,46.5,159.5,46.5,159.5z"/>
				</g>
				<g>
					<path class="st1" d="M47.4,163.1c-0.2,0-0.2,0-0.2,0S47.2,163.1,47.4,163.1z"/>
				</g>
			</g>
		</g>
		<g>
			<path class="st5" d="M80,297.4l1.8,30.9l-2.3,34.4c0,0,33.4,10.5,24.3-3.5c-8.3-13.1-18.9-2.2-18.9-2.2l6.3-30l2.6-21.7
				c0,0,41.2,2.9,76.1-6.8l-1.8,24l-6.9,39.8c0,0,34,11.1,24.7-4.3c-7.1-11.1-18.4-2.3-18.4-2.3l9.8-33.2l4.1-34.6L80,297.4z"/>
		</g>
		<g>
			<g>
				<g>
					<path class="st2" d="M178,217.8l3.7,69.9c0,0-41.8,11.8-101.7,9.5l-14.1-68.9C65.8,228.5,135.2,235.4,178,217.8z"/>
				</g>
			</g>
		</g>
		<g>
			<g>
				<path class="st6" d="M44.6,156.9C44.5,156.9,44.5,156.9,44.6,156.9C44.5,156.9,44.5,156.9,44.6,156.9z"/>
			</g>
			<g>
				<path class="st6" d="M45.4,160.4c-0.2,0-0.2,0-0.2,0H45.4z"/>
			</g>
		</g>
		<g>
			<g>
				<path class="st4" d="M151.6,175c0.8,4,3.1,6.8,5.2,6.3c2-0.5,3.1-4,2.2-7.8c-0.8-4-3.1-6.8-5.2-6.3
					C151.7,167.7,150.8,171.2,151.6,175z"/>
			</g>
		</g>
		<g>
			<g>
				<path class="st4" d="M106.4,184.1c0.8,4,3.1,6.8,5.2,6.3c2-0.5,3.1-4,2.2-7.8c-0.8-4-3.1-6.8-5.2-6.3
					C106.6,176.7,105.5,180.3,106.4,184.1z"/>
			</g>
		</g>
		<g>
			<g>
				<path class="st7" d="M154.7,194.7c0,0-21.4,2.2-33.7,8.1c0,0,2.8,19.1,22.1,13.2C161.9,210.5,154.7,194.7,154.7,194.7z"/>
			</g>
		</g>
		<g>
			<g>
				<path class="st1" d="M68.4,241l-2.6-12.4c-42,2.6-52.7-52.6-49.8-71c0.2-0.6,0.5-4.5-1.2-4.6c-0.9-0.2-1.4,0.5-1.8,1.2
					c-0.2-0.8-0.5-1.5-1.4-1.5c-0.8-0.2-1.4,0.5-1.7,1.1c-0.2-0.6-0.6-1.2-1.2-1.4c-0.9-0.2-1.4,0.5-1.8,1.2
					c-0.2-0.8-0.5-1.5-1.4-1.5c-1.7-0.2-2.2,1.7-2.3,3.1C-1.8,194.6,20.8,244.4,68.4,241z"/>
			</g>
		</g>
		<g>
			<path class="st2" d="M68.4,241l-2.6-12.4c-4.8,0.3-8.9-0.2-12.9-1.2l-1.7,12.4C56.6,241,62.3,241.4,68.4,241z"/>
		</g>
		<g>
			<g>
				<path class="st8" d="M152.1,234.7c-1.4-0.6-8.8,5.1-12.9,14.3c-1.8,4.3-3.1,8.5-3.4,11.7c1.4,0.5,2.8,0.9,4.3,1.5
					c1.4,0.6,2.8,1.4,4,2c2.2-2.6,4.5-6.3,6.3-10.5C154.5,244.7,153.6,235.3,152.1,234.7z M147,246.5c-1.2-0.5-1.7-1.8-1.2-3.1
					c0.5-1.2,1.8-1.7,3.1-1.2c1.2,0.5,1.7,1.8,1.2,3.1C149.4,246.5,148.1,247,147,246.5z"/>
				<path class="st9" d="M150.4,253.9c4-9.2,3.1-18.6,1.7-19.2l0,0l-3.4,7.7l0,0c1.2,0.5,1.7,1.8,1.2,3.1s-1.8,1.7-3.1,1.2l0,0
					l-6.9,15.8c1.4,0.6,2.8,1.4,4,2C146.4,261.7,148.5,258.2,150.4,253.9z"/>
				<path class="st10" d="M141.1,265.6c0.2-0.2,0.2-0.5,0.2-0.6l0,0l0,0c0.2-0.9-0.5-1.8-1.4-2.3c-0.9-0.5-2-0.2-2.6,0.6l0,0l0,0
					c-0.2,0.2-0.3,0.3-0.3,0.6c0,0,0,0,0,0.2c0,0.2,0,0.2,0,0.2c-0.8,1.7,0.8,4,0.8,4s2.6-0.5,3.4-2.2v-0.2
					C141.1,265.7,141.1,265.7,141.1,265.6z"/>
				<path class="st11" d="M152.1,234.7c-0.8-0.3-3.5,1.4-6.5,4.5l7.5,3.2C153.6,238.1,152.8,235,152.1,234.7z"/>
				<path class="st11" d="M137,252.7l-7.1,3.2l-1.5,3.5c2,0,4.1,0.3,6.6,0.9C135.5,258.2,136.1,255.4,137,252.7z"/>
				<path class="st11" d="M144.8,264.8c1.7,1.1,3.2,2.3,4.5,3.4c0.6-1.1,1.4-2,2.3-2.8l-2.5-7.2C147.8,260.7,146.4,263,144.8,264.8z
					"/>
			</g>
			<g>
				<path class="st12" d="M137.1,269.6c-0.6,1.5-1.1,3.2-1.4,4.8c-0.3,1.5-0.5,3.4,0,4.9c0.2,0.8,0.5,1.5,0.9,2.3
					c0.5,0.8,1.1,1.4,1.7,1.8c1.4,0.9,3.1,1.4,4.8,1.5c0.8,0,1.7,0,2.5,0s1.7-0.2,2.5-0.2c1.7-0.2,3.4-0.6,4.9-0.9
					c3.2-0.8,6.5-1.8,9.7-2.9c-1.5,0.6-3.2,1.2-4.8,1.7c-1.5,0.5-3.2,1.1-4.8,1.4c-1.7,0.5-3.2,0.8-4.9,0.9
					c-0.8,0.2-1.7,0.2-2.5,0.2s-1.7,0-2.5,0c-1.7-0.2-3.4-0.6-4.8-1.5c-0.8-0.5-1.2-1.1-1.7-1.8c-0.5-0.8-0.8-1.5-0.9-2.3
					c-0.3-1.7-0.2-3.4,0.2-5.1C135.9,272.6,136.4,271.1,137.1,269.6z"/>
			</g>
			<g>
				<path class="st12" d="M138.1,270c-0.3,0.8-0.5,1.4-0.6,2.2c-0.2,0.8-0.3,1.4-0.5,2.2c-0.2,0.8-0.2,1.5-0.2,2.2
					c0,0.8,0,1.5,0.2,2.2c0.2,0.8,0.5,1.4,0.8,2c0.3,0.6,0.9,1.2,1.5,1.5c0.6,0.5,1.2,0.8,2,1.1c0.3,0.2,0.8,0.2,1.1,0.3
					c0.2,0,0.3,0,0.6,0.2l0.6,0.2c-0.3,0-0.8,0-1.1-0.2c-0.3,0-0.8-0.2-1.1-0.3c-0.8-0.2-1.4-0.6-2-0.9c-0.6-0.5-1.1-0.9-1.5-1.7
					c-0.5-0.8-0.6-1.4-0.8-2.2c-0.3-1.5-0.3-2.9,0-4.5C137,272.8,137.5,271.3,138.1,270z"/>
			</g>
			<circle class="st13" cx="147.9" cy="244.4" r="2.3"/>
			<circle class="st14" cx="147.9" cy="244.4" r="2.3"/>
		</g>
	</g>
	<g>
		<ellipse class="st0" cx="401.5" cy="363.6" rx="76.1" ry="11.4"/>
		<path class="st15" d="M358.6,217c0,0,9.7-130.3,101.4-82.5c0,0,16.4,32.7,11.8,94.5C394.4,238.1,358.6,217,358.6,217z"/>
		<path class="st4" d="M360.9,150.9c20.6-7.7,77-1.2,98.7,12.8l-4.3,24.6c0,0,12.9-7.5,12,3.8c-0.8,11.5-12.3,4.5-12.3,4.5
			s3.7,24.1,16.8,32.4c-0.6,0.9,47.5-77.6,12-80.5c0,0,1.8-26-25.4-39.2C419.3,90.4,376.6,105.4,360.9,150.9z"/>
		<path class="st15" d="M492.2,159.7L492.2,159.7L492.2,159.7z"/>
		<path class="st15" d="M491.3,163.2c0.2,0,0.2,0,0.2,0S491.4,163.2,491.3,163.2z"/>
		<path class="st5" d="M456.7,298.5l-3.7,36.1l2.3,30.1c0,0-40.3,10.9-30.1-5.1c9.4-14.8,24-2.5,24-2.5l-5.7-24.1l-0.9-27
			c0,0-41.6,2.5-76.8-7.7l-1.2,30.4l6.1,31.7c0,0-38.1,12.4-27.8-4.8c5.7-9.7,19.8-3.5,19.8-3.5l-7.5-23.2l-1.1-41.2L456.7,298.5z"
			/>
		<path class="st2" d="M358.6,217l-4.6,70.7c0,0,42.1,12.4,102.7,10.8l15.1-69.5C471.7,229.1,401.6,235.3,358.6,217z"/>
		<path class="st3" d="M364,292c-0.6,0.6-1.4,0.6-2.2,0.3c0.5,0.6,0.6,1.5,0,2.2c-0.5,0.6-1.2,0.6-2,0.3c0.3,0.6,0.5,1.4,0,1.8
			c-0.6,0.6-1.4,0.6-2.2,0.3c0.5,0.6,0.6,1.5,0,2c-1.1,1.2-2.5,0.3-3.7-0.6v-10.6l0,0l0.5-6.6c2.6,2.6,5.1,4.8,7.4,6.5
			C362.3,288,365.2,290.6,364,292z"/>
		<path class="st15" d="M358.6,217l-0.9,13.4c-41.2,11.7-11.4,43.8,3.4,55.6c0.5,0.5,3.4,3.1,2.2,4.3c-0.6,0.6-1.4,0.6-2.2,0.3
			c0.5,0.6,0.6,1.5,0,2.2c-0.5,0.6-1.2,0.6-2,0.3c0.3,0.6,0.5,1.4,0,1.8c-0.6,0.6-1.4,0.6-2.2,0.3c0.5,0.6,0.6,1.5,0,2
			c-1.1,1.2-2.6,0.2-3.8-0.8C319.6,270.3,305.3,229.9,358.6,217z"/>
		<path class="st2" d="M358.6,217l-0.9,13.4c-4.5,1.2-8,2.8-10.9,4.5l-5.5-11.5C346,220.8,351.7,218.7,358.6,217z"/>
		<path class="st16" d="M357.7,230.5c-1.1,0.3-2.2,0.6-3.1,0.9l4-14.3L357.7,230.5z"/>
		<path class="st7" d="M387.8,196.3c0,0,21.1,0.9,33.7,6c0,0-0.2,17.2-19.8,14.3C382,213.6,387.8,196.3,387.8,196.3z"/>
		<path class="st15" d="M471.7,229.3l-2.8,13.1c36.4,22.4-0.9,45.3-18.3,52.6c-0.6,0.3-4.1,2-3.2,3.5c0.5,0.8,1.2,0.9,2,0.9
			c-0.6,0.6-0.9,1.2-0.6,2c0.3,0.8,1.1,0.9,1.8,0.9c-0.5,0.5-0.8,1.2-0.5,1.8c0.5,0.8,1.2,0.9,2,0.9c-0.6,0.6-0.9,1.2-0.6,2
			c0.8,1.5,2.5,0.9,4,0.3C494.8,291.1,519.5,256,471.7,229.3z"/>
		<path class="st2" d="M471.7,229.3l-2.8,13.1c4,2.5,7.1,4.8,9.4,7.2l8.5-9.7C482.8,236.4,477.9,232.7,471.7,229.3z"/>
		<path class="st4" d="M387.8,172c-0.9,4.5-3.7,7.5-5.8,7.1c-2.3-0.5-3.2-4.5-2.3-8.9c0.9-4.5,3.7-7.5,5.8-7.1
			C387.8,163.5,388.9,167.5,387.8,172z"/>
		<path class="st4" d="M439,183.5c-0.9,4.5-3.7,7.5-5.8,7.1c-2.3-0.5-3.2-4.5-2.3-8.9c0.9-4.5,3.7-7.5,5.8-7.1
			C439,175,440.1,179,439,183.5z"/>
		<g>
			<g>
				<path class="st8" d="M400.1,253.9c1.8,4.5,4.3,8.3,6.5,10.9c1.2-0.8,2.8-1.5,4.1-2.2c1.5-0.6,2.9-1.2,4.5-1.7
					c-0.5-3.5-1.7-7.8-3.5-12.1c-4.1-9.7-12-15.5-13.4-14.9S395.8,244.2,400.1,253.9z M400.6,245c-0.5-1.2,0-2.6,1.2-3.1
					c1.2-0.5,2.6,0,3.1,1.2c0.5,1.2,0,2.6-1.2,3.1C402.4,246.8,401,246.2,400.6,245z"/>
				<path class="st9" d="M406.6,264.8c1.2-0.8,2.8-1.5,4.1-2.2l-7.2-16.4l0,0c-1.2,0.5-2.6,0-3.1-1.2c-0.5-1.2,0-2.6,1.2-3.1l0,0
					l-3.5-8l0,0c-1.4,0.6-2.5,10.3,1.8,20C402,258.3,404.3,262.2,406.6,264.8z"/>
				<path class="st10" d="M409.8,266.3c0,0,0,0.2,0.2,0.2c0.8,1.7,3.5,2.3,3.5,2.3s1.5-2.5,0.8-4.1c0,0,0-0.2-0.2-0.2v-0.2
					c-0.2-0.2-0.2-0.5-0.3-0.6l0,0l0,0c-0.6-0.8-1.7-1.1-2.8-0.6c-0.9,0.5-1.5,1.4-1.4,2.5l0,0l0,0c0,0.2,0.2,0.5,0.2,0.6
					C409.6,266.2,409.8,266.2,409.8,266.3z"/>
				<path class="st11" d="M397.2,242.1l7.8-3.4c-3.1-3.2-5.8-5.1-6.6-4.6C397.5,234.2,396.7,237.4,397.2,242.1z"/>
				<path class="st11" d="M415.9,260.8c2.6-0.8,4.9-1.1,6.9-1.1l-1.5-3.7l-7.4-3.4C414.9,255.6,415.6,258.3,415.9,260.8z"/>
				<path class="st11" d="M401.3,258.3l-2.6,7.5c1.1,0.8,1.8,1.7,2.5,2.9c1.2-1.2,2.8-2.5,4.6-3.5
					C404.3,263.3,402.7,261,401.3,258.3z"/>
			</g>
			<g>
				<path class="st12" d="M415.5,275.1c0.3,1.7,0.5,3.5,0.2,5.2c-0.2,0.9-0.5,1.7-0.9,2.5c-0.5,0.8-1.1,1.4-1.8,1.8
					c-1.5,1.1-3.2,1.4-5.1,1.7c-0.9,0.2-1.7,0.2-2.6,0c-0.9,0-1.7-0.2-2.6-0.3c-1.7-0.3-3.5-0.6-5.2-1.1c-1.7-0.5-3.4-0.9-5.1-1.5
					c-1.7-0.6-3.2-1.2-4.9-1.8c3.2,1.2,6.6,2.3,10,3.1c1.7,0.5,3.4,0.8,5.1,0.9c0.9,0.2,1.7,0.2,2.6,0.3c0.9,0,1.7,0,2.6,0
					c1.7-0.2,3.5-0.6,4.9-1.5c0.8-0.5,1.4-1.1,1.8-1.8c0.5-0.8,0.8-1.5,0.9-2.5C415.8,278.6,415.6,276.9,415.5,275.1
					c-0.5-1.7-0.9-3.4-1.7-4.9C414.6,271.7,415.2,273.4,415.5,275.1z"/>
			</g>
			<g>
				<path class="st12" d="M414.3,275.1c0.3,1.5,0.3,3.1,0,4.6c-0.2,0.8-0.5,1.5-0.9,2.2c-0.5,0.6-0.9,1.2-1.5,1.7
					c-0.6,0.5-1.4,0.8-2.2,1.1c-0.5,0.2-0.8,0.2-1.1,0.3s-0.8,0.2-1.1,0.2l0.6-0.2c0.2,0,0.5,0,0.6-0.2c0.5-0.2,0.8-0.2,1.1-0.3
					c0.8-0.3,1.4-0.6,2-1.1c0.6-0.5,1.1-1.1,1.5-1.7c0.5-0.6,0.6-1.4,0.8-2.2c0.2-0.8,0.3-1.5,0.3-2.3c0-0.8-0.2-1.5-0.2-2.3
					c-0.2-0.8-0.3-1.5-0.5-2.3c-0.2-0.8-0.5-1.5-0.6-2.2C413.6,272,413.9,273.6,414.3,275.1z"/>
			</g>
			<circle class="st13" cx="402.7" cy="244.1" r="2.3"/>
			<circle class="st14" cx="402.7" cy="244.1" r="2.3"/>
		</g>
	</g>
	<g>
		<g>
			<g>
				<g>
					<ellipse class="st17" cx="264.9" cy="393.1" rx="73" ry="10.6"/>
				</g>
			</g>
		</g>
		<g>
			<path class="st1" d="M217.5,167.8c0,31,21.4,56.1,49.3,56.1s51.6-25.2,51.6-56.1s-22.6-56.1-50.6-56.1
				C219.5,111.6,217.5,136.8,217.5,167.8z"/>
			<path class="st18" d="M295.4,139.4c0,0-40.6,10-78.4,2.6c4-33.2,33.4-56.6,77.6-41.3c52.6,18.1,25.5,87.4,12.9,103.9
				c-7.8-15.2-10.5-32.6-10.5-32.6s10.1,4.9,9.2-6.8c-0.6-8-10.1-2.8-10.1-2.8L295.4,139.4z"/>
			<path class="st18" d="M291.6,127.6c0,0,26.1-35.3,53.5-16.8c36.1,24.6-16.9,71.2,30.7,84.2c-27.2,21.1-59.3-2.2-47-32.7
				C346.5,117.6,305.7,118.8,291.6,127.6z"/>
			<path class="st1" d="M287.5,335.3v47.5c0,0-12.4,8.6-16,5.2c-4-3.8,6.3-8,6.3-8l-1.4-44.6h11.1V335.3z"/>
			<path class="st1" d="M186.6,173.2c0.9,0,1.8,0.2,2.5,0.5c-0.2-6.6,0-14.6,2.2-14.3c3.2,0.5,2,16.6,2,21.5c0,0.3,0,0.5,0,0.8
				c0.2,2.8-0.5,5.2-0.5,5.2l-12.4,0.6C180.2,187.2,176.3,173.4,186.6,173.2z"/>
			<path class="st19" d="M287.5,381.5v9.4h-3.7l-0.6-2.6c0,0-4.6,2.6-11.2,2.6c-10.3,0,0-8.9,6-10.8c0,0-7.4,2.9-4.9,5.4
				C277,389.1,287.5,381.5,287.5,381.5z"/>
			<path class="st1" d="M263,335.3v47.5c0,0-13.1,9.1-16,5.2c-3.2-4.5,6.3-8,6.3-8l-1.4-44.6H263V335.3z"/>
			<ellipse class="st18" cx="277.6" cy="167.2" rx="3.5" ry="7.1"/>
			<ellipse class="st18" cx="232.3" cy="167.2" rx="3.5" ry="7.1"/>
			<path class="st7" d="M270.1,193.2c0,6.9-5.7,12.6-12.6,12.6s-12.6-5.7-12.6-12.6H270.1z"/>
			<polygon class="st1" points="278.9,208.5 278.9,228.1 268.4,251.7 257.9,228.1 257.9,208.5 			"/>
			<polygon class="st19" points="278.9,228.1 303.9,236.1 312.7,318.7 225.5,318.7 234.6,235 257.9,228.1 268.4,251.7 			"/>
			<polygon class="st20" points="257.9,228.1 253.3,229.5 268.4,261.6 283.5,229.6 278.9,228.1 268.4,251.7 			"/>
			<polygon class="st20" points="278.9,228.1 283.5,229.6 285.3,246.8 278.9,243.6 271.5,244.8 			"/>
			<polygon class="st20" points="257.9,228.1 253.3,229.5 251.5,246.8 257.9,243.6 265.3,244.8 			"/>
			<ellipse class="st21" cx="268.4" cy="270.3" rx="3.1" ry="3.1"/>
			<path class="st21" d="M265.3,288.6c0,1.7,1.4,3.1,3.1,3.1c1.7,0,3.1-1.4,3.1-3.1c0-1.7-1.4-3.1-3.1-3.1
				C266.7,285.5,265.3,286.9,265.3,288.6z"/>
			<path class="st21" d="M265.3,306.8c0,1.7,1.4,3.1,3.1,3.1c1.7,0,3.1-1.4,3.1-3.1c0-1.7-1.4-3.1-3.1-3.1
				C266.7,303.7,265.3,305.1,265.3,306.8z"/>
			<polygon class="st19" points="226.9,335.3 311.3,335.3 309.9,318.7 228.3,318.7 			"/>
			<polygon class="st22" points="309.9,318.7 310.7,327 228.1,321.4 228.3,318.7 			"/>
			<path class="st3" d="M275.2,318.1l49.2,15.1c1.5,0.5,3.2-0.5,3.7-2l10.6-34.7c0.5-1.5-0.5-3.2-2-3.7l-49.2-15.1
				c-1.5-0.5-3.2,0.5-3.7,2l-10.6,34.7C272.7,316,273.6,317.5,275.2,318.1z"/>
			<path class="st22" d="M302.1,305.4c0,2.2,1.7,4,4,4c2.3,0,4-1.7,4-4c0-2.2-1.7-4-4-4C303.7,301.4,302.1,303.2,302.1,305.4z"/>
			<path class="st22" d="M301.6,316.9l-0.3-0.3l1.4-1.1l-0.8-0.6c0,0,14.3-11.7,18.4-27.2l13.8,4.1c-2.5,9.8-8.6,20.9-20,33.2
				l-1.2-0.9l-1.2,1.8l-0.5-0.5c-0.3,0.5-1.2,1.7-2.6,2.8l-14.1-4.3C295,320.3,299.8,317.7,301.6,316.9z"/>
			<g>
				<path class="st1" d="M309.9,323.8c0,0-7.8,11.2-14.9,3.8c-6.9-7.4,5.8-12.4,5.8-12.4L309.9,323.8z"/>
				<polygon class="st20" points="302.4,313.1 299.8,315.2 310.2,324.6 312,321.8 				"/>
				<path class="st19" d="M303.9,236.1c0,0,61.3,31.4,8.6,87.6l-12.1-10.3c0,0,41.3-33.8,3.7-62.1L303.9,236.1z"/>
				<path class="st21" d="M319.7,312.6c-0.6,0.5-1.5,0.5-2-0.2c-0.5-0.6-0.5-1.5,0.2-2c0.6-0.5,1.5-0.5,2,0.2
					C320.3,311.1,320.3,312,319.7,312.6z"/>
				<path class="st21" d="M316.4,316.4c-0.6,0.5-1.5,0.5-2-0.2c-0.5-0.6-0.5-1.5,0.2-2c0.6-0.5,1.5-0.5,2,0.2
					C317.1,315.1,317,316,316.4,316.4z"/>
				<path class="st21" d="M313.3,320.3c-0.6,0.5-1.5,0.5-2-0.2c-0.5-0.6-0.5-1.5,0.2-2c0.6-0.5,1.5-0.5,2,0.2
					C313.9,318.9,313.9,319.7,313.3,320.3z"/>
			</g>
			<g>
				<polygon class="st20" points="193.6,188.9 193.4,185.6 179.1,186.3 179.4,189.5 				"/>
				<path class="st19" d="M245.2,245.9c0,0-66.1,19.4-66.4-57.8l15.8-0.9c0,0-5.1,53.9,40,47.8L245.2,245.9z"/>
				<path class="st21" d="M181.3,201.2c0.2-0.8,0.8-1.4,1.5-1.2s1.4,0.8,1.2,1.5c-0.2,0.8-0.8,1.4-1.5,1.2
					C181.9,202.7,181.3,201.9,181.3,201.2z"/>
				<path class="st21" d="M181,196.1c0.2-0.8,0.8-1.4,1.5-1.2c0.8,0.2,1.4,0.8,1.2,1.5c-0.2,0.8-0.8,1.4-1.5,1.2
					C181.6,197.5,181,196.9,181,196.1z"/>
				<path class="st21" d="M180.6,191c0.2-0.8,0.8-1.4,1.5-1.2s1.4,0.8,1.2,1.5c-0.2,0.8-0.8,1.4-1.5,1.2
					C181.3,192.6,180.6,192,180.6,191z"/>
			</g>
			<path class="st19" d="M263,381.5v9.4h-3.7l-0.6-2.6c0,0-4.6,2.6-11.2,2.6c-10.3,0,0-8.9,5.8-10.8c0,0-7.4,2.9-4.9,5.4
				C252.6,389.1,263,381.5,263,381.5z"/>
		</g>
	</g>
</g>
</svg>
